<svg width="1130" height="100" viewBox="0 0 1130 100" fill="none" xmlns="http://www.w3.org/2000/svg">
<rect width="1130" height="100" rx="25" fill="url(#paint0_linear_3183_8871)"/>
<path fill-rule="evenodd" clip-rule="evenodd" d="M69.2535 23.0036C70.6576 23.0036 71.7989 24.1448 71.7989 25.5487V30.2033H76.4541C76.9576 30.2032 77.4498 30.3524 77.8685 30.632C78.2872 30.9117 78.6135 31.3092 78.8062 31.7743C78.9989 32.2395 79.0493 32.7513 78.9511 33.2451C78.8528 33.7388 78.6103 34.1924 78.2542 34.5483L72.9978 39.8041C72.2303 40.5698 71.1909 41.0007 70.1067 41.0028H64.8143L52.1053 53.7102C51.5934 54.1871 50.9164 54.4468 50.2169 54.4344C49.5173 54.4221 48.8499 54.1387 48.3552 53.6441C47.8604 53.1494 47.5771 52.4821 47.5647 51.7826C47.5524 51.0831 47.812 50.4062 48.289 49.8944L60.998 37.187V31.8952C60.998 30.8117 61.43 29.7713 62.1969 29.001L67.4533 23.7452C67.6889 23.5077 67.9694 23.3196 68.2785 23.1916C68.5875 23.0637 68.919 22.9986 69.2535 23M30.3956 51.8023C30.3952 48.8668 31.0477 45.9679 32.3057 43.3155C33.5638 40.6632 35.396 38.3237 37.6697 36.4666C39.9434 34.6094 42.6016 33.281 45.452 32.5775C48.3023 31.8741 51.2735 31.8132 54.1503 32.3992C54.8484 32.5324 55.571 32.385 56.1612 31.9889C56.7513 31.5929 57.1615 30.9801 57.3027 30.2836C57.444 29.5871 57.3048 28.863 56.9155 28.2684C56.5262 27.6738 55.9181 27.2566 55.2232 27.1074C49.9151 26.0284 44.4007 26.688 39.497 28.9885C34.5933 31.2891 30.5614 35.1081 27.9988 39.8796C25.4362 44.6511 24.4793 50.1211 25.2699 55.4791C26.0605 60.837 28.5565 65.7977 32.3881 69.6259C36.2196 73.4542 41.1827 75.9462 46.5419 76.7328C51.9011 77.5194 57.3711 76.5586 62.1413 73.9928C66.9115 71.427 70.7281 67.3929 73.0253 62.4881C75.3225 57.5834 75.9782 52.0691 74.8951 46.7625C74.7524 46.0608 74.3367 45.4445 73.7395 45.0493C73.1423 44.654 72.4125 44.5121 71.7107 44.6548C71.0089 44.7976 70.3925 45.2132 69.9972 45.8104C69.6018 46.4075 69.46 47.1372 69.6027 47.8389C69.8643 49.118 69.9963 50.4392 69.9987 51.8023C69.9987 57.0534 67.9125 62.0894 64.199 65.8024C60.4855 69.5155 55.4489 71.6014 50.1972 71.6014C44.9454 71.6014 39.9088 69.5155 36.1953 65.8024C32.4818 62.0894 30.3956 57.0534 30.3956 51.8023ZM49.7075 42.8171C50.4227 42.7789 51.0934 42.4582 51.5721 41.9256C52.0508 41.3929 52.2983 40.692 52.2601 39.9769C52.2219 39.2618 51.9012 38.5911 51.3685 38.1125C50.8357 37.6338 50.1347 37.3864 49.4195 37.4246C46.6542 37.5736 43.9905 38.5166 41.7476 40.1407C39.5047 41.7648 37.7777 44.0011 36.7735 46.5816C35.7693 49.1621 35.5305 51.9774 36.0857 54.6901C36.641 57.4028 37.9667 59.898 39.904 61.8765C41.8414 63.8551 44.3082 65.2332 47.0089 65.8457C49.7096 66.4582 52.5296 66.2791 55.1311 65.3299C57.7327 64.3807 60.0053 62.7017 61.6767 60.494C63.3482 58.2862 64.3475 55.6434 64.5551 52.8823C64.6081 52.1681 64.3752 51.4622 63.9076 50.9197C63.4401 50.3773 62.7761 50.0428 62.0619 49.9898C61.3477 49.9368 60.6416 50.1697 60.0991 50.6372C59.5566 51.1047 59.2221 51.7685 59.1691 52.4827C59.0377 54.2075 58.4121 55.858 57.3669 57.2364C56.3217 58.6149 54.9014 59.663 53.2759 60.2552C51.6504 60.8475 49.8887 60.9588 48.2016 60.5758C46.5145 60.1928 44.9735 59.3318 43.7632 58.0958C42.5528 56.8599 41.7243 55.3013 41.3769 53.6067C41.0295 51.9121 41.1779 50.1533 41.8044 48.5409C42.4308 46.9284 43.5087 45.5307 44.9091 44.5149C46.3094 43.4992 47.9729 42.9085 49.7003 42.8135" fill="white"/>
<path d="M115.037 43H109.57L109.605 39.502H115.037C116.619 39.502 117.943 39.1562 119.01 38.4648C120.088 37.7734 120.896 36.7832 121.436 35.4941C121.986 34.2051 122.262 32.6699 122.262 30.8887V29.5C122.262 28.1172 122.104 26.8926 121.787 25.8262C121.482 24.7598 121.025 23.8633 120.416 23.1367C119.818 22.4102 119.08 21.8594 118.201 21.4844C117.334 21.1094 116.332 20.9219 115.195 20.9219H109.465V17.4062H115.195C116.895 17.4062 118.447 17.6934 119.854 18.2676C121.26 18.8301 122.473 19.6445 123.492 20.7109C124.523 21.7773 125.314 23.0547 125.865 24.543C126.416 26.0312 126.691 27.6953 126.691 29.5352V30.8887C126.691 32.7285 126.416 34.3926 125.865 35.8809C125.314 37.3691 124.523 38.6465 123.492 39.7129C122.461 40.7676 121.23 41.582 119.801 42.1562C118.383 42.7188 116.795 43 115.037 43ZM112.014 17.4062V43H107.602V17.4062H112.014ZM141.422 39.1855V30.1152C141.422 29.4355 141.299 28.8496 141.053 28.3574C140.807 27.8652 140.432 27.4844 139.928 27.2148C139.436 26.9453 138.814 26.8105 138.064 26.8105C137.373 26.8105 136.775 26.9277 136.271 27.1621C135.768 27.3965 135.375 27.7129 135.094 28.1113C134.812 28.5098 134.672 28.9609 134.672 29.4648H130.453C130.453 28.7148 130.635 27.9883 130.998 27.2852C131.361 26.582 131.889 25.9551 132.58 25.4043C133.271 24.8535 134.098 24.4199 135.059 24.1035C136.02 23.7871 137.098 23.6289 138.293 23.6289C139.723 23.6289 140.988 23.8691 142.09 24.3496C143.203 24.8301 144.076 25.5566 144.709 26.5293C145.354 27.4902 145.676 28.6973 145.676 30.1504V38.6055C145.676 39.4727 145.734 40.252 145.852 40.9434C145.98 41.623 146.162 42.2148 146.396 42.7188V43H142.055C141.855 42.543 141.697 41.9629 141.58 41.2598C141.475 40.5449 141.422 39.8535 141.422 39.1855ZM142.037 31.4336L142.072 34.0527H139.031C138.246 34.0527 137.555 34.1289 136.957 34.2812C136.359 34.4219 135.861 34.6328 135.463 34.9141C135.064 35.1953 134.766 35.5352 134.566 35.9336C134.367 36.332 134.268 36.7832 134.268 37.2871C134.268 37.791 134.385 38.2539 134.619 38.6758C134.854 39.0859 135.193 39.4082 135.639 39.6426C136.096 39.877 136.646 39.9941 137.291 39.9941C138.158 39.9941 138.914 39.8184 139.559 39.4668C140.215 39.1035 140.73 38.6641 141.105 38.1484C141.48 37.6211 141.68 37.123 141.703 36.6543L143.074 38.5352C142.934 39.0156 142.693 39.5312 142.354 40.082C142.014 40.6328 141.568 41.1602 141.018 41.6641C140.479 42.1562 139.828 42.5605 139.066 42.877C138.316 43.1934 137.449 43.3516 136.465 43.3516C135.223 43.3516 134.115 43.1055 133.143 42.6133C132.17 42.1094 131.408 41.4355 130.857 40.5918C130.307 39.7363 130.031 38.7695 130.031 37.6914C130.031 36.6836 130.219 35.793 130.594 35.0195C130.98 34.2344 131.543 33.5781 132.281 33.0508C133.031 32.5234 133.945 32.125 135.023 31.8555C136.102 31.5742 137.332 31.4336 138.715 31.4336H142.037ZM154.359 27.6016V43H150.123V23.9805H154.166L154.359 27.6016ZM160.178 23.8574L160.143 27.7949C159.885 27.748 159.604 27.7129 159.299 27.6895C159.006 27.666 158.713 27.6543 158.42 27.6543C157.693 27.6543 157.055 27.7598 156.504 27.9707C155.953 28.1699 155.49 28.4629 155.115 28.8496C154.752 29.2246 154.471 29.6816 154.271 30.2207C154.072 30.7598 153.955 31.3633 153.92 32.0312L152.953 32.1016C152.953 30.9062 153.07 29.7988 153.305 28.7793C153.539 27.7598 153.891 26.8633 154.359 26.0898C154.84 25.3164 155.438 24.7129 156.152 24.2793C156.879 23.8457 157.717 23.6289 158.666 23.6289C158.924 23.6289 159.199 23.6523 159.492 23.6992C159.797 23.7461 160.025 23.7988 160.178 23.8574ZM172.43 23.9805V27.0742H161.707V23.9805H172.43ZM164.801 19.3223H169.037V37.7441C169.037 38.3301 169.119 38.7812 169.283 39.0977C169.459 39.4023 169.699 39.6074 170.004 39.7129C170.309 39.8184 170.666 39.8711 171.076 39.8711C171.369 39.8711 171.65 39.8535 171.92 39.8184C172.189 39.7832 172.406 39.748 172.57 39.7129L172.588 42.9473C172.236 43.0527 171.826 43.1465 171.357 43.2285C170.9 43.3105 170.373 43.3516 169.775 43.3516C168.803 43.3516 167.941 43.1816 167.191 42.8418C166.441 42.4902 165.855 41.9219 165.434 41.1367C165.012 40.3516 164.801 39.3086 164.801 38.0078V19.3223ZM186.369 37.8496C186.369 37.4277 186.264 37.0469 186.053 36.707C185.842 36.3555 185.438 36.0391 184.84 35.7578C184.254 35.4766 183.387 35.2188 182.238 34.9844C181.23 34.7617 180.305 34.498 179.461 34.1934C178.629 33.877 177.914 33.4961 177.316 33.0508C176.719 32.6055 176.256 32.0781 175.928 31.4688C175.6 30.8594 175.436 30.1562 175.436 29.3594C175.436 28.5859 175.605 27.8535 175.945 27.1621C176.285 26.4707 176.771 25.8613 177.404 25.334C178.037 24.8066 178.805 24.3906 179.707 24.0859C180.621 23.7812 181.641 23.6289 182.766 23.6289C184.359 23.6289 185.725 23.8984 186.861 24.4375C188.01 24.9648 188.889 25.6855 189.498 26.5996C190.107 27.502 190.412 28.5215 190.412 29.6582H186.176C186.176 29.1543 186.047 28.6855 185.789 28.252C185.543 27.8066 185.168 27.4492 184.664 27.1797C184.16 26.8984 183.527 26.7578 182.766 26.7578C182.039 26.7578 181.436 26.875 180.955 27.1094C180.486 27.332 180.135 27.625 179.9 27.9883C179.678 28.3516 179.566 28.75 179.566 29.1836C179.566 29.5 179.625 29.7871 179.742 30.0449C179.871 30.291 180.082 30.5195 180.375 30.7305C180.668 30.9297 181.066 31.1172 181.57 31.293C182.086 31.4688 182.73 31.6387 183.504 31.8027C184.957 32.1074 186.205 32.5 187.248 32.9805C188.303 33.4492 189.111 34.0586 189.674 34.8086C190.236 35.5469 190.518 36.4844 190.518 37.6211C190.518 38.4648 190.336 39.2383 189.973 39.9414C189.621 40.6328 189.105 41.2363 188.426 41.752C187.746 42.2559 186.932 42.6484 185.982 42.9297C185.045 43.2109 183.99 43.3516 182.818 43.3516C181.096 43.3516 179.637 43.0469 178.441 42.4375C177.246 41.8164 176.338 41.0254 175.717 40.0645C175.107 39.0918 174.803 38.084 174.803 37.041H178.898C178.945 37.8262 179.162 38.4531 179.549 38.9219C179.947 39.3789 180.439 39.7129 181.025 39.9238C181.623 40.123 182.238 40.2227 182.871 40.2227C183.633 40.2227 184.271 40.123 184.787 39.9238C185.303 39.7129 185.695 39.4316 185.965 39.0801C186.234 38.7168 186.369 38.3066 186.369 37.8496Z" fill="#F0F0F0"/>
<path d="M1080.59 30C1081.35 30.0003 1082.09 30.2076 1082.74 30.6011C1083.39 30.9946 1083.93 31.5602 1084.3 32.2406L1091.44 45.2038C1091.9 46.0504 1092.09 47.0325 1091.96 47.9988C1091.84 48.9652 1091.41 49.8623 1090.75 50.5519L1070.89 71.1859C1070.64 71.444 1070.35 71.6488 1070.02 71.7884C1069.7 71.9281 1069.35 72 1069 72C1068.65 72 1068.3 71.9281 1067.98 71.7884C1067.65 71.6488 1067.36 71.444 1067.11 71.1859L1047.25 50.5519C1046.59 49.8623 1046.16 48.9652 1046.04 47.9988C1045.91 47.0325 1046.1 46.0504 1046.56 45.2038L1053.69 32.2383C1054.07 31.5587 1054.61 30.9937 1055.26 30.6007C1055.91 30.2076 1056.65 30.0004 1057.4 30H1080.59ZM1075.42 36.6683H1062.58C1062.04 36.669 1061.51 36.8859 1061.11 37.2748C1060.72 37.6637 1060.48 38.1953 1060.45 38.7609C1060.42 39.3264 1060.59 39.8833 1060.94 40.3178C1061.29 40.7522 1061.79 41.0314 1062.33 41.0984L1062.58 41.1139H1066.86V44.5481C1065.24 44.7037 1063.76 45.0305 1062.57 45.495C1061.73 45.824 1060.97 46.2419 1060.41 46.7642C1059.84 47.2866 1059.37 48.0023 1059.37 48.8937C1059.37 49.785 1059.84 50.5029 1060.41 51.0231C1060.97 51.5454 1061.73 51.9633 1062.57 52.2901C1063.84 52.7857 1065.43 53.1281 1067.19 53.2681C1067.02 53.5483 1066.91 53.8642 1066.87 54.1928L1066.86 54.4506V58.8962C1066.86 59.4627 1067.07 60.0076 1067.44 60.4196C1067.82 60.8316 1068.33 61.0795 1068.87 61.1127C1069.42 61.1459 1069.95 60.9619 1070.37 60.5982C1070.79 60.2346 1071.06 59.7188 1071.12 59.1562L1071.14 58.8962V54.4506C1071.14 54.0323 1071.02 53.6224 1070.81 53.2681C1072.56 53.1281 1074.15 52.788 1075.42 52.2901C1076.27 51.9633 1077.03 51.5454 1077.59 51.0231C1078.16 50.5007 1078.62 49.785 1078.62 48.8937C1078.62 48.0023 1078.16 47.2844 1077.59 46.7642C1077.03 46.2419 1076.27 45.824 1075.42 45.4972C1074.26 45.0636 1073.05 44.7712 1071.82 44.6259L1071.14 44.5481V41.1139H1075.42C1075.96 41.1133 1076.48 40.8964 1076.88 40.5074C1077.28 40.1185 1077.52 39.587 1077.55 39.0214C1077.58 38.4558 1077.4 37.8989 1077.05 37.4645C1076.7 37.03 1076.21 36.7508 1075.67 36.6839L1075.42 36.6683ZM1071.13 46.782C1072.34 46.8924 1073.53 47.159 1074.67 47.5755C1075.38 47.8512 1075.87 48.1512 1076.17 48.4269C1076.3 48.5308 1076.4 48.6668 1076.47 48.8225L1076.48 48.8937L1076.47 48.9648C1076.4 49.1205 1076.3 49.2565 1076.17 49.3604C1075.87 49.6361 1075.38 49.9384 1074.67 50.2095C1073.27 50.7563 1071.27 51.1164 1069 51.1164C1066.73 51.1164 1064.72 50.7563 1063.32 50.2095C1062.62 49.9361 1062.13 49.6361 1061.82 49.3604C1061.69 49.2565 1061.59 49.1205 1061.52 48.9648L1061.51 48.8937C1061.51 48.8648 1061.52 48.7047 1061.82 48.4269C1062.13 48.149 1062.62 47.8489 1063.32 47.5778C1064.26 47.211 1065.48 46.9265 1066.86 46.782C1066.89 47.3538 1067.12 47.8936 1067.52 48.2891C1067.92 48.6847 1068.45 48.9054 1069 48.9054C1069.55 48.9054 1070.08 48.6847 1070.48 48.2891C1070.87 47.8936 1071.11 47.3538 1071.13 46.782Z" fill="#696969"/>
<defs>
<linearGradient id="paint0_linear_3183_8871" x1="8.62898e-06" y1="50" x2="1130" y2="49.9999" gradientUnits="userSpaceOnUse">
<stop stop-color="#E39359" stop-opacity="0.9"/>
<stop offset="0.4" stop-color="#7D6CD0" stop-opacity="0.9"/>
<stop offset="0.75" stop-color="#212121"/>
</linearGradient>
</defs>
</svg>
