<svg width="1130" height="100" viewBox="0 0 1130 100" fill="none" xmlns="http://www.w3.org/2000/svg">
<rect width="1130" height="100" rx="25" fill="#212121"/>
<rect x="18" y="18" width="64" height="64" rx="15" fill="url(#paint0_linear_3183_8809)"/>
<path fill-rule="evenodd" clip-rule="evenodd" d="M63.4194 29.0028C64.5115 29.0028 65.3991 29.8904 65.3991 30.9823V34.6026H69.0198C69.4114 34.6025 69.7943 34.7185 70.1199 34.936C70.4456 35.1535 70.6994 35.4627 70.8493 35.8245C70.9992 36.1863 71.0384 36.5843 70.9619 36.9684C70.8855 37.3524 70.6969 37.7052 70.4199 37.982L66.3316 42.0698C65.7347 42.6654 64.9263 43.0006 64.083 43.0022H59.9667L50.0819 52.8857C49.6838 53.2567 49.1572 53.4586 48.6131 53.449C48.069 53.4394 47.5499 53.219 47.1651 52.8343C46.7803 52.4495 46.5599 51.9305 46.5503 51.3865C46.5407 50.8425 46.7427 50.3159 47.1137 49.9179L56.9985 40.0343V35.9185C56.9985 35.0757 57.3345 34.2666 57.9309 33.6674L62.0193 29.5796C62.2025 29.3949 62.4207 29.2486 62.661 29.1491C62.9014 29.0495 63.1592 28.9989 63.4194 29M33.1966 51.4018C33.1963 49.1186 33.7037 46.8639 34.6822 44.801C35.6607 42.738 37.0858 40.9185 38.8542 39.474C40.6226 38.0295 42.6901 36.9963 44.9071 36.4492C47.124 35.9021 49.4349 35.8547 51.6724 36.3105C52.2155 36.4141 52.7774 36.2994 53.2365 35.9914C53.6955 35.6833 54.0145 35.2067 54.1244 34.665C54.2342 34.1233 54.126 33.5601 53.8232 33.0976C53.5204 32.6351 53.0474 32.3107 52.5069 32.1947C48.3784 31.3554 44.0894 31.8685 40.2754 33.6578C36.4615 35.4471 33.3255 38.4174 31.3324 42.1286C29.3393 45.8397 28.595 50.0942 29.2099 54.2615C29.8248 58.4288 31.7662 62.2871 34.7463 65.2646C37.7263 68.2421 41.5866 70.1804 45.7548 70.7922C49.9231 71.404 54.1775 70.6567 57.8877 68.6611C61.5979 66.6655 64.5663 63.5278 66.353 59.713C68.1397 55.8982 68.6497 51.6093 67.8073 47.482C67.6963 46.9362 67.373 46.4569 66.9085 46.1494C66.444 45.842 65.8764 45.7316 65.3305 45.8427C64.7847 45.9537 64.3053 46.277 63.9978 46.7414C63.6903 47.2058 63.58 47.7734 63.691 48.3191C63.8945 49.314 63.9971 50.3416 63.999 51.4018C63.999 55.486 62.3764 59.4028 59.4881 62.2908C56.5998 65.1787 52.6824 66.8011 48.5978 66.8011C44.5131 66.8011 40.5958 65.1787 37.7075 62.2908C34.8192 59.4028 33.1966 55.486 33.1966 51.4018ZM48.217 44.4133C48.7732 44.3836 49.2949 44.1342 49.6672 43.7199C50.0395 43.3056 50.232 42.7604 50.2023 42.2042C50.1726 41.648 49.9231 41.1264 49.5088 40.7541C49.0945 40.3819 48.5492 40.1894 47.9929 40.2191C45.8422 40.335 43.7704 41.0685 42.0259 42.3317C40.2814 43.5949 38.9382 45.3342 38.1571 47.3412C37.3761 49.3483 37.1904 51.538 37.6222 53.6479C38.0541 55.7578 39.0852 57.6984 40.592 59.2373C42.0988 60.7762 44.0175 61.848 46.118 62.3244C48.2186 62.8008 50.4119 62.6615 52.4353 61.9233C54.4587 61.185 56.2263 59.8791 57.5263 58.162C58.8264 56.4448 59.6036 54.3893 59.7651 52.2418C59.8063 51.6863 59.6251 51.1373 59.2615 50.7154C58.8978 50.2935 58.3814 50.0333 57.8259 49.9921C57.2704 49.9509 56.7213 50.132 56.2993 50.4956C55.8774 50.8592 55.6172 51.3755 55.5759 51.931C55.4738 53.2725 54.9872 54.5562 54.1743 55.6283C53.3614 56.7005 52.2566 57.5157 50.9924 57.9763C49.7281 58.4369 48.3579 58.5235 47.0457 58.2256C45.7335 57.9278 44.535 57.2581 43.5936 56.2968C42.6522 55.3354 42.0078 54.1232 41.7376 52.8052C41.4674 51.4872 41.5828 50.1193 42.0701 48.8651C42.5573 47.611 43.3957 46.5239 44.4848 45.7338C45.574 44.9438 46.8678 44.4844 48.2114 44.4105" fill="white"/>
<path d="M115.037 43H109.57L109.605 39.502H115.037C116.619 39.502 117.943 39.1562 119.01 38.4648C120.088 37.7734 120.896 36.7832 121.436 35.4941C121.986 34.2051 122.262 32.6699 122.262 30.8887V29.5C122.262 28.1172 122.104 26.8926 121.787 25.8262C121.482 24.7598 121.025 23.8633 120.416 23.1367C119.818 22.4102 119.08 21.8594 118.201 21.4844C117.334 21.1094 116.332 20.9219 115.195 20.9219H109.465V17.4062H115.195C116.895 17.4062 118.447 17.6934 119.854 18.2676C121.26 18.8301 122.473 19.6445 123.492 20.7109C124.523 21.7773 125.314 23.0547 125.865 24.543C126.416 26.0312 126.691 27.6953 126.691 29.5352V30.8887C126.691 32.7285 126.416 34.3926 125.865 35.8809C125.314 37.3691 124.523 38.6465 123.492 39.7129C122.461 40.7676 121.23 41.582 119.801 42.1562C118.383 42.7188 116.795 43 115.037 43ZM112.014 17.4062V43H107.602V17.4062H112.014ZM141.422 39.1855V30.1152C141.422 29.4355 141.299 28.8496 141.053 28.3574C140.807 27.8652 140.432 27.4844 139.928 27.2148C139.436 26.9453 138.814 26.8105 138.064 26.8105C137.373 26.8105 136.775 26.9277 136.271 27.1621C135.768 27.3965 135.375 27.7129 135.094 28.1113C134.812 28.5098 134.672 28.9609 134.672 29.4648H130.453C130.453 28.7148 130.635 27.9883 130.998 27.2852C131.361 26.582 131.889 25.9551 132.58 25.4043C133.271 24.8535 134.098 24.4199 135.059 24.1035C136.02 23.7871 137.098 23.6289 138.293 23.6289C139.723 23.6289 140.988 23.8691 142.09 24.3496C143.203 24.8301 144.076 25.5566 144.709 26.5293C145.354 27.4902 145.676 28.6973 145.676 30.1504V38.6055C145.676 39.4727 145.734 40.252 145.852 40.9434C145.98 41.623 146.162 42.2148 146.396 42.7188V43H142.055C141.855 42.543 141.697 41.9629 141.58 41.2598C141.475 40.5449 141.422 39.8535 141.422 39.1855ZM142.037 31.4336L142.072 34.0527H139.031C138.246 34.0527 137.555 34.1289 136.957 34.2812C136.359 34.4219 135.861 34.6328 135.463 34.9141C135.064 35.1953 134.766 35.5352 134.566 35.9336C134.367 36.332 134.268 36.7832 134.268 37.2871C134.268 37.791 134.385 38.2539 134.619 38.6758C134.854 39.0859 135.193 39.4082 135.639 39.6426C136.096 39.877 136.646 39.9941 137.291 39.9941C138.158 39.9941 138.914 39.8184 139.559 39.4668C140.215 39.1035 140.73 38.6641 141.105 38.1484C141.48 37.6211 141.68 37.123 141.703 36.6543L143.074 38.5352C142.934 39.0156 142.693 39.5312 142.354 40.082C142.014 40.6328 141.568 41.1602 141.018 41.6641C140.479 42.1562 139.828 42.5605 139.066 42.877C138.316 43.1934 137.449 43.3516 136.465 43.3516C135.223 43.3516 134.115 43.1055 133.143 42.6133C132.17 42.1094 131.408 41.4355 130.857 40.5918C130.307 39.7363 130.031 38.7695 130.031 37.6914C130.031 36.6836 130.219 35.793 130.594 35.0195C130.98 34.2344 131.543 33.5781 132.281 33.0508C133.031 32.5234 133.945 32.125 135.023 31.8555C136.102 31.5742 137.332 31.4336 138.715 31.4336H142.037ZM154.359 27.6016V43H150.123V23.9805H154.166L154.359 27.6016ZM160.178 23.8574L160.143 27.7949C159.885 27.748 159.604 27.7129 159.299 27.6895C159.006 27.666 158.713 27.6543 158.42 27.6543C157.693 27.6543 157.055 27.7598 156.504 27.9707C155.953 28.1699 155.49 28.4629 155.115 28.8496C154.752 29.2246 154.471 29.6816 154.271 30.2207C154.072 30.7598 153.955 31.3633 153.92 32.0312L152.953 32.1016C152.953 30.9062 153.07 29.7988 153.305 28.7793C153.539 27.7598 153.891 26.8633 154.359 26.0898C154.84 25.3164 155.438 24.7129 156.152 24.2793C156.879 23.8457 157.717 23.6289 158.666 23.6289C158.924 23.6289 159.199 23.6523 159.492 23.6992C159.797 23.7461 160.025 23.7988 160.178 23.8574ZM172.43 23.9805V27.0742H161.707V23.9805H172.43ZM164.801 19.3223H169.037V37.7441C169.037 38.3301 169.119 38.7812 169.283 39.0977C169.459 39.4023 169.699 39.6074 170.004 39.7129C170.309 39.8184 170.666 39.8711 171.076 39.8711C171.369 39.8711 171.65 39.8535 171.92 39.8184C172.189 39.7832 172.406 39.748 172.57 39.7129L172.588 42.9473C172.236 43.0527 171.826 43.1465 171.357 43.2285C170.9 43.3105 170.373 43.3516 169.775 43.3516C168.803 43.3516 167.941 43.1816 167.191 42.8418C166.441 42.4902 165.855 41.9219 165.434 41.1367C165.012 40.3516 164.801 39.3086 164.801 38.0078V19.3223ZM186.369 37.8496C186.369 37.4277 186.264 37.0469 186.053 36.707C185.842 36.3555 185.438 36.0391 184.84 35.7578C184.254 35.4766 183.387 35.2188 182.238 34.9844C181.23 34.7617 180.305 34.498 179.461 34.1934C178.629 33.877 177.914 33.4961 177.316 33.0508C176.719 32.6055 176.256 32.0781 175.928 31.4688C175.6 30.8594 175.436 30.1562 175.436 29.3594C175.436 28.5859 175.605 27.8535 175.945 27.1621C176.285 26.4707 176.771 25.8613 177.404 25.334C178.037 24.8066 178.805 24.3906 179.707 24.0859C180.621 23.7812 181.641 23.6289 182.766 23.6289C184.359 23.6289 185.725 23.8984 186.861 24.4375C188.01 24.9648 188.889 25.6855 189.498 26.5996C190.107 27.502 190.412 28.5215 190.412 29.6582H186.176C186.176 29.1543 186.047 28.6855 185.789 28.252C185.543 27.8066 185.168 27.4492 184.664 27.1797C184.16 26.8984 183.527 26.7578 182.766 26.7578C182.039 26.7578 181.436 26.875 180.955 27.1094C180.486 27.332 180.135 27.625 179.9 27.9883C179.678 28.3516 179.566 28.75 179.566 29.1836C179.566 29.5 179.625 29.7871 179.742 30.0449C179.871 30.291 180.082 30.5195 180.375 30.7305C180.668 30.9297 181.066 31.1172 181.57 31.293C182.086 31.4688 182.73 31.6387 183.504 31.8027C184.957 32.1074 186.205 32.5 187.248 32.9805C188.303 33.4492 189.111 34.0586 189.674 34.8086C190.236 35.5469 190.518 36.4844 190.518 37.6211C190.518 38.4648 190.336 39.2383 189.973 39.9414C189.621 40.6328 189.105 41.2363 188.426 41.752C187.746 42.2559 186.932 42.6484 185.982 42.9297C185.045 43.2109 183.99 43.3516 182.818 43.3516C181.096 43.3516 179.637 43.0469 178.441 42.4375C177.246 41.8164 176.338 41.0254 175.717 40.0645C175.107 39.0918 174.803 38.084 174.803 37.041H178.898C178.945 37.8262 179.162 38.4531 179.549 38.9219C179.947 39.3789 180.439 39.7129 181.025 39.9238C181.623 40.123 182.238 40.2227 182.871 40.2227C183.633 40.2227 184.271 40.123 184.787 39.9238C185.303 39.7129 185.695 39.4316 185.965 39.0801C186.234 38.7168 186.369 38.3066 186.369 37.8496Z" fill="#A1A1A1"/>
<path d="M1080.59 30C1081.35 30.0003 1082.09 30.2076 1082.74 30.6011C1083.39 30.9946 1083.93 31.5602 1084.3 32.2406L1091.44 45.2038C1091.9 46.0504 1092.09 47.0325 1091.96 47.9988C1091.84 48.9652 1091.41 49.8623 1090.75 50.5519L1070.89 71.1859C1070.64 71.444 1070.35 71.6488 1070.02 71.7884C1069.7 71.9281 1069.35 72 1069 72C1068.65 72 1068.3 71.9281 1067.98 71.7884C1067.65 71.6488 1067.36 71.444 1067.11 71.1859L1047.25 50.5519C1046.59 49.8623 1046.16 48.9652 1046.04 47.9988C1045.91 47.0325 1046.1 46.0504 1046.56 45.2038L1053.69 32.2383C1054.07 31.5587 1054.61 30.9937 1055.26 30.6007C1055.91 30.2076 1056.65 30.0004 1057.4 30H1080.59ZM1075.42 36.6683H1062.58C1062.04 36.669 1061.51 36.8859 1061.11 37.2748C1060.72 37.6637 1060.48 38.1953 1060.45 38.7609C1060.42 39.3264 1060.59 39.8833 1060.94 40.3178C1061.29 40.7522 1061.79 41.0314 1062.33 41.0984L1062.58 41.1139H1066.86V44.5481C1065.24 44.7037 1063.76 45.0305 1062.57 45.495C1061.73 45.824 1060.97 46.2419 1060.41 46.7642C1059.84 47.2866 1059.37 48.0023 1059.37 48.8937C1059.37 49.785 1059.84 50.5029 1060.41 51.0231C1060.97 51.5454 1061.73 51.9633 1062.57 52.2901C1063.84 52.7857 1065.43 53.1281 1067.19 53.2681C1067.02 53.5483 1066.91 53.8642 1066.87 54.1928L1066.86 54.4506V58.8962C1066.86 59.4627 1067.07 60.0076 1067.44 60.4196C1067.82 60.8316 1068.33 61.0795 1068.87 61.1127C1069.42 61.1459 1069.95 60.9619 1070.37 60.5982C1070.79 60.2346 1071.06 59.7188 1071.12 59.1562L1071.14 58.8962V54.4506C1071.14 54.0323 1071.02 53.6224 1070.81 53.2681C1072.56 53.1281 1074.15 52.788 1075.42 52.2901C1076.27 51.9633 1077.03 51.5454 1077.59 51.0231C1078.16 50.5007 1078.62 49.785 1078.62 48.8937C1078.62 48.0023 1078.16 47.2844 1077.59 46.7642C1077.03 46.2419 1076.27 45.824 1075.42 45.4972C1074.26 45.0636 1073.05 44.7712 1071.82 44.6259L1071.14 44.5481V41.1139H1075.42C1075.96 41.1133 1076.48 40.8964 1076.88 40.5074C1077.28 40.1185 1077.52 39.587 1077.55 39.0214C1077.58 38.4558 1077.4 37.8989 1077.05 37.4645C1076.7 37.03 1076.21 36.7508 1075.67 36.6839L1075.42 36.6683ZM1071.13 46.782C1072.34 46.8924 1073.53 47.159 1074.67 47.5755C1075.38 47.8512 1075.87 48.1512 1076.17 48.4269C1076.3 48.5308 1076.4 48.6668 1076.47 48.8225L1076.48 48.8937L1076.47 48.9648C1076.4 49.1205 1076.3 49.2565 1076.17 49.3604C1075.87 49.6361 1075.38 49.9384 1074.67 50.2095C1073.27 50.7563 1071.27 51.1164 1069 51.1164C1066.73 51.1164 1064.72 50.7563 1063.32 50.2095C1062.62 49.9361 1062.13 49.6361 1061.82 49.3604C1061.69 49.2565 1061.59 49.1205 1061.52 48.9648L1061.51 48.8937C1061.51 48.8648 1061.52 48.7047 1061.82 48.4269C1062.13 48.149 1062.62 47.8489 1063.32 47.5778C1064.26 47.211 1065.48 46.9265 1066.86 46.782C1066.89 47.3538 1067.12 47.8936 1067.52 48.2891C1067.92 48.6847 1068.45 48.9054 1069 48.9054C1069.55 48.9054 1070.08 48.6847 1070.48 48.2891C1070.87 47.8936 1071.11 47.3538 1071.13 46.782Z" fill="#696969"/>
<defs>
<linearGradient id="paint0_linear_3183_8809" x1="18" y1="50" x2="82" y2="50" gradientUnits="userSpaceOnUse">
<stop stop-color="#7666C4"/>
<stop offset="1" stop-color="#E39359"/>
</linearGradient>
</defs>
</svg>
