<svg width="5550" height="750" viewBox="0 0 5550 750" fill="none" xmlns="http://www.w3.org/2000/svg">
<rect width="5550" height="750" rx="100" fill="url(#paint0_linear_3306_10601)"/>
<path d="M2143.05 399.139H2173.56C2172.59 410.776 2169.33 421.152 2163.8 430.267C2158.26 439.3 2150.49 446.421 2140.48 451.629C2130.47 456.837 2118.31 459.441 2103.98 459.441C2093 459.441 2083.11 457.488 2074.32 453.582C2065.53 449.594 2058 443.979 2051.74 436.736C2045.47 429.412 2040.67 420.582 2037.33 410.247C2034.08 399.912 2032.45 388.356 2032.45 375.579V360.809C2032.45 348.032 2034.12 336.476 2037.46 326.141C2040.87 315.805 2045.76 306.976 2052.1 299.651C2058.45 292.246 2066.06 286.59 2074.93 282.684C2083.88 278.777 2093.93 276.824 2105.08 276.824C2119.24 276.824 2131.21 279.428 2140.97 284.637C2150.74 289.845 2158.31 297.047 2163.68 306.243C2169.13 315.439 2172.47 325.978 2173.69 337.859H2143.17C2142.36 330.21 2140.56 323.659 2137.8 318.206C2135.11 312.754 2131.12 308.603 2125.83 305.755C2120.55 302.825 2113.63 301.36 2105.08 301.36C2098.08 301.36 2091.98 302.662 2086.77 305.267C2081.56 307.871 2077.21 311.696 2073.71 316.741C2070.21 321.787 2067.57 328.012 2065.78 335.418C2064.07 342.742 2063.21 351.124 2063.21 360.564V375.579C2063.21 384.531 2063.99 392.669 2065.53 399.993C2067.16 407.236 2069.6 413.462 2072.86 418.67C2076.19 423.878 2080.42 427.907 2085.55 430.755C2090.68 433.603 2096.82 435.027 2103.98 435.027C2112.69 435.027 2119.73 433.644 2125.1 430.877C2130.56 428.11 2134.66 424.082 2137.43 418.792C2140.28 413.421 2142.15 406.87 2143.05 399.139ZM2222.39 324.92H2251.81L2250.35 371.429C2249.94 384.938 2248.39 396.535 2245.71 406.219C2243.02 415.903 2239.52 424.082 2235.21 430.755C2230.9 437.347 2226.01 442.758 2220.56 446.99C2215.19 451.222 2209.53 454.559 2203.59 457H2194.93V433.807L2199.08 433.562C2202.58 429.819 2205.59 426.076 2208.11 422.332C2210.71 418.507 2212.91 414.316 2214.7 409.759C2216.49 405.12 2217.88 399.708 2218.85 393.523C2219.91 387.339 2220.6 379.974 2220.93 371.429L2222.39 324.92ZM2230.21 324.92H2313.95V457H2284.65V349.822H2230.21V324.92ZM2188.21 433.562H2332.01V496.307H2302.59V457H2218V496.307H2188.09L2188.21 433.562ZM2411.24 459.441C2401.47 459.441 2392.64 457.854 2384.75 454.681C2376.93 451.425 2370.26 446.909 2364.73 441.131C2359.27 435.353 2355.08 428.558 2352.15 420.745C2349.22 412.933 2347.76 404.51 2347.76 395.477V390.594C2347.76 380.258 2349.26 370.9 2352.28 362.518C2355.29 354.135 2359.48 346.974 2364.85 341.033C2370.22 335.011 2376.57 330.413 2383.89 327.239C2391.22 324.065 2399.15 322.479 2407.7 322.479C2417.14 322.479 2425.4 324.065 2432.48 327.239C2439.56 330.413 2445.42 334.889 2450.05 340.667C2454.77 346.364 2458.27 353.159 2460.55 361.053C2462.91 368.947 2464.09 377.654 2464.09 387.176V399.749H2362.04V378.631H2435.04V376.312C2434.88 371.022 2433.82 366.058 2431.87 361.419C2429.99 356.78 2427.1 353.037 2423.2 350.188C2419.29 347.34 2414.08 345.916 2407.57 345.916C2402.69 345.916 2398.34 346.974 2394.51 349.09C2390.77 351.124 2387.64 354.095 2385.11 358.001C2382.59 361.907 2380.64 366.627 2379.25 372.161C2377.95 377.614 2377.3 383.758 2377.3 390.594V395.477C2377.3 401.255 2378.07 406.626 2379.62 411.59C2381.25 416.473 2383.61 420.745 2386.7 424.407C2389.79 428.069 2393.54 430.958 2397.93 433.074C2402.32 435.109 2407.33 436.126 2412.94 436.126C2420.02 436.126 2426.33 434.702 2431.87 431.854C2437.4 429.005 2442.2 424.977 2446.27 419.769L2461.77 434.783C2458.92 438.934 2455.22 442.921 2450.66 446.746C2446.11 450.49 2440.53 453.541 2433.94 455.901C2427.43 458.261 2419.86 459.441 2411.24 459.441ZM2575.79 324.92V348.357H2511.33V324.92H2575.79ZM2598.86 324.92V457H2569.44V324.92H2598.86ZM2504.13 324.92H2533.18L2529.64 390.228C2529.16 399.912 2528.18 408.457 2526.71 415.862C2525.33 423.187 2523.46 429.493 2521.1 434.783C2518.74 439.992 2515.85 444.223 2512.43 447.479C2509.01 450.734 2505.03 453.134 2500.47 454.681C2495.91 456.227 2490.78 457 2485.09 457H2475.93L2475.81 432.83L2480.45 432.464C2483.46 432.22 2486.06 431.447 2488.26 430.145C2490.46 428.761 2492.33 426.808 2493.88 424.285C2495.5 421.762 2496.81 418.507 2497.78 414.52C2498.84 410.532 2499.65 405.812 2500.22 400.359C2500.88 394.907 2501.36 388.559 2501.69 381.316L2504.13 324.92ZM2704.57 430.511V367.522C2704.57 362.802 2703.72 358.733 2702.01 355.315C2700.3 351.897 2697.69 349.253 2694.19 347.381C2690.78 345.509 2686.46 344.573 2681.25 344.573C2676.45 344.573 2672.3 345.387 2668.8 347.015C2665.3 348.642 2662.58 350.84 2660.62 353.606C2658.67 356.373 2657.7 359.507 2657.7 363.006H2628.4C2628.4 357.798 2629.66 352.752 2632.18 347.869C2634.71 342.986 2638.37 338.632 2643.17 334.808C2647.97 330.983 2653.71 327.972 2660.38 325.774C2667.05 323.577 2674.54 322.479 2682.84 322.479C2692.77 322.479 2701.56 324.147 2709.21 327.483C2716.94 330.82 2723 335.866 2727.4 342.62C2731.87 349.293 2734.11 357.675 2734.11 367.767V426.482C2734.11 432.505 2734.52 437.916 2735.33 442.718C2736.23 447.438 2737.49 451.548 2739.12 455.047V457H2708.96C2707.58 453.826 2706.48 449.798 2705.67 444.915C2704.94 439.951 2704.57 435.149 2704.57 430.511ZM2708.84 376.678L2709.09 394.866H2687.97C2682.52 394.866 2677.71 395.395 2673.56 396.453C2669.41 397.43 2665.96 398.895 2663.19 400.848C2660.42 402.801 2658.35 405.161 2656.96 407.928C2655.58 410.695 2654.89 413.828 2654.89 417.327C2654.89 420.826 2655.7 424.041 2657.33 426.971C2658.96 429.819 2661.32 432.057 2664.41 433.685C2667.58 435.312 2671.41 436.126 2675.88 436.126C2681.91 436.126 2687.15 434.905 2691.63 432.464C2696.19 429.941 2699.77 426.889 2702.37 423.309C2704.98 419.646 2706.36 416.188 2706.52 412.933L2716.04 425.994C2715.07 429.331 2713.4 432.911 2711.04 436.736C2708.68 440.561 2705.59 444.223 2701.76 447.723C2698.02 451.141 2693.5 453.948 2688.21 456.146C2683 458.343 2676.98 459.441 2670.15 459.441C2661.52 459.441 2653.83 457.732 2647.08 454.314C2640.32 450.815 2635.03 446.136 2631.21 440.276C2627.38 434.336 2625.47 427.622 2625.47 420.135C2625.47 413.136 2626.77 406.951 2629.38 401.58C2632.06 396.128 2635.97 391.57 2641.09 387.908C2646.3 384.246 2652.65 381.479 2660.14 379.607C2667.62 377.654 2676.17 376.678 2685.77 376.678H2708.84ZM2824.2 324.92V457H2794.66V324.92H2824.2ZM2867.53 324.92V348.113H2752.06V324.92H2867.53ZM2909.04 366.912H2947.98C2959.37 366.912 2969.06 368.825 2977.03 372.649C2985.01 376.474 2991.07 381.805 2995.22 388.641C2999.45 395.395 3001.57 403.126 3001.57 411.834C3001.57 418.263 3000.39 424.244 2998.03 429.778C2995.67 435.231 2992.17 439.992 2987.53 444.061C2982.97 448.13 2977.36 451.303 2970.68 453.582C2964.09 455.861 2956.52 457 2947.98 457H2889.51V324.92H2919.05V433.685H2947.98C2953.84 433.685 2958.52 432.667 2962.02 430.633C2965.52 428.598 2968.04 425.953 2969.58 422.698C2971.21 419.443 2972.03 415.984 2972.03 412.322C2972.03 408.579 2971.21 405.039 2969.58 401.702C2968.04 398.366 2965.52 395.639 2962.02 393.523C2958.52 391.408 2953.84 390.35 2947.98 390.35H2909.04V366.912ZM3195.29 399.139H3225.81C3224.83 410.776 3221.58 421.152 3216.04 430.267C3210.51 439.3 3202.74 446.421 3192.73 451.629C3182.72 456.837 3170.55 459.441 3156.23 459.441C3145.24 459.441 3135.36 457.488 3126.57 453.582C3117.78 449.594 3110.25 443.979 3103.98 436.736C3097.72 429.412 3092.92 420.582 3089.58 410.247C3086.32 399.912 3084.7 388.356 3084.7 375.579V360.809C3084.7 348.032 3086.37 336.476 3089.7 326.141C3093.12 315.805 3098 306.976 3104.35 299.651C3110.7 292.246 3118.31 286.59 3127.18 282.684C3136.13 278.777 3146.18 276.824 3157.33 276.824C3171.49 276.824 3183.45 279.428 3193.22 284.637C3202.98 289.845 3210.55 297.047 3215.92 306.243C3221.38 315.439 3224.71 325.978 3225.93 337.859H3195.42C3194.6 330.21 3192.81 323.659 3190.04 318.206C3187.36 312.754 3183.37 308.603 3178.08 305.755C3172.79 302.825 3165.87 301.36 3157.33 301.36C3150.33 301.36 3144.23 302.662 3139.02 305.267C3133.81 307.871 3129.46 311.696 3125.96 316.741C3122.46 321.787 3119.81 328.012 3118.02 335.418C3116.31 342.742 3115.46 351.124 3115.46 360.564V375.579C3115.46 384.531 3116.23 392.669 3117.78 399.993C3119.41 407.236 3121.85 413.462 3125.1 418.67C3128.44 423.878 3132.67 427.907 3137.8 430.755C3142.92 433.603 3149.07 435.027 3156.23 435.027C3164.94 435.027 3171.98 433.644 3177.35 430.877C3182.8 428.11 3186.91 424.082 3189.68 418.792C3192.53 413.421 3194.4 406.87 3195.29 399.139ZM3311.99 324.92V457H3282.45V324.92H3311.99ZM3355.33 324.92V348.113H3239.85V324.92H3355.33ZM3447.49 430.511V367.522C3447.49 362.802 3446.64 358.733 3444.93 355.315C3443.22 351.897 3440.61 349.253 3437.11 347.381C3433.7 345.509 3429.38 344.573 3424.17 344.573C3419.37 344.573 3415.22 345.387 3411.72 347.015C3408.22 348.642 3405.5 350.84 3403.54 353.606C3401.59 356.373 3400.62 359.507 3400.62 363.006H3371.32C3371.32 357.798 3372.58 352.752 3375.1 347.869C3377.63 342.986 3381.29 338.632 3386.09 334.808C3390.89 330.983 3396.63 327.972 3403.3 325.774C3409.97 323.577 3417.46 322.479 3425.76 322.479C3435.69 322.479 3444.48 324.147 3452.13 327.483C3459.86 330.82 3465.92 335.866 3470.32 342.62C3474.79 349.293 3477.03 357.675 3477.03 367.767V426.482C3477.03 432.505 3477.44 437.916 3478.25 442.718C3479.15 447.438 3480.41 451.548 3482.04 455.047V457H3451.88C3450.5 453.826 3449.4 449.798 3448.59 444.915C3447.86 439.951 3447.49 435.149 3447.49 430.511ZM3451.76 376.678L3452.01 394.866H3430.89C3425.44 394.866 3420.63 395.395 3416.48 396.453C3412.33 397.43 3408.88 398.895 3406.11 400.848C3403.34 402.801 3401.27 405.161 3399.88 407.928C3398.5 410.695 3397.81 413.828 3397.81 417.327C3397.81 420.826 3398.62 424.041 3400.25 426.971C3401.88 429.819 3404.24 432.057 3407.33 433.685C3410.5 435.312 3414.33 436.126 3418.8 436.126C3424.83 436.126 3430.07 434.905 3434.55 432.464C3439.11 429.941 3442.69 426.889 3445.29 423.309C3447.9 419.646 3449.28 416.188 3449.44 412.933L3458.96 425.994C3457.99 429.331 3456.32 432.911 3453.96 436.736C3451.6 440.561 3448.51 444.223 3444.68 447.723C3440.94 451.141 3436.42 453.948 3431.13 456.146C3425.92 458.343 3419.9 459.441 3413.07 459.441C3404.44 459.441 3396.75 457.732 3390 454.314C3383.24 450.815 3377.95 446.136 3374.13 440.276C3370.3 434.336 3368.39 427.622 3368.39 420.135C3368.39 413.136 3369.69 406.951 3372.29 401.58C3374.98 396.128 3378.89 391.57 3384.01 387.908C3389.22 384.246 3395.57 381.479 3403.06 379.607C3410.54 377.654 3419.09 376.678 3428.69 376.678H3451.76ZM3572 400.481H3529.77L3529.52 379.729H3564.19C3569.89 379.729 3574.57 379.16 3578.23 378.021C3581.97 376.881 3584.74 375.172 3586.53 372.894C3588.32 370.534 3589.21 367.685 3589.21 364.349C3589.21 361.582 3588.68 359.181 3587.63 357.146C3586.57 355.031 3584.94 353.322 3582.74 352.02C3580.63 350.636 3577.94 349.66 3574.69 349.09C3571.51 348.439 3567.81 348.113 3563.58 348.113H3539.53V457H3510.11V324.92H3563.58C3572.04 324.92 3579.65 325.652 3586.41 327.117C3593.24 328.582 3599.06 330.82 3603.86 333.831C3608.66 336.842 3612.33 340.667 3614.85 345.306C3617.45 349.863 3618.75 355.234 3618.75 361.419C3618.75 365.488 3617.86 369.313 3616.07 372.894C3614.36 376.474 3611.8 379.648 3608.38 382.415C3604.96 385.182 3600.77 387.461 3595.81 389.251C3590.84 390.96 3585.14 392.018 3578.72 392.425L3572 400.481ZM3572 457H3521.22L3532.94 433.807H3572C3577.21 433.807 3581.52 433.156 3584.94 431.854C3588.36 430.551 3590.88 428.68 3592.51 426.238C3594.22 423.715 3595.07 420.745 3595.07 417.327C3595.07 413.828 3594.26 410.817 3592.63 408.294C3591 405.771 3588.48 403.859 3585.06 402.557C3581.73 401.173 3577.37 400.481 3572 400.481H3538.43L3538.68 379.729H3578.59L3587.02 387.786C3595.4 388.356 3602.36 390.146 3607.89 393.157C3613.42 396.168 3617.57 399.952 3620.34 404.51C3623.11 409.067 3624.49 414.031 3624.49 419.402C3624.49 425.587 3623.31 431.04 3620.95 435.76C3618.67 440.48 3615.26 444.427 3610.7 447.601C3606.22 450.693 3600.73 453.053 3594.22 454.681C3587.71 456.227 3580.3 457 3572 457ZM3681.62 324.92V457H3652.2V324.92H3681.62ZM3767.8 324.92L3708.35 404.388H3674.79L3670.88 377.776H3695.42L3731.06 324.92H3767.8ZM3733.38 457L3693.58 399.383L3716.78 382.659L3772.08 457H3733.38ZM3826.4 442.596L3862.29 324.92H3893.78L3840.8 477.142C3839.58 480.397 3837.99 483.937 3836.04 487.762C3834.09 491.587 3831.52 495.208 3828.35 498.626C3825.26 502.125 3821.39 504.933 3816.75 507.049C3812.11 509.246 3806.5 510.345 3799.91 510.345C3797.3 510.345 3794.78 510.101 3792.34 509.612C3789.98 509.205 3787.74 508.758 3785.62 508.27L3785.5 485.809C3786.32 485.89 3787.29 485.971 3788.43 486.053C3789.65 486.134 3790.63 486.175 3791.36 486.175C3796.25 486.175 3800.31 485.564 3803.57 484.344C3806.82 483.204 3809.47 481.333 3811.5 478.729C3813.62 476.124 3815.41 472.625 3816.88 468.23L3826.4 442.596ZM3806.13 324.92L3837.5 423.797L3842.75 454.803L3822.37 460.052L3774.39 324.92H3806.13Z" fill="url(#paint1_linear_3306_10601)"/>
<path fill-rule="evenodd" clip-rule="evenodd" d="M1890.94 225.018C1898 225.018 1903.75 230.764 1903.75 237.833V261.268H1927.19C1929.72 261.268 1932.2 262.019 1934.31 263.427C1936.41 264.835 1938.06 266.837 1939.03 269.178C1940 271.52 1940.25 274.097 1939.76 276.583C1939.26 279.069 1938.04 281.353 1936.25 283.145L1909.79 309.608C1905.92 313.463 1900.69 315.633 1895.23 315.643H1868.59L1804.61 379.624C1802.03 382.026 1798.62 383.333 1795.1 383.271C1791.58 383.209 1788.22 381.782 1785.73 379.291C1783.24 376.801 1781.81 373.441 1781.75 369.919C1781.69 366.397 1782.99 362.989 1785.39 360.412L1849.37 296.431V269.787C1849.37 264.331 1851.55 259.093 1855.41 255.214L1881.87 228.752C1883.06 227.556 1884.47 226.609 1886.03 225.965C1887.58 225.321 1889.25 224.993 1890.94 225M1695.31 370.018C1695.31 355.238 1698.6 340.642 1704.93 327.288C1711.26 313.933 1720.49 302.154 1731.93 292.803C1743.38 283.453 1756.76 276.764 1771.11 273.222C1785.46 269.681 1800.42 269.374 1814.9 272.324C1818.42 272.995 1822.05 272.253 1825.02 270.259C1828 268.265 1830.06 265.179 1830.77 261.672C1831.48 258.166 1830.78 254.52 1828.82 251.526C1826.86 248.532 1823.8 246.432 1820.3 245.681C1793.58 240.248 1765.82 243.569 1741.13 255.152C1716.45 266.735 1696.15 285.964 1683.25 309.988C1670.35 334.012 1665.53 361.553 1669.51 388.53C1673.49 415.507 1686.05 440.484 1705.34 459.759C1724.63 479.034 1749.62 491.582 1776.6 495.542C1803.58 499.502 1831.12 494.665 1855.13 481.746C1879.15 468.828 1898.36 448.516 1909.92 423.821C1921.49 399.126 1924.79 371.362 1919.34 344.643C1918.62 341.11 1916.53 338.007 1913.52 336.017C1910.51 334.027 1906.84 333.312 1903.31 334.031C1899.77 334.75 1896.67 336.842 1894.68 339.849C1892.69 342.855 1891.98 346.529 1892.69 350.063C1894.01 356.503 1894.68 363.155 1894.69 370.018C1894.69 396.457 1884.18 421.813 1865.49 440.508C1846.79 459.203 1821.44 469.706 1795 469.706C1768.56 469.706 1743.21 459.203 1724.51 440.508C1705.82 421.813 1695.31 396.457 1695.31 370.018ZM1792.53 324.778C1796.14 324.586 1799.51 322.971 1801.92 320.289C1804.33 317.607 1805.58 314.078 1805.39 310.478C1805.19 306.877 1803.58 303.501 1800.9 301.091C1798.21 298.681 1794.69 297.435 1791.08 297.627C1777.16 298.377 1763.75 303.125 1752.46 311.303C1741.17 319.48 1732.48 330.74 1727.42 343.732C1722.37 356.725 1721.16 370.9 1723.96 384.558C1726.75 398.217 1733.43 410.779 1743.18 420.741C1752.93 430.703 1765.35 437.642 1778.95 440.726C1792.55 443.81 1806.74 442.908 1819.84 438.129C1832.94 433.35 1844.38 424.896 1852.79 413.78C1861.21 402.664 1866.24 389.358 1867.28 375.456C1867.55 371.86 1866.38 368.306 1864.02 365.575C1861.67 362.843 1858.33 361.159 1854.73 360.892C1851.14 360.626 1847.58 361.798 1844.85 364.152C1842.12 366.506 1840.43 369.848 1840.17 373.444C1839.51 382.128 1836.36 390.438 1831.09 397.379C1825.83 404.319 1818.68 409.596 1810.5 412.578C1802.32 415.56 1793.45 416.121 1784.95 414.192C1776.46 412.264 1768.7 407.929 1762.61 401.706C1756.52 395.483 1752.35 387.635 1750.6 379.103C1748.85 370.571 1749.59 361.716 1752.75 353.597C1755.9 345.479 1761.33 338.441 1768.38 333.327C1775.43 328.212 1783.8 325.238 1792.5 324.76" fill="#7666C4"/>
<defs>
<linearGradient id="paint0_linear_3306_10601" x1="0" y1="375" x2="5550" y2="375" gradientUnits="userSpaceOnUse">
<stop stop-color="#212121"/>
<stop offset="1" stop-color="#131313"/>
</linearGradient>
<linearGradient id="paint1_linear_3306_10601" x1="2020" y1="371.5" x2="3896" y2="371.5" gradientUnits="userSpaceOnUse">
<stop stop-color="#7666C4"/>
<stop offset="1" stop-color="#E39359" stop-opacity="0.9"/>
</linearGradient>
</defs>
</svg>
