<svg width="1130" height="100" viewBox="0 0 1130 100" fill="none" xmlns="http://www.w3.org/2000/svg">
<rect width="1130" height="100" rx="25" fill="#212121"/>
<rect x="18" y="18" width="64" height="64" rx="15" fill="url(#paint0_linear_3159_8791)"/>
<path d="M30 34.4444C30 33.2657 30.4683 32.1352 31.3017 31.3017C32.1352 30.4683 33.2657 30 34.4444 30H65.5556C66.7343 30 67.8648 30.4683 68.6983 31.3017C69.5317 32.1352 70 33.2657 70 34.4444V65.5556C70 66.7343 69.5317 67.8648 68.6983 68.6983C67.8648 69.5317 66.7343 70 65.5556 70H34.4444C33.2657 70 32.1352 69.5317 31.3017 68.6983C30.4683 67.8648 30 66.7343 30 65.5556V34.4444Z" stroke="white" stroke-width="4.44444" stroke-linecap="round" stroke-linejoin="round"/>
<path d="M42.2224 43.3238C42.8361 43.3238 43.3336 42.8263 43.3336 42.2127C43.3336 41.599 42.8361 41.1016 42.2224 41.1016C41.6088 41.1016 41.1113 41.599 41.1113 42.2127C41.1113 42.8263 41.6088 43.3238 42.2224 43.3238Z" fill="white" stroke="white" stroke-width="4.44444" stroke-linecap="round" stroke-linejoin="round"/>
<path d="M57.7752 43.3238C58.3888 43.3238 58.8863 42.8263 58.8863 42.2127C58.8863 41.599 58.3888 41.1016 57.7752 41.1016C57.1615 41.1016 56.6641 41.599 56.6641 42.2127C56.6641 42.8263 57.1615 43.3238 57.7752 43.3238Z" fill="white" stroke="white" stroke-width="4.44444" stroke-linecap="round" stroke-linejoin="round"/>
<path d="M57.7752 58.8785C58.3888 58.8785 58.8863 58.381 58.8863 57.7674C58.8863 57.1537 58.3888 56.6562 57.7752 56.6562C57.1615 56.6562 56.6641 57.1537 56.6641 57.7674C56.6641 58.381 57.1615 58.8785 57.7752 58.8785Z" fill="white" stroke="white" stroke-width="4.44444" stroke-linecap="round" stroke-linejoin="round"/>
<path d="M42.2224 58.8785C42.8361 58.8785 43.3336 58.381 43.3336 57.7674C43.3336 57.1537 42.8361 56.6562 42.2224 56.6562C41.6088 56.6562 41.1113 57.1537 41.1113 57.7674C41.1113 58.381 41.6088 58.8785 42.2224 58.8785Z" fill="white" stroke="white" stroke-width="4.44444" stroke-linecap="round" stroke-linejoin="round"/>
<path d="M115.037 43H109.57L109.605 39.502H115.037C116.619 39.502 117.943 39.1562 119.01 38.4648C120.088 37.7734 120.896 36.7832 121.436 35.4941C121.986 34.2051 122.262 32.6699 122.262 30.8887V29.5C122.262 28.1172 122.104 26.8926 121.787 25.8262C121.482 24.7598 121.025 23.8633 120.416 23.1367C119.818 22.4102 119.08 21.8594 118.201 21.4844C117.334 21.1094 116.332 20.9219 115.195 20.9219H109.465V17.4062H115.195C116.895 17.4062 118.447 17.6934 119.854 18.2676C121.26 18.8301 122.473 19.6445 123.492 20.7109C124.523 21.7773 125.314 23.0547 125.865 24.543C126.416 26.0312 126.691 27.6953 126.691 29.5352V30.8887C126.691 32.7285 126.416 34.3926 125.865 35.8809C125.314 37.3691 124.523 38.6465 123.492 39.7129C122.461 40.7676 121.23 41.582 119.801 42.1562C118.383 42.7188 116.795 43 115.037 43ZM112.014 17.4062V43H107.602V17.4062H112.014ZM135.234 23.9805V43H130.98V23.9805H135.234ZM130.699 18.9883C130.699 18.3438 130.91 17.8105 131.332 17.3887C131.766 16.9551 132.363 16.7383 133.125 16.7383C133.875 16.7383 134.467 16.9551 134.9 17.3887C135.334 17.8105 135.551 18.3438 135.551 18.9883C135.551 19.6211 135.334 20.1484 134.9 20.5703C134.467 20.9922 133.875 21.2031 133.125 21.2031C132.363 21.2031 131.766 20.9922 131.332 20.5703C130.91 20.1484 130.699 19.6211 130.699 18.9883ZM147.645 39.9766C148.336 39.9766 148.957 39.8418 149.508 39.5723C150.07 39.291 150.521 38.9043 150.861 38.4121C151.213 37.9199 151.406 37.3516 151.441 36.707H155.432C155.408 37.9375 155.045 39.0566 154.342 40.0645C153.639 41.0723 152.707 41.875 151.547 42.4727C150.387 43.0586 149.104 43.3516 147.697 43.3516C146.244 43.3516 144.979 43.1055 143.9 42.6133C142.822 42.1094 141.926 41.418 141.211 40.5391C140.496 39.6602 139.957 38.6465 139.594 37.498C139.242 36.3496 139.066 35.1191 139.066 33.8066V33.1914C139.066 31.8789 139.242 30.6484 139.594 29.5C139.957 28.3398 140.496 27.3203 141.211 26.4414C141.926 25.5625 142.822 24.877 143.9 24.3848C144.979 23.8809 146.238 23.6289 147.68 23.6289C149.203 23.6289 150.539 23.9336 151.688 24.543C152.836 25.1406 153.738 25.9785 154.395 27.0566C155.062 28.123 155.408 29.3652 155.432 30.7832H151.441C151.406 30.0801 151.23 29.4473 150.914 28.8848C150.609 28.3105 150.176 27.8535 149.613 27.5137C149.062 27.1738 148.4 27.0039 147.627 27.0039C146.771 27.0039 146.062 27.1797 145.5 27.5312C144.938 27.8711 144.498 28.3398 144.182 28.9375C143.865 29.5234 143.637 30.1855 143.496 30.9238C143.367 31.6504 143.303 32.4062 143.303 33.1914V33.8066C143.303 34.5918 143.367 35.3535 143.496 36.0918C143.625 36.8301 143.848 37.4922 144.164 38.0781C144.492 38.6523 144.938 39.1152 145.5 39.4668C146.062 39.8066 146.777 39.9766 147.645 39.9766ZM167.068 43.3516C165.662 43.3516 164.391 43.123 163.254 42.666C162.129 42.1973 161.168 41.5469 160.371 40.7148C159.586 39.8828 158.982 38.9043 158.561 37.7793C158.139 36.6543 157.928 35.4414 157.928 34.1406V33.4375C157.928 31.9492 158.145 30.6016 158.578 29.3945C159.012 28.1875 159.615 27.1562 160.389 26.3008C161.162 25.4336 162.076 24.7715 163.131 24.3145C164.186 23.8574 165.328 23.6289 166.559 23.6289C167.918 23.6289 169.107 23.8574 170.127 24.3145C171.146 24.7715 171.99 25.416 172.658 26.248C173.338 27.0684 173.842 28.0469 174.17 29.1836C174.51 30.3203 174.68 31.5742 174.68 32.9453V34.7559H159.984V31.7148H170.496V31.3809C170.473 30.6191 170.32 29.9043 170.039 29.2363C169.77 28.5684 169.354 28.0293 168.791 27.6191C168.229 27.209 167.479 27.0039 166.541 27.0039C165.838 27.0039 165.211 27.1562 164.66 27.4609C164.121 27.7539 163.67 28.1816 163.307 28.7441C162.943 29.3066 162.662 29.9863 162.463 30.7832C162.275 31.5684 162.182 32.4531 162.182 33.4375V34.1406C162.182 34.9727 162.293 35.7461 162.516 36.4609C162.75 37.1641 163.09 37.7793 163.535 38.3066C163.98 38.834 164.52 39.25 165.152 39.5547C165.785 39.8477 166.506 39.9941 167.314 39.9941C168.334 39.9941 169.242 39.7891 170.039 39.3789C170.836 38.9688 171.527 38.3887 172.113 37.6387L174.346 39.8008C173.936 40.3984 173.402 40.9727 172.746 41.5234C172.09 42.0625 171.287 42.502 170.338 42.8418C169.4 43.1816 168.311 43.3516 167.068 43.3516Z" fill="#A1A1A1"/>
<path d="M1080.59 30C1081.35 30.0003 1082.09 30.2076 1082.74 30.6011C1083.39 30.9946 1083.93 31.5602 1084.3 32.2406L1091.44 45.2038C1091.9 46.0504 1092.09 47.0325 1091.96 47.9988C1091.84 48.9652 1091.41 49.8623 1090.75 50.5519L1070.89 71.1859C1070.64 71.444 1070.35 71.6488 1070.02 71.7884C1069.7 71.9281 1069.35 72 1069 72C1068.65 72 1068.3 71.9281 1067.98 71.7884C1067.65 71.6488 1067.36 71.444 1067.11 71.1859L1047.25 50.5519C1046.59 49.8623 1046.16 48.9652 1046.04 47.9988C1045.91 47.0325 1046.1 46.0504 1046.56 45.2038L1053.69 32.2383C1054.07 31.5587 1054.61 30.9937 1055.26 30.6007C1055.91 30.2076 1056.65 30.0004 1057.4 30H1080.59ZM1075.42 36.6683H1062.58C1062.04 36.669 1061.51 36.8859 1061.11 37.2748C1060.72 37.6637 1060.48 38.1953 1060.45 38.7609C1060.42 39.3264 1060.59 39.8833 1060.94 40.3178C1061.29 40.7522 1061.79 41.0314 1062.33 41.0984L1062.58 41.1139H1066.86V44.5481C1065.24 44.7037 1063.76 45.0305 1062.57 45.495C1061.73 45.824 1060.97 46.2419 1060.41 46.7642C1059.84 47.2866 1059.37 48.0023 1059.37 48.8937C1059.37 49.785 1059.84 50.5029 1060.41 51.0231C1060.97 51.5454 1061.73 51.9633 1062.57 52.2901C1063.84 52.7857 1065.43 53.1281 1067.19 53.2681C1067.02 53.5483 1066.91 53.8642 1066.87 54.1928L1066.86 54.4506V58.8962C1066.86 59.4627 1067.07 60.0076 1067.44 60.4196C1067.82 60.8316 1068.33 61.0795 1068.87 61.1127C1069.42 61.1459 1069.95 60.9619 1070.37 60.5982C1070.79 60.2346 1071.06 59.7188 1071.12 59.1562L1071.14 58.8962V54.4506C1071.14 54.0323 1071.02 53.6224 1070.81 53.2681C1072.56 53.1281 1074.15 52.788 1075.42 52.2901C1076.27 51.9633 1077.03 51.5454 1077.59 51.0231C1078.16 50.5007 1078.62 49.785 1078.62 48.8937C1078.62 48.0023 1078.16 47.2844 1077.59 46.7642C1077.03 46.2419 1076.27 45.824 1075.42 45.4972C1074.26 45.0636 1073.05 44.7712 1071.82 44.6259L1071.14 44.5481V41.1139H1075.42C1075.96 41.1133 1076.48 40.8964 1076.88 40.5074C1077.28 40.1185 1077.52 39.587 1077.55 39.0214C1077.58 38.4558 1077.4 37.8989 1077.05 37.4645C1076.7 37.03 1076.21 36.7508 1075.67 36.6839L1075.42 36.6683ZM1071.13 46.782C1072.34 46.8924 1073.53 47.159 1074.67 47.5755C1075.38 47.8512 1075.87 48.1512 1076.17 48.4269C1076.3 48.5308 1076.4 48.6668 1076.47 48.8225L1076.48 48.8937L1076.47 48.9648C1076.4 49.1205 1076.3 49.2565 1076.17 49.3604C1075.87 49.6361 1075.38 49.9384 1074.67 50.2095C1073.27 50.7563 1071.27 51.1164 1069 51.1164C1066.73 51.1164 1064.72 50.7563 1063.32 50.2095C1062.62 49.9361 1062.13 49.6361 1061.82 49.3604C1061.69 49.2565 1061.59 49.1205 1061.52 48.9648L1061.51 48.8937C1061.51 48.8648 1061.52 48.7047 1061.82 48.4269C1062.13 48.149 1062.62 47.8489 1063.32 47.5778C1064.26 47.211 1065.48 46.9265 1066.86 46.782C1066.89 47.3538 1067.12 47.8936 1067.52 48.2891C1067.92 48.6847 1068.45 48.9054 1069 48.9054C1069.55 48.9054 1070.08 48.6847 1070.48 48.2891C1070.87 47.8936 1071.11 47.3538 1071.13 46.782Z" fill="#696969"/>
<defs>
<linearGradient id="paint0_linear_3159_8791" x1="18" y1="50" x2="82" y2="50" gradientUnits="userSpaceOnUse">
<stop stop-color="#7666C4"/>
<stop offset="1" stop-color="#66BBC4"/>
</linearGradient>
</defs>
</svg>
