<svg width="1130" height="100" viewBox="0 0 1130 100" fill="none" xmlns="http://www.w3.org/2000/svg">
<rect width="1130" height="100" rx="25" fill="url(#paint0_linear_3183_8892)"/>
<path d="M117.037 45H111.57L111.605 41.502H117.037C118.619 41.502 119.943 41.1562 121.01 40.4648C122.088 39.7734 122.896 38.7832 123.436 37.4941C123.986 36.2051 124.262 34.6699 124.262 32.8887V31.5C124.262 30.1172 124.104 28.8926 123.787 27.8262C123.482 26.7598 123.025 25.8633 122.416 25.1367C121.818 24.4102 121.08 23.8594 120.201 23.4844C119.334 23.1094 118.332 22.9219 117.195 22.9219H111.465V19.4062H117.195C118.895 19.4062 120.447 19.6934 121.854 20.2676C123.26 20.8301 124.473 21.6445 125.492 22.7109C126.523 23.7773 127.314 25.0547 127.865 26.543C128.416 28.0312 128.691 29.6953 128.691 31.5352V32.8887C128.691 34.7285 128.416 36.3926 127.865 37.8809C127.314 39.3691 126.523 40.6465 125.492 41.7129C124.461 42.7676 123.23 43.582 121.801 44.1562C120.383 44.7188 118.795 45 117.037 45ZM114.014 19.4062V45H109.602V19.4062H114.014ZM137.234 25.9805V45H132.98V25.9805H137.234ZM132.699 20.9883C132.699 20.3438 132.91 19.8105 133.332 19.3887C133.766 18.9551 134.363 18.7383 135.125 18.7383C135.875 18.7383 136.467 18.9551 136.9 19.3887C137.334 19.8105 137.551 20.3438 137.551 20.9883C137.551 21.6211 137.334 22.1484 136.9 22.5703C136.467 22.9922 135.875 23.2031 135.125 23.2031C134.363 23.2031 133.766 22.9922 133.332 22.5703C132.91 22.1484 132.699 21.6211 132.699 20.9883ZM149.645 41.9766C150.336 41.9766 150.957 41.8418 151.508 41.5723C152.07 41.291 152.521 40.9043 152.861 40.4121C153.213 39.9199 153.406 39.3516 153.441 38.707H157.432C157.408 39.9375 157.045 41.0566 156.342 42.0645C155.639 43.0723 154.707 43.875 153.547 44.4727C152.387 45.0586 151.104 45.3516 149.697 45.3516C148.244 45.3516 146.979 45.1055 145.9 44.6133C144.822 44.1094 143.926 43.418 143.211 42.5391C142.496 41.6602 141.957 40.6465 141.594 39.498C141.242 38.3496 141.066 37.1191 141.066 35.8066V35.1914C141.066 33.8789 141.242 32.6484 141.594 31.5C141.957 30.3398 142.496 29.3203 143.211 28.4414C143.926 27.5625 144.822 26.877 145.9 26.3848C146.979 25.8809 148.238 25.6289 149.68 25.6289C151.203 25.6289 152.539 25.9336 153.688 26.543C154.836 27.1406 155.738 27.9785 156.395 29.0566C157.062 30.123 157.408 31.3652 157.432 32.7832H153.441C153.406 32.0801 153.23 31.4473 152.914 30.8848C152.609 30.3105 152.176 29.8535 151.613 29.5137C151.062 29.1738 150.4 29.0039 149.627 29.0039C148.771 29.0039 148.062 29.1797 147.5 29.5312C146.938 29.8711 146.498 30.3398 146.182 30.9375C145.865 31.5234 145.637 32.1855 145.496 32.9238C145.367 33.6504 145.303 34.4062 145.303 35.1914V35.8066C145.303 36.5918 145.367 37.3535 145.496 38.0918C145.625 38.8301 145.848 39.4922 146.164 40.0781C146.492 40.6523 146.938 41.1152 147.5 41.4668C148.062 41.8066 148.777 41.9766 149.645 41.9766ZM169.068 45.3516C167.662 45.3516 166.391 45.123 165.254 44.666C164.129 44.1973 163.168 43.5469 162.371 42.7148C161.586 41.8828 160.982 40.9043 160.561 39.7793C160.139 38.6543 159.928 37.4414 159.928 36.1406V35.4375C159.928 33.9492 160.145 32.6016 160.578 31.3945C161.012 30.1875 161.615 29.1562 162.389 28.3008C163.162 27.4336 164.076 26.7715 165.131 26.3145C166.186 25.8574 167.328 25.6289 168.559 25.6289C169.918 25.6289 171.107 25.8574 172.127 26.3145C173.146 26.7715 173.99 27.416 174.658 28.248C175.338 29.0684 175.842 30.0469 176.17 31.1836C176.51 32.3203 176.68 33.5742 176.68 34.9453V36.7559H161.984V33.7148H172.496V33.3809C172.473 32.6191 172.32 31.9043 172.039 31.2363C171.77 30.5684 171.354 30.0293 170.791 29.6191C170.229 29.209 169.479 29.0039 168.541 29.0039C167.838 29.0039 167.211 29.1562 166.66 29.4609C166.121 29.7539 165.67 30.1816 165.307 30.7441C164.943 31.3066 164.662 31.9863 164.463 32.7832C164.275 33.5684 164.182 34.4531 164.182 35.4375V36.1406C164.182 36.9727 164.293 37.7461 164.516 38.4609C164.75 39.1641 165.09 39.7793 165.535 40.3066C165.98 40.834 166.52 41.25 167.152 41.5547C167.785 41.8477 168.506 41.9941 169.314 41.9941C170.334 41.9941 171.242 41.7891 172.039 41.3789C172.836 40.9688 173.527 40.3887 174.113 39.6387L176.346 41.8008C175.936 42.3984 175.402 42.9727 174.746 43.5234C174.09 44.0625 173.287 44.502 172.338 44.8418C171.4 45.1816 170.311 45.3516 169.068 45.3516Z" fill="#F0F0F0"/>
<path d="M1078.29 31.25C1079.03 31.2502 1079.75 31.4446 1080.38 31.8134C1081.02 32.1822 1081.54 32.7123 1081.91 33.35L1088.85 45.5C1089.31 46.2934 1089.49 47.2139 1089.37 48.1197C1089.25 49.0254 1088.83 49.8662 1088.18 50.5125L1068.84 69.8521C1068.6 70.094 1068.32 70.2859 1068 70.4168C1067.68 70.5477 1067.34 70.6151 1067 70.6151C1066.66 70.6151 1066.32 70.5477 1066.01 70.4168C1065.69 70.2859 1065.4 70.094 1065.16 69.8521L1045.82 50.5125C1045.18 49.8662 1044.76 49.0254 1044.64 48.1197C1044.52 47.2139 1044.7 46.2934 1045.15 45.5L1052.09 33.3479C1052.46 32.7109 1052.98 32.1814 1053.62 31.813C1054.25 31.4446 1054.97 31.2504 1055.71 31.25H1078.29ZM1073.25 37.5H1060.75C1060.22 37.5006 1059.71 37.7039 1059.32 38.0684C1058.94 38.433 1058.7 38.9312 1058.67 39.4612C1058.64 39.9913 1058.81 40.5133 1059.16 40.9205C1059.5 41.3277 1059.98 41.5894 1060.51 41.6521L1060.75 41.6667H1064.92V44.8854C1063.34 45.0312 1061.9 45.3375 1060.74 45.7729C1059.92 46.0812 1059.18 46.4729 1058.63 46.9625C1058.08 47.4521 1057.63 48.1229 1057.63 48.9583C1057.63 49.7937 1058.08 50.4667 1058.63 50.9542C1059.18 51.4437 1059.92 51.8354 1060.74 52.1417C1061.98 52.6062 1063.53 52.9271 1065.24 53.0583C1065.07 53.321 1064.97 53.6171 1064.93 53.925L1064.92 54.1667V58.3333C1064.92 58.8643 1065.12 59.3751 1065.49 59.7612C1065.85 60.1473 1066.35 60.3797 1066.88 60.4108C1067.41 60.4419 1067.93 60.2694 1068.34 59.9286C1068.74 59.5878 1069.01 59.1044 1069.07 58.5771L1069.08 58.3333V54.1667C1069.08 53.7746 1068.97 53.3904 1068.76 53.0583C1070.47 52.9271 1072.02 52.6083 1073.26 52.1417C1074.08 51.8354 1074.82 51.4437 1075.37 50.9542C1075.92 50.4646 1076.38 49.7937 1076.38 48.9583C1076.38 48.1229 1075.92 47.45 1075.37 46.9625C1074.82 46.4729 1074.08 46.0812 1073.26 45.775C1072.13 45.3686 1070.95 45.0946 1069.75 44.9583L1069.08 44.8854V41.6667H1073.25C1073.78 41.6661 1074.29 41.4628 1074.68 41.0982C1075.06 40.7337 1075.3 40.2355 1075.33 39.7054C1075.36 39.1753 1075.19 38.6534 1074.85 38.2462C1074.5 37.839 1074.02 37.5773 1073.49 37.5146L1073.25 37.5ZM1069.08 46.9792C1070.26 47.0826 1071.41 47.3325 1072.53 47.7229C1073.21 47.9812 1073.69 48.2625 1073.99 48.5208C1074.11 48.6182 1074.21 48.7457 1074.28 48.8917L1074.29 48.9583L1074.28 49.025C1074.21 49.171 1074.11 49.2985 1073.99 49.3958C1073.69 49.6542 1073.21 49.9375 1072.53 50.1917C1071.16 50.7042 1069.21 51.0417 1067 51.0417C1064.79 51.0417 1062.84 50.7042 1061.47 50.1917C1060.79 49.9354 1060.31 49.6542 1060.01 49.3958C1059.89 49.2985 1059.79 49.171 1059.72 49.025L1059.71 48.9583C1059.71 48.9312 1059.72 48.7812 1060.01 48.5208C1060.31 48.2604 1060.79 47.9792 1061.47 47.725C1062.39 47.3812 1063.57 47.1146 1064.92 46.9792C1064.94 47.515 1065.17 48.021 1065.56 48.3917C1065.95 48.7625 1066.46 48.9694 1067 48.9694C1067.54 48.9694 1068.05 48.7625 1068.44 48.3917C1068.83 48.021 1069.06 47.515 1069.08 46.9792Z" fill="#696969"/>
<path d="M28 31.3333C28 29.9188 28.5619 28.5623 29.5621 27.5621C30.5623 26.5619 31.9188 26 33.3333 26H70.6667C72.0812 26 73.4377 26.5619 74.4379 27.5621C75.4381 28.5623 76 29.9188 76 31.3333V68.6667C76 70.0812 75.4381 71.4377 74.4379 72.4379C73.4377 73.4381 72.0812 74 70.6667 74H33.3333C31.9188 74 30.5623 73.4381 29.5621 72.4379C28.5619 71.4377 28 70.0812 28 68.6667V31.3333Z" stroke="white" stroke-width="5.33333" stroke-linecap="round" stroke-linejoin="round"/>
<path d="M42.6673 41.987C43.4037 41.987 44.0007 41.39 44.0007 40.6536C44.0007 39.9173 43.4037 39.3203 42.6673 39.3203C41.9309 39.3203 41.334 39.9173 41.334 40.6536C41.334 41.39 41.9309 41.987 42.6673 41.987Z" fill="white" stroke="white" stroke-width="5.33333" stroke-linecap="round" stroke-linejoin="round"/>
<path d="M61.3294 41.987C62.0658 41.987 62.6628 41.39 62.6628 40.6536C62.6628 39.9173 62.0658 39.3203 61.3294 39.3203C60.593 39.3203 59.9961 39.9173 59.9961 40.6536C59.9961 41.39 60.593 41.987 61.3294 41.987Z" fill="white" stroke="white" stroke-width="5.33333" stroke-linecap="round" stroke-linejoin="round"/>
<path d="M61.3294 60.651C62.0658 60.651 62.6628 60.0541 62.6628 59.3177C62.6628 58.5813 62.0658 57.9844 61.3294 57.9844C60.593 57.9844 59.9961 58.5813 59.9961 59.3177C59.9961 60.0541 60.593 60.651 61.3294 60.651Z" fill="white" stroke="white" stroke-width="5.33333" stroke-linecap="round" stroke-linejoin="round"/>
<path d="M42.6673 60.651C43.4037 60.651 44.0007 60.0541 44.0007 59.3177C44.0007 58.5813 43.4037 57.9844 42.6673 57.9844C41.9309 57.9844 41.334 58.5813 41.334 59.3177C41.334 60.0541 41.9309 60.651 42.6673 60.651Z" fill="white" stroke="white" stroke-width="5.33333" stroke-linecap="round" stroke-linejoin="round"/>
<defs>
<linearGradient id="paint0_linear_3183_8892" x1="8.62898e-06" y1="50" x2="1130" y2="49.9999" gradientUnits="userSpaceOnUse">
<stop stop-color="#66BBC4" stop-opacity="0.9"/>
<stop offset="0.4" stop-color="#7D6CD0" stop-opacity="0.9"/>
<stop offset="0.75" stop-color="#212121"/>
</linearGradient>
</defs>
</svg>
