<svg width="5550" height="750" viewBox="0 0 5550 750" fill="none" xmlns="http://www.w3.org/2000/svg">
<rect width="5550" height="750" rx="100" fill="url(#paint0_linear_3369_10695)"/>
<path d="M2173.04 404.139H2203.56C2202.59 415.776 2199.33 426.152 2193.8 435.267C2188.26 444.3 2180.49 451.421 2170.48 456.629C2160.47 461.837 2148.3 464.441 2133.98 464.441C2123 464.441 2113.11 462.488 2104.32 458.582C2095.53 454.594 2088 448.979 2081.74 441.736C2075.47 434.412 2070.67 425.582 2067.33 415.247C2064.08 404.912 2062.45 393.356 2062.45 380.579V365.809C2062.45 353.032 2064.12 341.476 2067.45 331.141C2070.87 320.805 2075.75 311.976 2082.1 304.651C2088.45 297.246 2096.06 291.59 2104.93 287.684C2113.88 283.777 2123.93 281.824 2135.08 281.824C2149.24 281.824 2161.2 284.428 2170.97 289.637C2180.73 294.845 2188.3 302.047 2193.67 311.243C2199.13 320.439 2202.46 330.978 2203.68 342.859H2173.17C2172.35 335.21 2170.56 328.659 2167.8 323.206C2165.11 317.754 2161.12 313.603 2155.83 310.755C2150.54 307.825 2143.63 306.36 2135.08 306.36C2128.08 306.36 2121.98 307.662 2116.77 310.267C2111.56 312.871 2107.21 316.696 2103.71 321.741C2100.21 326.787 2097.56 333.012 2095.77 340.418C2094.06 347.742 2093.21 356.124 2093.21 365.564V380.579C2093.21 389.531 2093.98 397.669 2095.53 404.993C2097.16 412.236 2099.6 418.462 2102.85 423.67C2106.19 428.878 2110.42 432.907 2115.55 435.755C2120.68 438.603 2126.82 440.027 2133.98 440.027C2142.69 440.027 2149.73 438.644 2155.1 435.877C2160.55 433.11 2164.66 429.082 2167.43 423.792C2170.28 418.421 2172.15 411.87 2173.04 404.139ZM2252.39 329.92H2281.81L2280.34 376.429C2279.94 389.938 2278.39 401.535 2275.71 411.219C2273.02 420.903 2269.52 429.082 2265.21 435.755C2260.89 442.347 2256.01 447.758 2250.56 451.99C2245.19 456.222 2239.53 459.559 2233.59 462H2224.92V438.807L2229.07 438.562C2232.57 434.819 2235.59 431.076 2238.11 427.332C2240.71 423.507 2242.91 419.316 2244.7 414.759C2246.49 410.12 2247.87 404.708 2248.85 398.523C2249.91 392.339 2250.6 384.974 2250.93 376.429L2252.39 329.92ZM2260.2 329.92H2343.94V462H2314.65V354.822H2260.2V329.92ZM2218.21 438.562H2362.01V501.307H2332.59V462H2248V501.307H2218.09L2218.21 438.562ZM2441.23 464.441C2431.47 464.441 2422.64 462.854 2414.74 459.681C2406.93 456.425 2400.26 451.909 2394.72 446.131C2389.27 440.353 2385.08 433.558 2382.15 425.745C2379.22 417.933 2377.76 409.51 2377.76 400.477V395.594C2377.76 385.258 2379.26 375.9 2382.27 367.518C2385.28 359.135 2389.48 351.974 2394.85 346.033C2400.22 340.011 2406.56 335.413 2413.89 332.239C2421.21 329.065 2429.15 327.479 2437.69 327.479C2447.13 327.479 2455.39 329.065 2462.47 332.239C2469.55 335.413 2475.41 339.889 2480.05 345.667C2484.77 351.364 2488.27 358.159 2490.55 366.053C2492.91 373.947 2494.09 382.654 2494.09 392.176V404.749H2392.04V383.631H2465.04V381.312C2464.87 376.022 2463.82 371.058 2461.86 366.419C2459.99 361.78 2457.1 358.037 2453.2 355.188C2449.29 352.34 2444.08 350.916 2437.57 350.916C2432.69 350.916 2428.33 351.974 2424.51 354.09C2420.77 356.124 2417.63 359.095 2415.11 363.001C2412.59 366.907 2410.63 371.627 2409.25 377.161C2407.95 382.614 2407.3 388.758 2407.3 395.594V400.477C2407.3 406.255 2408.07 411.626 2409.62 416.59C2411.24 421.473 2413.6 425.745 2416.7 429.407C2419.79 433.069 2423.53 435.958 2427.93 438.074C2432.32 440.109 2437.33 441.126 2442.94 441.126C2450.02 441.126 2456.33 439.702 2461.86 436.854C2467.4 434.005 2472.2 429.977 2476.27 424.769L2491.77 439.783C2488.92 443.934 2485.22 447.921 2480.66 451.746C2476.1 455.49 2470.53 458.541 2463.94 460.901C2457.43 463.261 2449.86 464.441 2441.23 464.441ZM2605.78 329.92V353.357H2541.33V329.92H2605.78ZM2628.85 329.92V462H2599.44V329.92H2628.85ZM2534.13 329.92H2563.18L2559.64 395.228C2559.15 404.912 2558.18 413.457 2556.71 420.862C2555.33 428.187 2553.46 434.493 2551.1 439.783C2548.74 444.992 2545.85 449.223 2542.43 452.479C2539.01 455.734 2535.02 458.134 2530.47 459.681C2525.91 461.227 2520.78 462 2515.09 462H2505.93L2505.81 437.83L2510.45 437.464C2513.46 437.22 2516.06 436.447 2518.26 435.145C2520.46 433.761 2522.33 431.808 2523.87 429.285C2525.5 426.762 2526.8 423.507 2527.78 419.52C2528.84 415.532 2529.65 410.812 2530.22 405.359C2530.87 399.907 2531.36 393.559 2531.69 386.316L2534.13 329.92ZM2734.57 435.511V372.522C2734.57 367.802 2733.71 363.733 2732 360.315C2730.3 356.897 2727.69 354.253 2724.19 352.381C2720.77 350.509 2716.46 349.573 2711.25 349.573C2706.45 349.573 2702.3 350.387 2698.8 352.015C2695.3 353.642 2692.58 355.84 2690.62 358.606C2688.67 361.373 2687.69 364.507 2687.69 368.006H2658.4C2658.4 362.798 2659.66 357.752 2662.18 352.869C2664.7 347.986 2668.37 343.632 2673.17 339.808C2677.97 335.983 2683.71 332.972 2690.38 330.774C2697.05 328.577 2704.54 327.479 2712.84 327.479C2722.77 327.479 2731.56 329.147 2739.21 332.483C2746.94 335.82 2753 340.866 2757.4 347.62C2761.87 354.293 2764.11 362.675 2764.11 372.767V431.482C2764.11 437.505 2764.52 442.916 2765.33 447.718C2766.22 452.438 2767.49 456.548 2769.11 460.047V462H2738.96C2737.58 458.826 2736.48 454.798 2735.67 449.915C2734.93 444.951 2734.57 440.149 2734.57 435.511ZM2738.84 381.678L2739.08 399.866H2717.97C2712.51 399.866 2707.71 400.395 2703.56 401.453C2699.41 402.43 2695.95 403.895 2693.19 405.848C2690.42 407.801 2688.34 410.161 2686.96 412.928C2685.58 415.695 2684.89 418.828 2684.89 422.327C2684.89 425.826 2685.7 429.041 2687.33 431.971C2688.95 434.819 2691.31 437.057 2694.41 438.685C2697.58 440.312 2701.41 441.126 2705.88 441.126C2711.9 441.126 2717.15 439.905 2721.63 437.464C2726.19 434.941 2729.77 431.889 2732.37 428.309C2734.97 424.646 2736.36 421.188 2736.52 417.933L2746.04 430.994C2745.07 434.331 2743.4 437.911 2741.04 441.736C2738.68 445.561 2735.59 449.223 2731.76 452.723C2728.02 456.141 2723.5 458.948 2718.21 461.146C2713 463.343 2706.98 464.441 2700.14 464.441C2691.52 464.441 2683.83 462.732 2677.07 459.314C2670.32 455.815 2665.03 451.136 2661.2 445.276C2657.38 439.336 2655.47 432.622 2655.47 425.135C2655.47 418.136 2656.77 411.951 2659.37 406.58C2662.06 401.128 2665.96 396.57 2671.09 392.908C2676.3 389.246 2682.65 386.479 2690.13 384.607C2697.62 382.654 2706.17 381.678 2715.77 381.678H2738.84ZM2854.2 329.92V462H2824.66V329.92H2854.2ZM2897.53 329.92V353.113H2782.05V329.92H2897.53ZM2939.04 371.912H2977.98C2989.37 371.912 2999.05 373.825 3007.03 377.649C3015 381.474 3021.07 386.805 3025.22 393.641C3029.45 400.395 3031.56 408.126 3031.56 416.834C3031.56 423.263 3030.38 429.244 3028.02 434.778C3025.66 440.231 3022.17 444.992 3017.53 449.061C3012.97 453.13 3007.35 456.303 3000.68 458.582C2994.09 460.861 2986.52 462 2977.98 462H2919.5V329.92H2949.05V438.685H2977.98C2983.84 438.685 2988.51 437.667 2992.01 435.633C2995.51 433.598 2998.04 430.953 2999.58 427.698C3001.21 424.443 3002.02 420.984 3002.02 417.322C3002.02 413.579 3001.21 410.039 2999.58 406.702C2998.04 403.366 2995.51 400.639 2992.01 398.523C2988.51 396.408 2983.84 395.35 2977.98 395.35H2939.04V371.912ZM3225.29 404.139H3255.81C3254.83 415.776 3251.58 426.152 3246.04 435.267C3240.51 444.3 3232.74 451.421 3222.73 456.629C3212.72 461.837 3200.55 464.441 3186.23 464.441C3175.24 464.441 3165.35 462.488 3156.56 458.582C3147.78 454.594 3140.25 448.979 3133.98 441.736C3127.72 434.412 3122.91 425.582 3119.58 415.247C3116.32 404.912 3114.69 393.356 3114.69 380.579V365.809C3114.69 353.032 3116.36 341.476 3119.7 331.141C3123.12 320.805 3128 311.976 3134.35 304.651C3140.7 297.246 3148.3 291.59 3157.18 287.684C3166.13 283.777 3176.18 281.824 3187.33 281.824C3201.49 281.824 3213.45 284.428 3223.22 289.637C3232.98 294.845 3240.55 302.047 3245.92 311.243C3251.37 320.439 3254.71 330.978 3255.93 342.859H3225.41C3224.6 335.21 3222.81 328.659 3220.04 323.206C3217.36 317.754 3213.37 313.603 3208.08 310.755C3202.79 307.825 3195.87 306.36 3187.33 306.36C3180.33 306.36 3174.22 307.662 3169.02 310.267C3163.81 312.871 3159.45 316.696 3155.95 321.741C3152.46 326.787 3149.81 333.012 3148.02 340.418C3146.31 347.742 3145.46 356.124 3145.46 365.564V380.579C3145.46 389.531 3146.23 397.669 3147.78 404.993C3149.4 412.236 3151.84 418.462 3155.1 423.67C3158.44 428.878 3162.67 432.907 3167.8 435.755C3172.92 438.603 3179.07 440.027 3186.23 440.027C3194.94 440.027 3201.98 438.644 3207.35 435.877C3212.8 433.11 3216.91 429.082 3219.68 423.792C3222.52 418.421 3224.4 411.87 3225.29 404.139ZM3341.99 329.92V462H3312.45V329.92H3341.99ZM3385.32 329.92V353.113H3269.85V329.92H3385.32ZM3477.49 435.511V372.522C3477.49 367.802 3476.63 363.733 3474.92 360.315C3473.22 356.897 3470.61 354.253 3467.11 352.381C3463.69 350.509 3459.38 349.573 3454.17 349.573C3449.37 349.573 3445.22 350.387 3441.72 352.015C3438.22 353.642 3435.5 355.84 3433.54 358.606C3431.59 361.373 3430.61 364.507 3430.61 368.006H3401.32C3401.32 362.798 3402.58 357.752 3405.1 352.869C3407.62 347.986 3411.28 343.632 3416.09 339.808C3420.89 335.983 3426.63 332.972 3433.3 330.774C3439.97 328.577 3447.46 327.479 3455.76 327.479C3465.69 327.479 3474.48 329.147 3482.13 332.483C3489.86 335.82 3495.92 340.866 3500.31 347.62C3504.79 354.293 3507.03 362.675 3507.03 372.767V431.482C3507.03 437.505 3507.44 442.916 3508.25 447.718C3509.14 452.438 3510.41 456.548 3512.03 460.047V462H3481.88C3480.5 458.826 3479.4 454.798 3478.59 449.915C3477.85 444.951 3477.49 440.149 3477.49 435.511ZM3481.76 381.678L3482 399.866H3460.89C3455.43 399.866 3450.63 400.395 3446.48 401.453C3442.33 402.43 3438.87 403.895 3436.11 405.848C3433.34 407.801 3431.26 410.161 3429.88 412.928C3428.5 415.695 3427.81 418.828 3427.81 422.327C3427.81 425.826 3428.62 429.041 3430.25 431.971C3431.87 434.819 3434.23 437.057 3437.33 438.685C3440.5 440.312 3444.33 441.126 3448.8 441.126C3454.82 441.126 3460.07 439.905 3464.55 437.464C3469.11 434.941 3472.69 431.889 3475.29 428.309C3477.89 424.646 3479.28 421.188 3479.44 417.933L3488.96 430.994C3487.99 434.331 3486.32 437.911 3483.96 441.736C3481.6 445.561 3478.51 449.223 3474.68 452.723C3470.94 456.141 3466.42 458.948 3461.13 461.146C3455.92 463.343 3449.9 464.441 3443.06 464.441C3434.44 464.441 3426.75 462.732 3419.99 459.314C3413.24 455.815 3407.95 451.136 3404.12 445.276C3400.3 439.336 3398.39 432.622 3398.39 425.135C3398.39 418.136 3399.69 411.951 3402.29 406.58C3404.98 401.128 3408.88 396.57 3414.01 392.908C3419.22 389.246 3425.57 386.479 3433.05 384.607C3440.54 382.654 3449.09 381.678 3458.69 381.678H3481.76ZM3602 405.481H3559.76L3559.52 384.729H3594.19C3599.88 384.729 3604.56 384.16 3608.23 383.021C3611.97 381.881 3614.74 380.172 3616.53 377.894C3618.32 375.534 3619.21 372.685 3619.21 369.349C3619.21 366.582 3618.68 364.181 3617.62 362.146C3616.57 360.031 3614.94 358.322 3612.74 357.02C3610.63 355.636 3607.94 354.66 3604.69 354.09C3601.51 353.439 3597.81 353.113 3593.58 353.113H3569.53V462H3540.11V329.92H3593.58C3602.04 329.92 3609.65 330.652 3616.4 332.117C3623.24 333.582 3629.06 335.82 3633.86 338.831C3638.66 341.842 3642.32 345.667 3644.85 350.306C3647.45 354.863 3648.75 360.234 3648.75 366.419C3648.75 370.488 3647.86 374.313 3646.07 377.894C3644.36 381.474 3641.79 384.648 3638.38 387.415C3634.96 390.182 3630.77 392.461 3625.8 394.251C3620.84 395.96 3615.14 397.018 3608.71 397.425L3602 405.481ZM3602 462H3551.22L3562.94 438.807H3602C3607.21 438.807 3611.52 438.156 3614.94 436.854C3618.36 435.551 3620.88 433.68 3622.51 431.238C3624.22 428.715 3625.07 425.745 3625.07 422.327C3625.07 418.828 3624.26 415.817 3622.63 413.294C3621 410.771 3618.48 408.859 3615.06 407.557C3611.72 406.173 3607.37 405.481 3602 405.481H3568.43L3568.67 384.729H3608.59L3617.01 392.786C3625.4 393.356 3632.35 395.146 3637.89 398.157C3643.42 401.168 3647.57 404.952 3650.34 409.51C3653.11 414.067 3654.49 419.031 3654.49 424.402C3654.49 430.587 3653.31 436.04 3650.95 440.76C3648.67 445.48 3645.25 449.427 3640.7 452.601C3636.22 455.693 3630.73 458.053 3624.22 459.681C3617.71 461.227 3610.3 462 3602 462ZM3711.62 329.92V462H3682.2V329.92H3711.62ZM3797.8 329.92L3738.35 409.388H3704.78L3700.88 382.776H3725.41L3761.06 329.92H3797.8ZM3763.38 462L3723.58 404.383L3746.77 387.659L3802.07 462H3763.38ZM3856.39 447.596L3892.28 329.92H3923.78L3870.8 482.142C3869.58 485.397 3867.99 488.937 3866.04 492.762C3864.08 496.587 3861.52 500.208 3858.35 503.626C3855.25 507.125 3851.39 509.933 3846.75 512.049C3842.11 514.246 3836.5 515.345 3829.9 515.345C3827.3 515.345 3824.78 515.101 3822.34 514.612C3819.98 514.205 3817.74 513.758 3815.62 513.27L3815.5 490.809C3816.31 490.89 3817.29 490.971 3818.43 491.053C3819.65 491.134 3820.63 491.175 3821.36 491.175C3826.24 491.175 3830.31 490.564 3833.57 489.344C3836.82 488.204 3839.47 486.333 3841.5 483.729C3843.62 481.124 3845.41 477.625 3846.87 473.23L3856.39 447.596ZM3836.13 329.92L3867.5 428.797L3872.75 459.803L3852.37 465.052L3804.39 329.92H3836.13Z" fill="white"/>
<path fill-rule="evenodd" clip-rule="evenodd" d="M1829.77 384.863C1829.77 369.083 1828.88 353.269 1826.94 337.687C1825.39 325.05 1823.14 312.544 1820.01 300.304C1818.99 296.367 1817.91 292.496 1816.66 288.626C1816.52 288.183 1816.39 287.728 1816.26 287.272L1816.26 287.271L1816.26 287.271L1816.26 287.27C1815.69 285.273 1815.11 283.235 1813.67 281.943L1812.92 281.315C1811.81 280.516 1810.67 280.153 1809.49 280H1784.64L1757.19 280.057C1756.6 280.057 1755.99 280.032 1755.39 280H1750.52C1748.54 280.269 1746.72 281.08 1745.3 283.2C1744.62 284.257 1744.19 285.651 1743.8 286.961C1743.7 287.292 1743.6 287.618 1743.5 287.931C1742.53 290.942 1741.64 293.985 1740.79 297.095C1737.65 308.542 1735.38 320.286 1733.75 332.162C1731.28 349.597 1730.2 367.263 1730.2 384.962C1730.2 401.9 1731.17 418.905 1733.75 435.545C1735.35 445.966 1737.57 456.321 1740.79 466.18C1741.51 468.396 1742.31 470.58 1743.14 472.73C1744.3 475.641 1746.44 479.049 1749.29 479.578C1750.36 479.77 1751.52 479.736 1752.66 479.702C1753.08 479.69 1753.51 479.677 1753.92 479.677L1803.48 479.821C1803.37 479.739 1803.71 479.753 1804.34 479.777C1805.57 479.826 1807.89 479.917 1809.98 479.413C1813.45 478.586 1815.66 475.443 1817.08 471.771C1819.16 466.25 1820.91 460.556 1822.31 454.733C1825.47 441.93 1827.35 428.73 1828.49 415.497C1829.38 405.374 1829.77 395.118 1829.77 384.863ZM1934.86 326.111C1937.84 340.863 1939.22 356.078 1939.75 371.259C1939.92 375.978 1939.97 380.697 1940 385.449C1940 398.98 1938.95 412.544 1936.58 425.778C1934.4 437.824 1931.09 449.606 1926.38 460.562C1922.05 470.628 1917.26 479.968 1906.98 479.968L1846.11 479.968C1845.68 479.968 1845.24 479.983 1844.8 479.998H1844.8H1844.8H1844.8C1844.62 480.005 1844.44 480.011 1844.25 480.016H1842.75C1841.8 479.975 1840.87 479.831 1840 479.44C1837.09 478.087 1837.33 474.687 1838.46 471.618C1839.08 469.968 1839.65 468.285 1840.19 466.602C1843.34 456.767 1845.52 446.404 1847.08 436.009C1849.58 419.343 1850.55 402.347 1850.55 385.416C1850.55 370.4 1849.74 355.417 1848.07 340.566C1846.59 327.729 1844.47 314.957 1841.43 302.515C1840.67 299.413 1839.86 296.31 1838.98 293.274C1838.76 292.519 1838.5 291.743 1838.23 290.954L1838.23 290.954L1838.23 290.954C1837.61 289.155 1836.97 287.288 1836.88 285.453C1836.64 280.799 1841.47 280.799 1844.22 280.799L1844.28 280.799H1910.45C1912.09 280.799 1913.6 281.195 1914.94 281.888C1920.43 284.661 1923.88 292.218 1926.57 298.423C1930.34 307.168 1932.95 316.574 1934.86 326.111ZM1625.3 434.854C1621.83 420.076 1620.23 404.711 1620 389.351V380.223C1620.17 365.174 1621.13 350.084 1623.47 335.286C1625.16 324.494 1627.59 313.736 1631.3 303.67C1633.51 297.796 1636.12 291.723 1639.62 286.806C1639.96 286.319 1640.35 285.969 1640.75 285.611C1641 285.386 1641.25 285.159 1641.5 284.892C1642.55 283.77 1643.71 282.945 1644.92 282.351C1648.29 280.698 1651.95 280.743 1655.53 280.786C1656.09 280.793 1656.66 280.799 1657.22 280.799L1718.22 280.815C1718.59 280.815 1718.98 280.788 1719.38 280.761C1720.6 280.679 1721.91 280.591 1722.9 281.211C1725.84 283.013 1724.18 287.669 1722.91 291.227L1722.91 291.227C1722.6 292.099 1722.31 292.905 1722.12 293.586C1720.83 298.042 1719.7 302.563 1718.68 307.15C1715.66 320.516 1713.64 334.212 1712.35 348.007C1711.2 360.416 1710.66 372.957 1710.66 385.432C1710.66 395.563 1711.01 405.695 1711.81 415.794C1712.89 429.027 1714.72 442.294 1717.79 455.066C1718.81 459.324 1720 463.482 1721.29 467.574C1721.46 468.088 1721.71 468.716 1721.99 469.415C1723.22 472.533 1725.02 477.067 1723.09 479.224C1722.38 480.003 1721.18 479.993 1720.2 479.985L1720.09 479.984C1720.03 479.983 1719.97 479.983 1719.91 479.983C1715.31 480.035 1710.36 479.838 1705.44 479.641L1705.44 479.64H1705.44C1701.09 479.467 1696.76 479.294 1692.7 479.294L1658.51 479.968C1658.26 479.968 1658.02 479.968 1657.77 479.968C1651.35 479.979 1644.03 479.991 1639.8 472.839C1638.43 470.529 1637.17 468.087 1635.93 465.612C1631.27 456.008 1627.8 445.579 1625.3 434.854ZM1874.13 358.735H1901.2L1874.76 411.556C1874.03 413.106 1873.71 414.108 1873.71 415.455C1873.71 418.676 1876.67 423.366 1882.48 423.366C1887.24 423.366 1888.4 421.127 1891.36 414.898L1917.59 358.735C1917.69 358.508 1917.8 358.284 1917.9 358.063C1919.04 355.569 1920.02 353.428 1920.02 351.381C1920.02 348.484 1917.8 343.359 1912.41 343.359H1874.13C1868.33 343.359 1866.32 347.147 1866.32 351.047C1866.32 354.835 1868.42 358.735 1874.13 358.735ZM1761.17 358.735H1788.23L1761.8 411.556C1761.06 413.106 1760.74 414.108 1760.74 415.455C1760.74 418.676 1763.7 423.366 1769.52 423.366C1774.27 423.366 1775.44 421.127 1778.4 414.898L1804.62 358.735C1804.73 358.508 1804.83 358.284 1804.93 358.063C1806.07 355.569 1807.05 353.428 1807.05 351.381C1807.05 348.484 1804.84 343.359 1799.44 343.359H1761.17C1755.35 343.359 1753.34 347.147 1753.34 351.047C1753.34 354.835 1755.46 358.735 1761.17 358.735ZM1647.82 358.735H1674.89L1648.46 411.556C1647.72 413.106 1647.4 414.108 1647.4 415.455C1647.4 418.676 1650.36 423.366 1656.17 423.366C1660.93 423.366 1662.09 421.127 1665.05 414.898L1691.28 358.735C1691.38 358.508 1691.49 358.284 1691.59 358.063C1692.73 355.569 1693.71 353.428 1693.71 351.381C1693.71 348.484 1691.49 343.359 1686.1 343.359H1647.82C1642.01 343.359 1640 347.147 1640 351.047C1640 354.835 1642.11 358.735 1647.82 358.735Z" fill="white"/>
<defs>
<linearGradient id="paint0_linear_3369_10695" x1="0.000294736" y1="374.092" x2="990.405" y2="-1750.05" gradientUnits="userSpaceOnUse">
<stop stop-color="#7D6CD0"/>
<stop offset="1" stop-color="#D06C7D"/>
</linearGradient>
</defs>
</svg>
