<svg width="1130" height="100" viewBox="0 0 1130 100" fill="none" xmlns="http://www.w3.org/2000/svg">
<rect width="1130" height="100" rx="25" fill="#212121"/>
<rect x="18" y="18" width="64" height="64" rx="15" fill="url(#paint0_linear_3183_8831)"/>
<path d="M121.066 36.4082C121.066 35.8809 120.984 35.4121 120.82 35.002C120.668 34.5918 120.393 34.2168 119.994 33.877C119.596 33.5371 119.033 33.209 118.307 32.8926C117.592 32.5645 116.678 32.2305 115.564 31.8906C114.346 31.5156 113.221 31.0996 112.189 30.6426C111.17 30.1738 110.279 29.6348 109.518 29.0254C108.756 28.4043 108.164 27.6953 107.742 26.8984C107.32 26.0898 107.109 25.1582 107.109 24.1035C107.109 23.0605 107.326 22.1113 107.76 21.2559C108.205 20.4004 108.832 19.6621 109.641 19.041C110.461 18.4082 111.428 17.9219 112.541 17.582C113.654 17.2305 114.885 17.0547 116.232 17.0547C118.131 17.0547 119.766 17.4062 121.137 18.1094C122.52 18.8125 123.58 19.7559 124.318 20.9395C125.068 22.123 125.443 23.4297 125.443 24.8594H121.066C121.066 24.0156 120.885 23.2715 120.521 22.627C120.17 21.9707 119.631 21.4551 118.904 21.0801C118.189 20.7051 117.281 20.5176 116.18 20.5176C115.137 20.5176 114.27 20.6758 113.578 20.9922C112.887 21.3086 112.371 21.7363 112.031 22.2754C111.691 22.8145 111.521 23.4238 111.521 24.1035C111.521 24.584 111.633 25.0234 111.855 25.4219C112.078 25.8086 112.418 26.1719 112.875 26.5117C113.332 26.8398 113.906 27.1504 114.598 27.4434C115.289 27.7363 116.104 28.0176 117.041 28.2871C118.459 28.709 119.695 29.1777 120.75 29.6934C121.805 30.1973 122.684 30.7715 123.387 31.416C124.09 32.0605 124.617 32.793 124.969 33.6133C125.32 34.4219 125.496 35.3418 125.496 36.373C125.496 37.4512 125.279 38.4238 124.846 39.291C124.412 40.1465 123.791 40.8789 122.982 41.4883C122.186 42.0859 121.225 42.5488 120.1 42.877C118.986 43.1934 117.744 43.3516 116.373 43.3516C115.143 43.3516 113.93 43.1875 112.734 42.8594C111.551 42.5312 110.473 42.0332 109.5 41.3652C108.527 40.6855 107.754 39.8418 107.18 38.834C106.605 37.8145 106.318 36.625 106.318 35.2656H110.73C110.73 36.0977 110.871 36.8066 111.152 37.3926C111.445 37.9785 111.85 38.459 112.365 38.834C112.881 39.1973 113.479 39.4668 114.158 39.6426C114.85 39.8184 115.588 39.9062 116.373 39.9062C117.404 39.9062 118.266 39.7598 118.957 39.4668C119.66 39.1738 120.188 38.7637 120.539 38.2363C120.891 37.709 121.066 37.0996 121.066 36.4082ZM133.512 16V43H129.258V16H133.512ZM137.344 33.7012V33.2969C137.344 31.9258 137.543 30.6543 137.941 29.4824C138.34 28.2988 138.914 27.2734 139.664 26.4062C140.426 25.5273 141.352 24.8477 142.441 24.3672C143.543 23.875 144.785 23.6289 146.168 23.6289C147.562 23.6289 148.805 23.875 149.895 24.3672C150.996 24.8477 151.928 25.5273 152.689 26.4062C153.451 27.2734 154.031 28.2988 154.43 29.4824C154.828 30.6543 155.027 31.9258 155.027 33.2969V33.7012C155.027 35.0723 154.828 36.3438 154.43 37.5156C154.031 38.6875 153.451 39.7129 152.689 40.5918C151.928 41.459 151.002 42.1387 149.912 42.6309C148.822 43.1113 147.586 43.3516 146.203 43.3516C144.809 43.3516 143.561 43.1113 142.459 42.6309C141.369 42.1387 140.443 41.459 139.682 40.5918C138.92 39.7129 138.34 38.6875 137.941 37.5156C137.543 36.3438 137.344 35.0723 137.344 33.7012ZM141.58 33.2969V33.7012C141.58 34.5566 141.668 35.3652 141.844 36.127C142.02 36.8887 142.295 37.5566 142.67 38.1309C143.045 38.7051 143.525 39.1562 144.111 39.4844C144.697 39.8125 145.395 39.9766 146.203 39.9766C146.988 39.9766 147.668 39.8125 148.242 39.4844C148.828 39.1562 149.309 38.7051 149.684 38.1309C150.059 37.5566 150.334 36.8887 150.51 36.127C150.697 35.3652 150.791 34.5566 150.791 33.7012V33.2969C150.791 32.4531 150.697 31.6562 150.51 30.9062C150.334 30.1445 150.053 29.4707 149.666 28.8848C149.291 28.2988 148.811 27.8418 148.225 27.5137C147.65 27.1738 146.965 27.0039 146.168 27.0039C145.371 27.0039 144.68 27.1738 144.094 27.5137C143.52 27.8418 143.045 28.2988 142.67 28.8848C142.295 29.4707 142.02 30.1445 141.844 30.9062C141.668 31.6562 141.58 32.4531 141.58 33.2969ZM167.297 23.9805V27.0742H156.574V23.9805H167.297ZM159.668 19.3223H163.904V37.7441C163.904 38.3301 163.986 38.7812 164.15 39.0977C164.326 39.4023 164.566 39.6074 164.871 39.7129C165.176 39.8184 165.533 39.8711 165.943 39.8711C166.236 39.8711 166.518 39.8535 166.787 39.8184C167.057 39.7832 167.273 39.748 167.438 39.7129L167.455 42.9473C167.104 43.0527 166.693 43.1465 166.225 43.2285C165.768 43.3105 165.24 43.3516 164.643 43.3516C163.67 43.3516 162.809 43.1816 162.059 42.8418C161.309 42.4902 160.723 41.9219 160.301 41.1367C159.879 40.3516 159.668 39.3086 159.668 38.0078V19.3223ZM181.746 17.4062H185.684L193.084 37.1465L200.467 17.4062H204.404L194.631 43H191.502L181.746 17.4062ZM179.953 17.4062H183.697L184.348 34.4922V43H179.953V17.4062ZM202.453 17.4062H206.215V43H201.803V34.4922L202.453 17.4062ZM221.754 39.1855V30.1152C221.754 29.4355 221.631 28.8496 221.385 28.3574C221.139 27.8652 220.764 27.4844 220.26 27.2148C219.768 26.9453 219.146 26.8105 218.396 26.8105C217.705 26.8105 217.107 26.9277 216.604 27.1621C216.1 27.3965 215.707 27.7129 215.426 28.1113C215.145 28.5098 215.004 28.9609 215.004 29.4648H210.785C210.785 28.7148 210.967 27.9883 211.33 27.2852C211.693 26.582 212.221 25.9551 212.912 25.4043C213.604 24.8535 214.43 24.4199 215.391 24.1035C216.352 23.7871 217.43 23.6289 218.625 23.6289C220.055 23.6289 221.32 23.8691 222.422 24.3496C223.535 24.8301 224.408 25.5566 225.041 26.5293C225.686 27.4902 226.008 28.6973 226.008 30.1504V38.6055C226.008 39.4727 226.066 40.252 226.184 40.9434C226.312 41.623 226.494 42.2148 226.729 42.7188V43H222.387C222.188 42.543 222.029 41.9629 221.912 41.2598C221.807 40.5449 221.754 39.8535 221.754 39.1855ZM222.369 31.4336L222.404 34.0527H219.363C218.578 34.0527 217.887 34.1289 217.289 34.2812C216.691 34.4219 216.193 34.6328 215.795 34.9141C215.396 35.1953 215.098 35.5352 214.898 35.9336C214.699 36.332 214.6 36.7832 214.6 37.2871C214.6 37.791 214.717 38.2539 214.951 38.6758C215.186 39.0859 215.525 39.4082 215.971 39.6426C216.428 39.877 216.979 39.9941 217.623 39.9941C218.49 39.9941 219.246 39.8184 219.891 39.4668C220.547 39.1035 221.062 38.6641 221.438 38.1484C221.812 37.6211 222.012 37.123 222.035 36.6543L223.406 38.5352C223.266 39.0156 223.025 39.5312 222.686 40.082C222.346 40.6328 221.9 41.1602 221.35 41.6641C220.811 42.1562 220.16 42.5605 219.398 42.877C218.648 43.1934 217.781 43.3516 216.797 43.3516C215.555 43.3516 214.447 43.1055 213.475 42.6133C212.502 42.1094 211.74 41.4355 211.189 40.5918C210.639 39.7363 210.363 38.7695 210.363 37.6914C210.363 36.6836 210.551 35.793 210.926 35.0195C211.312 34.2344 211.875 33.5781 212.613 33.0508C213.363 32.5234 214.277 32.125 215.355 31.8555C216.434 31.5742 217.664 31.4336 219.047 31.4336H222.369ZM238.207 39.9766C238.898 39.9766 239.52 39.8418 240.07 39.5723C240.633 39.291 241.084 38.9043 241.424 38.4121C241.775 37.9199 241.969 37.3516 242.004 36.707H245.994C245.971 37.9375 245.607 39.0566 244.904 40.0645C244.201 41.0723 243.27 41.875 242.109 42.4727C240.949 43.0586 239.666 43.3516 238.26 43.3516C236.807 43.3516 235.541 43.1055 234.463 42.6133C233.385 42.1094 232.488 41.418 231.773 40.5391C231.059 39.6602 230.52 38.6465 230.156 37.498C229.805 36.3496 229.629 35.1191 229.629 33.8066V33.1914C229.629 31.8789 229.805 30.6484 230.156 29.5C230.52 28.3398 231.059 27.3203 231.773 26.4414C232.488 25.5625 233.385 24.877 234.463 24.3848C235.541 23.8809 236.801 23.6289 238.242 23.6289C239.766 23.6289 241.102 23.9336 242.25 24.543C243.398 25.1406 244.301 25.9785 244.957 27.0566C245.625 28.123 245.971 29.3652 245.994 30.7832H242.004C241.969 30.0801 241.793 29.4473 241.477 28.8848C241.172 28.3105 240.738 27.8535 240.176 27.5137C239.625 27.1738 238.963 27.0039 238.189 27.0039C237.334 27.0039 236.625 27.1797 236.062 27.5312C235.5 27.8711 235.061 28.3398 234.744 28.9375C234.428 29.5234 234.199 30.1855 234.059 30.9238C233.93 31.6504 233.865 32.4062 233.865 33.1914V33.8066C233.865 34.5918 233.93 35.3535 234.059 36.0918C234.188 36.8301 234.41 37.4922 234.727 38.0781C235.055 38.6523 235.5 39.1152 236.062 39.4668C236.625 39.8066 237.34 39.9766 238.207 39.9766ZM253.43 16V43H249.211V16H253.43ZM252.691 32.7871L251.32 32.7695C251.332 31.457 251.514 30.2441 251.865 29.1309C252.229 28.0176 252.732 27.0508 253.377 26.2305C254.033 25.3984 254.818 24.7598 255.732 24.3145C256.646 23.8574 257.66 23.6289 258.773 23.6289C259.711 23.6289 260.555 23.7578 261.305 24.0156C262.066 24.2734 262.723 24.6895 263.273 25.2637C263.824 25.8262 264.24 26.5645 264.521 27.4785C264.814 28.3809 264.961 29.4824 264.961 30.7832V43H260.707V30.748C260.707 29.834 260.572 29.1074 260.303 28.5684C260.045 28.0293 259.664 27.6426 259.16 27.4082C258.656 27.1621 258.041 27.0391 257.314 27.0391C256.553 27.0391 255.879 27.1914 255.293 27.4961C254.719 27.8008 254.238 28.2168 253.852 28.7441C253.465 29.2715 253.172 29.8809 252.973 30.5723C252.785 31.2637 252.691 32.002 252.691 32.7871ZM273.785 23.9805V43H269.531V23.9805H273.785ZM269.25 18.9883C269.25 18.3438 269.461 17.8105 269.883 17.3887C270.316 16.9551 270.914 16.7383 271.676 16.7383C272.426 16.7383 273.018 16.9551 273.451 17.3887C273.885 17.8105 274.102 18.3438 274.102 18.9883C274.102 19.6211 273.885 20.1484 273.451 20.5703C273.018 20.9922 272.426 21.2031 271.676 21.2031C270.914 21.2031 270.316 20.9922 269.883 20.5703C269.461 20.1484 269.25 19.6211 269.25 18.9883ZM282.627 28.041V43H278.391V23.9805H282.381L282.627 28.041ZM281.871 32.7871L280.5 32.7695C280.512 31.4219 280.699 30.1855 281.062 29.0605C281.438 27.9355 281.953 26.9688 282.609 26.1602C283.277 25.3516 284.074 24.7305 285 24.2969C285.926 23.8516 286.957 23.6289 288.094 23.6289C289.008 23.6289 289.834 23.7578 290.572 24.0156C291.322 24.2617 291.961 24.666 292.488 25.2285C293.027 25.791 293.438 26.5234 293.719 27.4258C294 28.3164 294.141 29.4121 294.141 30.7129V43H289.887V30.6953C289.887 29.7812 289.752 29.0605 289.482 28.5332C289.225 27.9941 288.844 27.6133 288.34 27.3906C287.848 27.1562 287.232 27.0391 286.494 27.0391C285.768 27.0391 285.117 27.1914 284.543 27.4961C283.969 27.8008 283.482 28.2168 283.084 28.7441C282.697 29.2715 282.398 29.8809 282.188 30.5723C281.977 31.2637 281.871 32.002 281.871 32.7871ZM306.85 43.3516C305.443 43.3516 304.172 43.123 303.035 42.666C301.91 42.1973 300.949 41.5469 300.152 40.7148C299.367 39.8828 298.764 38.9043 298.342 37.7793C297.92 36.6543 297.709 35.4414 297.709 34.1406V33.4375C297.709 31.9492 297.926 30.6016 298.359 29.3945C298.793 28.1875 299.396 27.1562 300.17 26.3008C300.943 25.4336 301.857 24.7715 302.912 24.3145C303.967 23.8574 305.109 23.6289 306.34 23.6289C307.699 23.6289 308.889 23.8574 309.908 24.3145C310.928 24.7715 311.771 25.416 312.439 26.248C313.119 27.0684 313.623 28.0469 313.951 29.1836C314.291 30.3203 314.461 31.5742 314.461 32.9453V34.7559H299.766V31.7148H310.277V31.3809C310.254 30.6191 310.102 29.9043 309.82 29.2363C309.551 28.5684 309.135 28.0293 308.572 27.6191C308.01 27.209 307.26 27.0039 306.322 27.0039C305.619 27.0039 304.992 27.1562 304.441 27.4609C303.902 27.7539 303.451 28.1816 303.088 28.7441C302.725 29.3066 302.443 29.9863 302.244 30.7832C302.057 31.5684 301.963 32.4531 301.963 33.4375V34.1406C301.963 34.9727 302.074 35.7461 302.297 36.4609C302.531 37.1641 302.871 37.7793 303.316 38.3066C303.762 38.834 304.301 39.25 304.934 39.5547C305.566 39.8477 306.287 39.9941 307.096 39.9941C308.115 39.9941 309.023 39.7891 309.82 39.3789C310.617 38.9688 311.309 38.3887 311.895 37.6387L314.127 39.8008C313.717 40.3984 313.184 40.9727 312.527 41.5234C311.871 42.0625 311.068 42.502 310.119 42.8418C309.182 43.1816 308.092 43.3516 306.85 43.3516Z" fill="#A1A1A1"/>
<path d="M1080.59 30C1081.35 30.0003 1082.09 30.2076 1082.74 30.6011C1083.39 30.9946 1083.93 31.5602 1084.3 32.2406L1091.44 45.2038C1091.9 46.0504 1092.09 47.0325 1091.96 47.9988C1091.84 48.9652 1091.41 49.8623 1090.75 50.5519L1070.89 71.1859C1070.64 71.444 1070.35 71.6488 1070.02 71.7884C1069.7 71.9281 1069.35 72 1069 72C1068.65 72 1068.3 71.9281 1067.98 71.7884C1067.65 71.6488 1067.36 71.444 1067.11 71.1859L1047.25 50.5519C1046.59 49.8623 1046.16 48.9652 1046.04 47.9988C1045.91 47.0325 1046.1 46.0504 1046.56 45.2038L1053.69 32.2383C1054.07 31.5587 1054.61 30.9937 1055.26 30.6007C1055.91 30.2076 1056.65 30.0004 1057.4 30H1080.59ZM1075.42 36.6683H1062.58C1062.04 36.669 1061.51 36.8859 1061.11 37.2748C1060.72 37.6637 1060.48 38.1953 1060.45 38.7609C1060.42 39.3264 1060.59 39.8833 1060.94 40.3178C1061.29 40.7522 1061.79 41.0314 1062.33 41.0984L1062.58 41.1139H1066.86V44.5481C1065.24 44.7037 1063.76 45.0305 1062.57 45.495C1061.73 45.824 1060.97 46.2419 1060.41 46.7642C1059.84 47.2866 1059.37 48.0023 1059.37 48.8937C1059.37 49.785 1059.84 50.5029 1060.41 51.0231C1060.97 51.5454 1061.73 51.9633 1062.57 52.2901C1063.84 52.7857 1065.43 53.1281 1067.19 53.2681C1067.02 53.5483 1066.91 53.8642 1066.87 54.1928L1066.86 54.4506V58.8962C1066.86 59.4627 1067.07 60.0076 1067.44 60.4196C1067.82 60.8316 1068.33 61.0795 1068.87 61.1127C1069.42 61.1459 1069.95 60.9619 1070.37 60.5982C1070.79 60.2346 1071.06 59.7188 1071.12 59.1562L1071.14 58.8962V54.4506C1071.14 54.0323 1071.02 53.6224 1070.81 53.2681C1072.56 53.1281 1074.15 52.788 1075.42 52.2901C1076.27 51.9633 1077.03 51.5454 1077.59 51.0231C1078.16 50.5007 1078.62 49.785 1078.62 48.8937C1078.62 48.0023 1078.16 47.2844 1077.59 46.7642C1077.03 46.2419 1076.27 45.824 1075.42 45.4972C1074.26 45.0636 1073.05 44.7712 1071.82 44.6259L1071.14 44.5481V41.1139H1075.42C1075.96 41.1133 1076.48 40.8964 1076.88 40.5074C1077.28 40.1185 1077.52 39.587 1077.55 39.0214C1077.58 38.4558 1077.4 37.8989 1077.05 37.4645C1076.7 37.03 1076.21 36.7508 1075.67 36.6839L1075.42 36.6683ZM1071.13 46.782C1072.34 46.8924 1073.53 47.159 1074.67 47.5755C1075.38 47.8512 1075.87 48.1512 1076.17 48.4269C1076.3 48.5308 1076.4 48.6668 1076.47 48.8225L1076.48 48.8937L1076.47 48.9648C1076.4 49.1205 1076.3 49.2565 1076.17 49.3604C1075.87 49.6361 1075.38 49.9384 1074.67 50.2095C1073.27 50.7563 1071.27 51.1164 1069 51.1164C1066.73 51.1164 1064.72 50.7563 1063.32 50.2095C1062.62 49.9361 1062.13 49.6361 1061.82 49.3604C1061.69 49.2565 1061.59 49.1205 1061.52 48.9648L1061.51 48.8937C1061.51 48.8648 1061.52 48.7047 1061.82 48.4269C1062.13 48.149 1062.62 47.8489 1063.32 47.5778C1064.26 47.211 1065.48 46.9265 1066.86 46.782C1066.89 47.3538 1067.12 47.8936 1067.52 48.2891C1067.92 48.6847 1068.45 48.9054 1069 48.9054C1069.55 48.9054 1070.08 48.6847 1070.48 48.2891C1070.87 47.8936 1071.11 47.3538 1071.13 46.782Z" fill="#696969"/>
<path fill-rule="evenodd" clip-rule="evenodd" d="M57.4628 51.7245C57.4628 49.3576 57.3298 46.9858 57.0389 44.6487C56.8062 42.7532 56.4696 40.8776 56 39.0417C55.8462 38.4512 55.6842 37.8707 55.4972 37.2901C55.4763 37.2236 55.4568 37.1553 55.4373 37.0868C55.3519 36.7872 55.2648 36.4816 55.0483 36.2878L54.9361 36.1935C54.7777 36.0796 54.6151 36.0249 54.4475 36H48.9452L46.577 36.005C46.5127 36.005 46.4476 36.0029 46.382 36H45.5511C45.2648 36.0438 45.0008 36.1675 44.7942 36.4763C44.6914 36.6348 44.6283 36.8439 44.5689 37.0404L44.5689 37.0406L44.5688 37.0408L44.5687 37.0411C44.5538 37.0905 44.5391 37.1391 44.5241 37.1859C44.3787 37.6374 44.2457 38.0939 44.1169 38.5604C43.6473 40.2772 43.3065 42.0387 43.0613 43.8201C42.6915 46.435 42.5294 49.0847 42.5294 51.7394C42.5294 54.2799 42.6749 56.8304 43.0613 59.3262C43.3024 60.8892 43.6348 62.4424 44.1169 63.921C44.2249 64.2535 44.3454 64.581 44.4701 64.9035C44.6446 65.3401 44.9646 65.8512 45.3926 65.9306C45.5525 65.9594 45.7276 65.9543 45.8974 65.9493C45.9616 65.9474 46.0251 65.9455 46.0866 65.9455L53.5205 65.967C53.5032 65.9548 53.5546 65.9568 53.6486 65.9605C53.8331 65.9677 54.1817 65.9814 54.4957 65.9058C55.0151 65.7818 55.3476 65.3104 55.5595 64.7596C55.8725 63.9315 56.135 63.0775 56.3449 62.2042C56.8186 60.2839 57.1012 58.3041 57.2716 56.3193C57.4046 54.8009 57.4628 53.2627 57.4628 51.7245ZM73.2252 42.915C73.6732 45.1276 73.879 47.4095 73.9598 49.6865C73.984 50.3943 73.9921 51.1022 73.9961 51.815C73.9961 53.8444 73.8387 55.8788 73.4835 57.8637C73.1565 59.6705 72.6601 61.4376 71.9537 63.081C71.3039 64.5907 70.5854 65.9915 69.0435 65.9915L59.9139 65.9915C59.8498 65.9915 59.7842 65.9938 59.7178 65.9961H59.7178L59.7175 65.9961C59.6752 65.9976 59.6325 65.9991 59.5897 66H59.4437C59.2903 65.9958 59.1386 65.9756 58.9976 65.9123C58.5617 65.7094 58.598 65.1995 58.7676 64.7392C58.8604 64.4917 58.9452 64.2393 59.0259 63.9868C59.4981 62.5117 59.8251 60.9575 60.0592 59.3982C60.4346 56.8985 60.5799 54.3493 60.5799 51.81C60.5799 49.5578 60.4588 47.3105 60.2085 45.083C59.9865 43.1575 59.6677 41.2419 59.2116 39.3758C59.0985 38.9105 58.9775 38.4452 58.8443 37.9898C58.8123 37.8766 58.7724 37.7603 58.7319 37.6419L58.7318 37.6418C58.6394 37.3719 58.5435 37.0919 58.5294 36.8167C58.4934 36.1186 59.2176 36.1187 59.6308 36.1187L59.6394 36.1187H69.5642C69.8104 36.1187 70.0365 36.1781 70.2383 36.2821C71.0617 36.6979 71.5783 37.8314 71.982 38.762C72.5471 40.0737 72.9386 41.4844 73.2252 42.915ZM26.7953 59.225C26.2721 56.9978 26.0327 54.6816 26 52.3666V51.0749C26.0245 48.8032 26.1674 46.525 26.5208 44.2911C26.7751 42.6724 27.1384 41.0588 27.6954 39.549C28.0264 38.6679 28.4179 37.7572 28.9426 37.0196C28.9947 36.9466 29.0529 36.8941 29.1126 36.8404C29.1499 36.8067 29.1878 36.7726 29.2252 36.7325C29.3826 36.5642 29.5561 36.4405 29.7378 36.3514C30.2429 36.1036 30.7932 36.1102 31.3288 36.1167L31.3288 36.1167L31.3289 36.1167C31.4138 36.1177 31.4984 36.1187 31.5824 36.1187L40.7322 36.121C40.7873 36.121 40.8462 36.117 40.9066 36.113C41.0893 36.1006 41.2858 36.0874 41.4345 36.1804C41.8754 36.4508 41.6263 37.1491 41.4358 37.6827L41.4358 37.6828L41.4358 37.6828C41.3892 37.8135 41.346 37.9344 41.3175 38.0366C41.1237 38.7049 40.9542 39.383 40.8008 40.071C40.3487 42.0758 40.046 44.13 39.8523 46.1991C39.6787 48.0602 39.598 49.9412 39.598 51.8123C39.598 53.3319 39.6505 54.8515 39.7715 56.3662C39.933 58.3511 40.2075 60.341 40.6676 62.2566C40.821 62.8952 40.9986 63.5189 41.1923 64.1327C41.2182 64.2097 41.2556 64.3038 41.2972 64.4087L41.2972 64.4088C41.4829 64.8764 41.7529 65.5565 41.4628 65.88C41.3564 65.9969 41.1768 65.9953 41.0299 65.9941L40.9865 65.9938C40.2959 66.0017 39.5539 65.972 38.8151 65.9425H38.815H38.815C38.1634 65.9164 37.5143 65.8904 36.9052 65.8904L31.7761 65.9915L31.6662 65.9916C30.7025 65.9932 29.6045 65.995 28.9709 64.9223C28.765 64.5758 28.5753 64.2095 28.3896 63.8383C27.6914 62.3979 27.1707 60.8337 26.7953 59.225ZM64.1171 47.805H68.1762L64.2108 55.7275C64.1013 55.96 64.0537 56.1104 64.0537 56.3124C64.0537 56.7955 64.4977 57.4989 65.3683 57.4989C66.0832 57.4989 66.2577 57.1631 66.7016 56.2289L70.6353 47.805C70.6508 47.771 70.6662 47.7374 70.6814 47.7043C70.8528 47.3302 71 47.0091 71 46.7021C71 46.2676 70.667 45.4989 69.8584 45.4989H64.1171C63.2465 45.4989 62.9452 46.0671 62.9452 46.6519C62.9452 47.2201 63.2609 47.805 64.1171 47.805ZM47.1733 47.805H51.2324L47.2685 55.7275C47.1575 55.96 47.1099 56.1104 47.1099 56.3124C47.1099 56.7955 47.5539 57.4989 48.4259 57.4989C49.1395 57.4989 49.3139 57.1631 49.7578 56.2289L53.6915 47.805C53.707 47.771 53.7224 47.7374 53.7376 47.7042C53.909 47.3302 54.0562 47.0091 54.0562 46.7021C54.0562 46.2676 53.7232 45.4989 52.9146 45.4989H47.1733C46.3013 45.4989 46 46.0671 46 46.6519C46 47.2201 46.3171 47.805 47.1733 47.805ZM30.1733 47.805H34.2324L30.2685 55.7275C30.1575 55.96 30.1099 56.1104 30.1099 56.3124C30.1099 56.7955 30.5539 57.4989 31.4259 57.4989C32.1395 57.4989 32.3139 57.1631 32.7578 56.2289L36.6915 47.805C36.707 47.771 36.7224 47.7374 36.7376 47.7043C36.909 47.3302 37.0562 47.0091 37.0562 46.7021C37.0562 46.2676 36.7232 45.4989 35.9146 45.4989H30.1733C29.3013 45.4989 29 46.0671 29 46.6519C29 47.2201 29.3171 47.805 30.1733 47.805Z" fill="#F0F0F0"/>
<defs>
<linearGradient id="paint0_linear_3183_8831" x1="18" y1="49.9226" x2="76.9992" y2="32.823" gradientUnits="userSpaceOnUse">
<stop stop-color="#7D6CD0"/>
<stop offset="1" stop-color="#D06C7D"/>
</linearGradient>
</defs>
</svg>
