<svg width="1130" height="100" viewBox="0 0 1130 100" fill="none" xmlns="http://www.w3.org/2000/svg">
<rect width="1130" height="100" rx="25" fill="url(#paint0_linear_3183_8903)"/>
<path d="M123.066 38.4082C123.066 37.8809 122.984 37.4121 122.82 37.002C122.668 36.5918 122.393 36.2168 121.994 35.877C121.596 35.5371 121.033 35.209 120.307 34.8926C119.592 34.5645 118.678 34.2305 117.564 33.8906C116.346 33.5156 115.221 33.0996 114.189 32.6426C113.17 32.1738 112.279 31.6348 111.518 31.0254C110.756 30.4043 110.164 29.6953 109.742 28.8984C109.32 28.0898 109.109 27.1582 109.109 26.1035C109.109 25.0605 109.326 24.1113 109.76 23.2559C110.205 22.4004 110.832 21.6621 111.641 21.041C112.461 20.4082 113.428 19.9219 114.541 19.582C115.654 19.2305 116.885 19.0547 118.232 19.0547C120.131 19.0547 121.766 19.4062 123.137 20.1094C124.52 20.8125 125.58 21.7559 126.318 22.9395C127.068 24.123 127.443 25.4297 127.443 26.8594H123.066C123.066 26.0156 122.885 25.2715 122.521 24.627C122.17 23.9707 121.631 23.4551 120.904 23.0801C120.189 22.7051 119.281 22.5176 118.18 22.5176C117.137 22.5176 116.27 22.6758 115.578 22.9922C114.887 23.3086 114.371 23.7363 114.031 24.2754C113.691 24.8145 113.521 25.4238 113.521 26.1035C113.521 26.584 113.633 27.0234 113.855 27.4219C114.078 27.8086 114.418 28.1719 114.875 28.5117C115.332 28.8398 115.906 29.1504 116.598 29.4434C117.289 29.7363 118.104 30.0176 119.041 30.2871C120.459 30.709 121.695 31.1777 122.75 31.6934C123.805 32.1973 124.684 32.7715 125.387 33.416C126.09 34.0605 126.617 34.793 126.969 35.6133C127.32 36.4219 127.496 37.3418 127.496 38.373C127.496 39.4512 127.279 40.4238 126.846 41.291C126.412 42.1465 125.791 42.8789 124.982 43.4883C124.186 44.0859 123.225 44.5488 122.1 44.877C120.986 45.1934 119.744 45.3516 118.373 45.3516C117.143 45.3516 115.93 45.1875 114.734 44.8594C113.551 44.5312 112.473 44.0332 111.5 43.3652C110.527 42.6855 109.754 41.8418 109.18 40.834C108.605 39.8145 108.318 38.625 108.318 37.2656H112.73C112.73 38.0977 112.871 38.8066 113.152 39.3926C113.445 39.9785 113.85 40.459 114.365 40.834C114.881 41.1973 115.479 41.4668 116.158 41.6426C116.85 41.8184 117.588 41.9062 118.373 41.9062C119.404 41.9062 120.266 41.7598 120.957 41.4668C121.66 41.1738 122.188 40.7637 122.539 40.2363C122.891 39.709 123.066 39.0996 123.066 38.4082ZM135.512 18V45H131.258V18H135.512ZM139.344 35.7012V35.2969C139.344 33.9258 139.543 32.6543 139.941 31.4824C140.34 30.2988 140.914 29.2734 141.664 28.4062C142.426 27.5273 143.352 26.8477 144.441 26.3672C145.543 25.875 146.785 25.6289 148.168 25.6289C149.562 25.6289 150.805 25.875 151.895 26.3672C152.996 26.8477 153.928 27.5273 154.689 28.4062C155.451 29.2734 156.031 30.2988 156.43 31.4824C156.828 32.6543 157.027 33.9258 157.027 35.2969V35.7012C157.027 37.0723 156.828 38.3438 156.43 39.5156C156.031 40.6875 155.451 41.7129 154.689 42.5918C153.928 43.459 153.002 44.1387 151.912 44.6309C150.822 45.1113 149.586 45.3516 148.203 45.3516C146.809 45.3516 145.561 45.1113 144.459 44.6309C143.369 44.1387 142.443 43.459 141.682 42.5918C140.92 41.7129 140.34 40.6875 139.941 39.5156C139.543 38.3438 139.344 37.0723 139.344 35.7012ZM143.58 35.2969V35.7012C143.58 36.5566 143.668 37.3652 143.844 38.127C144.02 38.8887 144.295 39.5566 144.67 40.1309C145.045 40.7051 145.525 41.1562 146.111 41.4844C146.697 41.8125 147.395 41.9766 148.203 41.9766C148.988 41.9766 149.668 41.8125 150.242 41.4844C150.828 41.1562 151.309 40.7051 151.684 40.1309C152.059 39.5566 152.334 38.8887 152.51 38.127C152.697 37.3652 152.791 36.5566 152.791 35.7012V35.2969C152.791 34.4531 152.697 33.6562 152.51 32.9062C152.334 32.1445 152.053 31.4707 151.666 30.8848C151.291 30.2988 150.811 29.8418 150.225 29.5137C149.65 29.1738 148.965 29.0039 148.168 29.0039C147.371 29.0039 146.68 29.1738 146.094 29.5137C145.52 29.8418 145.045 30.2988 144.67 30.8848C144.295 31.4707 144.02 32.1445 143.844 32.9062C143.668 33.6562 143.58 34.4531 143.58 35.2969ZM169.297 25.9805V29.0742H158.574V25.9805H169.297ZM161.668 21.3223H165.904V39.7441C165.904 40.3301 165.986 40.7812 166.15 41.0977C166.326 41.4023 166.566 41.6074 166.871 41.7129C167.176 41.8184 167.533 41.8711 167.943 41.8711C168.236 41.8711 168.518 41.8535 168.787 41.8184C169.057 41.7832 169.273 41.748 169.438 41.7129L169.455 44.9473C169.104 45.0527 168.693 45.1465 168.225 45.2285C167.768 45.3105 167.24 45.3516 166.643 45.3516C165.67 45.3516 164.809 45.1816 164.059 44.8418C163.309 44.4902 162.723 43.9219 162.301 43.1367C161.879 42.3516 161.668 41.3086 161.668 40.0078V21.3223ZM183.746 19.4062H187.684L195.084 39.1465L202.467 19.4062H206.404L196.631 45H193.502L183.746 19.4062ZM181.953 19.4062H185.697L186.348 36.4922V45H181.953V19.4062ZM204.453 19.4062H208.215V45H203.803V36.4922L204.453 19.4062ZM223.754 41.1855V32.1152C223.754 31.4355 223.631 30.8496 223.385 30.3574C223.139 29.8652 222.764 29.4844 222.26 29.2148C221.768 28.9453 221.146 28.8105 220.396 28.8105C219.705 28.8105 219.107 28.9277 218.604 29.1621C218.1 29.3965 217.707 29.7129 217.426 30.1113C217.145 30.5098 217.004 30.9609 217.004 31.4648H212.785C212.785 30.7148 212.967 29.9883 213.33 29.2852C213.693 28.582 214.221 27.9551 214.912 27.4043C215.604 26.8535 216.43 26.4199 217.391 26.1035C218.352 25.7871 219.43 25.6289 220.625 25.6289C222.055 25.6289 223.32 25.8691 224.422 26.3496C225.535 26.8301 226.408 27.5566 227.041 28.5293C227.686 29.4902 228.008 30.6973 228.008 32.1504V40.6055C228.008 41.4727 228.066 42.252 228.184 42.9434C228.312 43.623 228.494 44.2148 228.729 44.7188V45H224.387C224.188 44.543 224.029 43.9629 223.912 43.2598C223.807 42.5449 223.754 41.8535 223.754 41.1855ZM224.369 33.4336L224.404 36.0527H221.363C220.578 36.0527 219.887 36.1289 219.289 36.2812C218.691 36.4219 218.193 36.6328 217.795 36.9141C217.396 37.1953 217.098 37.5352 216.898 37.9336C216.699 38.332 216.6 38.7832 216.6 39.2871C216.6 39.791 216.717 40.2539 216.951 40.6758C217.186 41.0859 217.525 41.4082 217.971 41.6426C218.428 41.877 218.979 41.9941 219.623 41.9941C220.49 41.9941 221.246 41.8184 221.891 41.4668C222.547 41.1035 223.062 40.6641 223.438 40.1484C223.812 39.6211 224.012 39.123 224.035 38.6543L225.406 40.5352C225.266 41.0156 225.025 41.5312 224.686 42.082C224.346 42.6328 223.9 43.1602 223.35 43.6641C222.811 44.1562 222.16 44.5605 221.398 44.877C220.648 45.1934 219.781 45.3516 218.797 45.3516C217.555 45.3516 216.447 45.1055 215.475 44.6133C214.502 44.1094 213.74 43.4355 213.189 42.5918C212.639 41.7363 212.363 40.7695 212.363 39.6914C212.363 38.6836 212.551 37.793 212.926 37.0195C213.312 36.2344 213.875 35.5781 214.613 35.0508C215.363 34.5234 216.277 34.125 217.355 33.8555C218.434 33.5742 219.664 33.4336 221.047 33.4336H224.369ZM240.207 41.9766C240.898 41.9766 241.52 41.8418 242.07 41.5723C242.633 41.291 243.084 40.9043 243.424 40.4121C243.775 39.9199 243.969 39.3516 244.004 38.707H247.994C247.971 39.9375 247.607 41.0566 246.904 42.0645C246.201 43.0723 245.27 43.875 244.109 44.4727C242.949 45.0586 241.666 45.3516 240.26 45.3516C238.807 45.3516 237.541 45.1055 236.463 44.6133C235.385 44.1094 234.488 43.418 233.773 42.5391C233.059 41.6602 232.52 40.6465 232.156 39.498C231.805 38.3496 231.629 37.1191 231.629 35.8066V35.1914C231.629 33.8789 231.805 32.6484 232.156 31.5C232.52 30.3398 233.059 29.3203 233.773 28.4414C234.488 27.5625 235.385 26.877 236.463 26.3848C237.541 25.8809 238.801 25.6289 240.242 25.6289C241.766 25.6289 243.102 25.9336 244.25 26.543C245.398 27.1406 246.301 27.9785 246.957 29.0566C247.625 30.123 247.971 31.3652 247.994 32.7832H244.004C243.969 32.0801 243.793 31.4473 243.477 30.8848C243.172 30.3105 242.738 29.8535 242.176 29.5137C241.625 29.1738 240.963 29.0039 240.189 29.0039C239.334 29.0039 238.625 29.1797 238.062 29.5312C237.5 29.8711 237.061 30.3398 236.744 30.9375C236.428 31.5234 236.199 32.1855 236.059 32.9238C235.93 33.6504 235.865 34.4062 235.865 35.1914V35.8066C235.865 36.5918 235.93 37.3535 236.059 38.0918C236.188 38.8301 236.41 39.4922 236.727 40.0781C237.055 40.6523 237.5 41.1152 238.062 41.4668C238.625 41.8066 239.34 41.9766 240.207 41.9766ZM255.43 18V45H251.211V18H255.43ZM254.691 34.7871L253.32 34.7695C253.332 33.457 253.514 32.2441 253.865 31.1309C254.229 30.0176 254.732 29.0508 255.377 28.2305C256.033 27.3984 256.818 26.7598 257.732 26.3145C258.646 25.8574 259.66 25.6289 260.773 25.6289C261.711 25.6289 262.555 25.7578 263.305 26.0156C264.066 26.2734 264.723 26.6895 265.273 27.2637C265.824 27.8262 266.24 28.5645 266.521 29.4785C266.814 30.3809 266.961 31.4824 266.961 32.7832V45H262.707V32.748C262.707 31.834 262.572 31.1074 262.303 30.5684C262.045 30.0293 261.664 29.6426 261.16 29.4082C260.656 29.1621 260.041 29.0391 259.314 29.0391C258.553 29.0391 257.879 29.1914 257.293 29.4961C256.719 29.8008 256.238 30.2168 255.852 30.7441C255.465 31.2715 255.172 31.8809 254.973 32.5723C254.785 33.2637 254.691 34.002 254.691 34.7871ZM275.785 25.9805V45H271.531V25.9805H275.785ZM271.25 20.9883C271.25 20.3438 271.461 19.8105 271.883 19.3887C272.316 18.9551 272.914 18.7383 273.676 18.7383C274.426 18.7383 275.018 18.9551 275.451 19.3887C275.885 19.8105 276.102 20.3438 276.102 20.9883C276.102 21.6211 275.885 22.1484 275.451 22.5703C275.018 22.9922 274.426 23.2031 273.676 23.2031C272.914 23.2031 272.316 22.9922 271.883 22.5703C271.461 22.1484 271.25 21.6211 271.25 20.9883ZM284.627 30.041V45H280.391V25.9805H284.381L284.627 30.041ZM283.871 34.7871L282.5 34.7695C282.512 33.4219 282.699 32.1855 283.062 31.0605C283.438 29.9355 283.953 28.9688 284.609 28.1602C285.277 27.3516 286.074 26.7305 287 26.2969C287.926 25.8516 288.957 25.6289 290.094 25.6289C291.008 25.6289 291.834 25.7578 292.572 26.0156C293.322 26.2617 293.961 26.666 294.488 27.2285C295.027 27.791 295.438 28.5234 295.719 29.4258C296 30.3164 296.141 31.4121 296.141 32.7129V45H291.887V32.6953C291.887 31.7812 291.752 31.0605 291.482 30.5332C291.225 29.9941 290.844 29.6133 290.34 29.3906C289.848 29.1562 289.232 29.0391 288.494 29.0391C287.768 29.0391 287.117 29.1914 286.543 29.4961C285.969 29.8008 285.482 30.2168 285.084 30.7441C284.697 31.2715 284.398 31.8809 284.188 32.5723C283.977 33.2637 283.871 34.002 283.871 34.7871ZM308.85 45.3516C307.443 45.3516 306.172 45.123 305.035 44.666C303.91 44.1973 302.949 43.5469 302.152 42.7148C301.367 41.8828 300.764 40.9043 300.342 39.7793C299.92 38.6543 299.709 37.4414 299.709 36.1406V35.4375C299.709 33.9492 299.926 32.6016 300.359 31.3945C300.793 30.1875 301.396 29.1562 302.17 28.3008C302.943 27.4336 303.857 26.7715 304.912 26.3145C305.967 25.8574 307.109 25.6289 308.34 25.6289C309.699 25.6289 310.889 25.8574 311.908 26.3145C312.928 26.7715 313.771 27.416 314.439 28.248C315.119 29.0684 315.623 30.0469 315.951 31.1836C316.291 32.3203 316.461 33.5742 316.461 34.9453V36.7559H301.766V33.7148H312.277V33.3809C312.254 32.6191 312.102 31.9043 311.82 31.2363C311.551 30.5684 311.135 30.0293 310.572 29.6191C310.01 29.209 309.26 29.0039 308.322 29.0039C307.619 29.0039 306.992 29.1562 306.441 29.4609C305.902 29.7539 305.451 30.1816 305.088 30.7441C304.725 31.3066 304.443 31.9863 304.244 32.7832C304.057 33.5684 303.963 34.4531 303.963 35.4375V36.1406C303.963 36.9727 304.074 37.7461 304.297 38.4609C304.531 39.1641 304.871 39.7793 305.316 40.3066C305.762 40.834 306.301 41.25 306.934 41.5547C307.566 41.8477 308.287 41.9941 309.096 41.9941C310.115 41.9941 311.023 41.7891 311.82 41.3789C312.617 40.9688 313.309 40.3887 313.895 39.6387L316.127 41.8008C315.717 42.3984 315.184 42.9727 314.527 43.5234C313.871 44.0625 313.068 44.502 312.119 44.8418C311.182 45.1816 310.092 45.3516 308.85 45.3516Z" fill="#F0F0F0"/>
<path d="M1078.29 31.25C1079.03 31.2502 1079.75 31.4446 1080.38 31.8134C1081.02 32.1822 1081.54 32.7123 1081.91 33.35L1088.85 45.5C1089.31 46.2934 1089.49 47.2139 1089.37 48.1197C1089.25 49.0254 1088.83 49.8662 1088.18 50.5125L1068.84 69.8521C1068.6 70.094 1068.32 70.2859 1068 70.4168C1067.68 70.5477 1067.34 70.6151 1067 70.6151C1066.66 70.6151 1066.32 70.5477 1066.01 70.4168C1065.69 70.2859 1065.4 70.094 1065.16 69.8521L1045.82 50.5125C1045.18 49.8662 1044.76 49.0254 1044.64 48.1197C1044.52 47.2139 1044.7 46.2934 1045.15 45.5L1052.09 33.3479C1052.46 32.7109 1052.98 32.1814 1053.62 31.813C1054.25 31.4446 1054.97 31.2504 1055.71 31.25H1078.29ZM1073.25 37.5H1060.75C1060.22 37.5006 1059.71 37.7039 1059.32 38.0684C1058.94 38.433 1058.7 38.9312 1058.67 39.4612C1058.64 39.9913 1058.81 40.5133 1059.16 40.9205C1059.5 41.3277 1059.98 41.5894 1060.51 41.6521L1060.75 41.6667H1064.92V44.8854C1063.34 45.0312 1061.9 45.3375 1060.74 45.7729C1059.92 46.0812 1059.18 46.4729 1058.63 46.9625C1058.08 47.4521 1057.63 48.1229 1057.63 48.9583C1057.63 49.7937 1058.08 50.4667 1058.63 50.9542C1059.18 51.4437 1059.92 51.8354 1060.74 52.1417C1061.98 52.6062 1063.53 52.9271 1065.24 53.0583C1065.07 53.321 1064.97 53.6171 1064.93 53.925L1064.92 54.1667V58.3333C1064.92 58.8643 1065.12 59.3751 1065.49 59.7612C1065.85 60.1473 1066.35 60.3797 1066.88 60.4108C1067.41 60.4419 1067.93 60.2694 1068.34 59.9286C1068.74 59.5878 1069.01 59.1044 1069.07 58.5771L1069.08 58.3333V54.1667C1069.08 53.7746 1068.97 53.3904 1068.76 53.0583C1070.47 52.9271 1072.02 52.6083 1073.26 52.1417C1074.08 51.8354 1074.82 51.4437 1075.37 50.9542C1075.92 50.4646 1076.38 49.7937 1076.38 48.9583C1076.38 48.1229 1075.92 47.45 1075.37 46.9625C1074.82 46.4729 1074.08 46.0812 1073.26 45.775C1072.13 45.3686 1070.95 45.0946 1069.75 44.9583L1069.08 44.8854V41.6667H1073.25C1073.78 41.6661 1074.29 41.4628 1074.68 41.0982C1075.06 40.7337 1075.3 40.2355 1075.33 39.7054C1075.36 39.1753 1075.19 38.6534 1074.85 38.2462C1074.5 37.839 1074.02 37.5773 1073.49 37.5146L1073.25 37.5ZM1069.08 46.9792C1070.26 47.0826 1071.41 47.3325 1072.53 47.7229C1073.21 47.9812 1073.69 48.2625 1073.99 48.5208C1074.11 48.6182 1074.21 48.7457 1074.28 48.8917L1074.29 48.9583L1074.28 49.025C1074.21 49.171 1074.11 49.2985 1073.99 49.3958C1073.69 49.6542 1073.21 49.9375 1072.53 50.1917C1071.16 50.7042 1069.21 51.0417 1067 51.0417C1064.79 51.0417 1062.84 50.7042 1061.47 50.1917C1060.79 49.9354 1060.31 49.6542 1060.01 49.3958C1059.89 49.2985 1059.79 49.171 1059.72 49.025L1059.71 48.9583C1059.71 48.9312 1059.72 48.7812 1060.01 48.5208C1060.31 48.2604 1060.79 47.9792 1061.47 47.725C1062.39 47.3812 1063.57 47.1146 1064.92 46.9792C1064.94 47.515 1065.17 48.021 1065.56 48.3917C1065.95 48.7625 1066.46 48.9694 1067 48.9694C1067.54 48.9694 1068.05 48.7625 1068.44 48.3917C1068.83 48.021 1069.06 47.515 1069.08 46.9792Z" fill="#696969"/>
<path fill-rule="evenodd" clip-rule="evenodd" d="M61.0257 50.8677C61.0257 48.0268 60.865 45.18 60.5135 42.3749C60.2323 40.0999 59.8255 37.8486 59.2581 35.645C59.0723 34.9363 58.8764 34.2395 58.6505 33.5427C58.6252 33.4629 58.6017 33.3809 58.5781 33.2986C58.4749 32.939 58.3697 32.5723 58.1081 32.3397L57.9725 32.2265C57.7926 32.098 57.6081 32.0322 57.4183 32H47.9636L47.8714 32.0002L47.833 32H46.5962C46.2639 32.0573 45.9581 32.208 45.7171 32.566C45.5928 32.7562 45.5165 33.0071 45.4448 33.243L45.4448 33.243L45.4448 33.2431C45.4267 33.3026 45.4089 33.3612 45.3907 33.4176C45.2149 33.9596 45.0542 34.5075 44.8986 35.0674C44.3311 37.128 43.9193 39.2423 43.6231 41.3803C43.1761 44.519 42.9803 47.6993 42.9803 50.8855C42.9803 53.9348 43.156 56.996 43.6231 59.9917C43.9143 61.8677 44.316 63.7319 44.8986 65.5067C45.0291 65.9057 45.1747 66.2988 45.3254 66.6859C45.5363 67.21 45.923 67.8234 46.4402 67.9187C46.6333 67.9533 46.8449 67.9471 47.0501 67.9411H47.0501H47.0501C47.1277 67.9388 47.2044 67.9366 47.2788 67.9366L56.2619 67.9624C56.241 67.9477 56.3031 67.9501 56.4166 67.9545H56.4166C56.6396 67.9632 57.0609 67.9797 57.4402 67.8889C58.0679 67.74 58.4697 67.1742 58.7258 66.5132C59.104 65.5192 59.4212 64.4942 59.6749 63.446C60.2473 61.1412 60.5888 58.7649 60.7947 56.3826C60.9554 54.5602 61.0257 52.7139 61.0257 50.8677ZM80.0715 40.2918C80.6129 42.9475 80.8616 45.6864 80.9592 48.4193C80.9884 49.2689 80.9982 50.1185 81.0031 50.974C81.0031 53.4099 80.8128 55.8517 80.3836 58.2341C79.9885 60.4027 79.3886 62.5237 78.5351 64.4961C77.7498 66.3082 76.8816 67.9896 75.0184 67.9896L63.9862 67.9896C63.9086 67.9896 63.8292 67.9923 63.7489 67.9951H63.7489C63.4557 68.0052 63.1508 68.0158 62.879 67.8945C62.3522 67.6509 62.3961 67.039 62.601 66.4864C62.7131 66.1894 62.8156 65.8864 62.9131 65.5834C63.4838 63.8129 63.8788 61.9474 64.1617 60.0759C64.6154 57.0756 64.791 54.0159 64.791 50.9681C64.791 48.2648 64.6446 45.5675 64.3422 42.894C64.074 40.5829 63.6886 38.2837 63.1375 36.0438C63.0009 35.4854 62.8546 34.9269 62.6936 34.3803C62.655 34.2444 62.6068 34.1047 62.5578 33.9626C62.4461 33.6387 62.3301 33.3026 62.3132 32.9722C62.2696 32.1344 63.1448 32.1345 63.6441 32.1345L63.6545 32.1345H75.6476C75.9451 32.1345 76.2183 32.2058 76.4621 32.3306C77.4571 32.8296 78.0815 34.1902 78.5692 35.3071C79.252 36.8815 79.7252 38.5748 80.0715 40.2918ZM39.6462 56.4367C39.8413 58.8191 40.173 61.2075 40.729 63.5067C40.9144 64.2731 41.129 65.0217 41.3631 65.7584C41.3944 65.8509 41.4395 65.9639 41.4898 66.0898L41.4898 66.0898C41.7142 66.6511 42.0405 67.4674 41.6899 67.8557C41.5614 67.996 41.3444 67.9941 41.1667 67.9926L41.1143 67.9923C40.2799 68.0018 39.3833 67.9662 38.4905 67.9307H38.4904H38.4903C37.7029 67.8994 36.9185 67.8682 36.1825 67.8682L29.9846 67.9896L29.8517 67.9897C28.6873 67.9916 27.3604 67.9938 26.5947 66.7063C26.346 66.2904 26.1167 65.8507 25.8923 65.4051C25.0485 63.6763 24.4193 61.7988 23.9657 59.868C23.2829 56.9805 23 53.9684 23 50.9681C23 47.95 23.161 44.914 23.6341 41.9434C23.9414 40.0007 24.3803 38.0638 25.0534 36.2518C25.4534 35.1942 25.9265 34.1011 26.5606 33.2158C26.6235 33.1282 26.6939 33.0652 26.7659 33.0007L26.7659 33.0007L26.7659 33.0007C26.8111 32.9603 26.8569 32.9193 26.902 32.8712C27.0922 32.6692 27.3019 32.5207 27.5214 32.4138C28.1318 32.1163 28.7968 32.1243 29.444 32.1321L29.4441 32.1321C29.5467 32.1333 29.649 32.1345 29.7504 32.1345L40.8071 32.1373C40.8737 32.1373 40.9448 32.1325 41.0178 32.1276C41.2386 32.1128 41.4761 32.0969 41.6557 32.2086C42.1885 32.5331 41.8874 33.3712 41.6573 34.0118L41.6573 34.0118L41.6572 34.0121C41.6009 34.1689 41.5488 34.3138 41.5143 34.4365C41.2802 35.2386 41.0753 36.0525 40.89 36.8783C40.3437 39.2845 39.9779 41.7501 39.7438 44.2335C39.534 46.4674 39.4365 48.7251 39.4365 50.9708C39.4365 52.7948 39.4999 54.6187 39.6462 56.4367ZM69.0674 46.1664H73.9724L69.1806 55.6754C69.0483 55.9544 68.9908 56.1349 68.9908 56.3774C68.9908 56.9573 69.5273 57.8015 70.5793 57.8015C71.4433 57.8015 71.654 57.3986 72.1905 56.2772L76.944 46.1664C76.9627 46.1255 76.9813 46.0852 76.9997 46.0454C77.2068 45.5965 77.3847 45.2111 77.3847 44.8426C77.3847 44.3211 76.9823 43.3984 76.0051 43.3984H69.0674C68.0153 43.3984 67.6513 44.0804 67.6513 44.7824C67.6513 45.4644 68.0328 46.1664 69.0674 46.1664ZM48.5926 46.1664H53.4976L48.7075 55.6754C48.5734 55.9544 48.5159 56.1349 48.5159 56.3774C48.5159 56.9573 49.0524 57.8015 50.1062 57.8015C50.9684 57.8015 51.1792 57.3986 51.7157 56.2772L56.4691 46.1664C56.4879 46.1255 56.5065 46.0853 56.5248 46.0455C56.732 45.5965 56.9098 45.2111 56.9098 44.8426C56.9098 44.3211 56.5075 43.3984 55.5303 43.3984H48.5926C47.5388 43.3984 47.1747 44.0804 47.1747 44.7824C47.1747 45.4644 47.5579 46.1664 48.5926 46.1664ZM28.0498 46.1664H32.9548L28.1648 55.6754C28.0307 55.9544 27.9732 56.1349 27.9732 56.3774C27.9732 56.9573 28.5097 57.8015 29.5635 57.8015C30.4257 57.8015 30.6364 57.3986 31.1729 56.2772L35.9264 46.1664C35.9451 46.1255 35.9637 46.0853 35.9821 46.0455C36.1892 45.5965 36.3671 45.2111 36.3671 44.8426C36.3671 44.3211 35.9647 43.3984 34.9875 43.3984H28.0498C26.996 43.3984 26.632 44.0804 26.632 44.7824C26.632 45.4644 27.0152 46.1664 28.0498 46.1664Z" fill="#F0F0F0"/>
<defs>
<linearGradient id="paint0_linear_3183_8903" x1="8.62898e-06" y1="50" x2="1130" y2="49.9999" gradientUnits="userSpaceOnUse">
<stop stop-color="#D06C7D" stop-opacity="0.9"/>
<stop offset="0.4" stop-color="#7D6CD0" stop-opacity="0.9"/>
<stop offset="0.75" stop-color="#212121"/>
</linearGradient>
</defs>
</svg>
