<svg width="5600" height="600" viewBox="0 0 5600 600" fill="none" xmlns="http://www.w3.org/2000/svg">
<rect width="5600" height="600" rx="75" fill="#131313"/>
<path d="M1116.64 241.07V259H1052.39V241.07H1116.64ZM1059.37 138.141V259H1036.54V138.141H1059.37ZM1108.26 188.028V205.543H1052.39V188.028H1108.26ZM1116.39 138.141V156.153H1052.39V138.141H1116.39ZM1166.03 243.395C1169.13 243.395 1171.9 242.786 1174.33 241.568C1176.77 240.351 1178.7 238.635 1180.14 236.422C1181.64 234.208 1182.44 231.635 1182.55 228.702H1203.22C1203.11 234.789 1201.39 240.24 1198.07 245.055C1194.75 249.869 1190.32 253.688 1184.79 256.51C1179.31 259.277 1173.17 260.66 1166.36 260.66C1159.44 260.66 1153.41 259.498 1148.27 257.174C1143.12 254.85 1138.83 251.612 1135.4 247.462C1132.02 243.312 1129.48 238.497 1127.76 233.019C1126.1 227.54 1125.27 221.674 1125.27 215.421V212.765C1125.27 206.511 1126.1 200.646 1127.76 195.167C1129.48 189.688 1132.02 184.874 1135.4 180.724C1138.83 176.573 1143.12 173.336 1148.27 171.012C1153.41 168.688 1159.42 167.525 1166.28 167.525C1173.53 167.525 1179.89 168.937 1185.37 171.759C1190.9 174.581 1195.22 178.565 1198.32 183.712C1201.47 188.858 1203.11 194.918 1203.22 201.891H1182.55C1182.44 198.681 1181.72 195.803 1180.39 193.258C1179.06 190.712 1177.18 188.665 1174.75 187.115C1172.31 185.566 1169.35 184.791 1165.86 184.791C1162.16 184.791 1159.06 185.566 1156.57 187.115C1154.13 188.665 1152.22 190.795 1150.84 193.507C1149.51 196.163 1148.57 199.151 1148.02 202.472C1147.52 205.737 1147.27 209.168 1147.27 212.765V215.421C1147.27 219.073 1147.52 222.56 1148.02 225.88C1148.57 229.2 1149.51 232.188 1150.84 234.845C1152.22 237.446 1154.13 239.521 1156.57 241.07C1159.06 242.62 1162.21 243.395 1166.03 243.395ZM1278.17 169.186V186.534H1234.18V169.186H1278.17ZM1294.69 169.186V259H1272.78V169.186H1294.69ZM1228.7 169.186H1250.37L1247.96 214.01C1247.57 220.595 1246.88 226.378 1245.88 231.358C1244.89 236.284 1243.56 240.517 1241.9 244.059C1240.24 247.545 1238.22 250.395 1235.84 252.608C1233.46 254.822 1230.69 256.454 1227.54 257.506C1224.44 258.502 1220.95 259 1217.08 259H1210.36L1210.11 241.319L1213.26 241.07C1215.2 240.904 1216.86 240.379 1218.24 239.493C1219.68 238.608 1220.9 237.335 1221.89 235.675C1222.95 234.015 1223.8 231.884 1224.47 229.283C1225.19 226.627 1225.74 223.528 1226.13 219.986C1226.57 216.389 1226.88 212.239 1227.04 207.535L1228.7 169.186ZM1336.94 227.706L1369.65 169.186H1391.65V259H1369.65V200.396L1336.94 259H1314.95V169.186H1336.94V227.706ZM1514.17 169.186V186.534H1470.25V169.186H1514.17ZM1476.06 169.186V259H1454.07V169.186H1476.06ZM1530.77 169.186V259H1508.69V169.186H1530.77ZM1572.6 186.451V293.531H1550.61V169.186H1570.94L1572.6 186.451ZM1630.29 213.18V214.923C1630.29 221.453 1629.52 227.512 1627.97 233.102C1626.47 238.635 1624.26 243.478 1621.33 247.628C1618.4 251.723 1614.74 254.933 1610.37 257.257C1606.05 259.526 1601.07 260.66 1595.43 260.66C1589.9 260.66 1585.08 259.609 1580.99 257.506C1576.89 255.348 1573.43 252.304 1570.61 248.375C1567.79 244.446 1565.52 239.881 1563.8 234.679C1562.14 229.422 1560.9 223.694 1560.07 217.496V211.935C1560.9 205.349 1562.14 199.373 1563.8 194.005C1565.52 188.582 1567.79 183.906 1570.61 179.977C1573.43 175.992 1576.86 172.921 1580.9 170.763C1585 168.604 1589.79 167.525 1595.26 167.525C1600.96 167.525 1605.97 168.604 1610.29 170.763C1614.66 172.921 1618.34 176.02 1621.33 180.06C1624.32 184.099 1626.56 188.914 1628.05 194.503C1629.55 200.092 1630.29 206.318 1630.29 213.18ZM1608.3 214.923V213.18C1608.3 209.195 1607.94 205.515 1607.22 202.14C1606.5 198.709 1605.39 195.72 1603.9 193.175C1602.4 190.574 1600.47 188.554 1598.09 187.115C1595.71 185.676 1592.83 184.957 1589.45 184.957C1586.08 184.957 1583.17 185.51 1580.74 186.617C1578.3 187.724 1576.31 189.301 1574.76 191.349C1573.21 193.396 1571.99 195.831 1571.11 198.653C1570.28 201.42 1569.72 204.492 1569.45 207.867V221.646C1569.95 225.742 1570.91 229.422 1572.35 232.687C1573.79 235.951 1575.9 238.552 1578.66 240.489C1581.48 242.426 1585.14 243.395 1589.62 243.395C1592.99 243.395 1595.87 242.647 1598.25 241.153C1600.63 239.659 1602.57 237.612 1604.06 235.011C1605.56 232.354 1606.64 229.311 1607.3 225.88C1607.96 222.449 1608.3 218.797 1608.3 214.923ZM1668.48 227.706L1701.18 169.186H1723.18V259H1701.18V200.396L1668.48 259H1646.48V169.186H1668.48V227.706ZM1803.45 169.186V186.534H1759.45V169.186H1803.45ZM1819.97 169.186V259H1798.05V169.186H1819.97ZM1753.97 169.186H1775.64L1773.23 214.01C1772.85 220.595 1772.15 226.378 1771.16 231.358C1770.16 236.284 1768.83 240.517 1767.17 244.059C1765.51 247.545 1763.49 250.395 1761.11 252.608C1758.73 254.822 1755.97 256.454 1752.81 257.506C1749.71 258.502 1746.23 259 1742.35 259H1735.63L1735.38 241.319L1738.54 241.07C1740.47 240.904 1742.13 240.379 1743.52 239.493C1744.95 238.608 1746.17 237.335 1747.17 235.675C1748.22 234.015 1749.08 231.884 1749.74 229.283C1750.46 226.627 1751.01 223.528 1751.4 219.986C1751.84 216.389 1752.15 212.239 1752.31 207.535L1753.97 169.186ZM1836.15 215.006V213.263C1836.15 206.677 1837.09 200.618 1838.97 195.084C1840.86 189.495 1843.6 184.653 1847.19 180.558C1850.79 176.463 1855.19 173.281 1860.39 171.012C1865.59 168.688 1871.51 167.525 1878.15 167.525C1884.91 167.525 1890.88 168.688 1896.08 171.012C1901.34 173.281 1905.77 176.463 1909.37 180.558C1912.96 184.653 1915.7 189.495 1917.58 195.084C1919.46 200.618 1920.41 206.677 1920.41 213.263V215.006C1920.41 221.536 1919.46 227.595 1917.58 233.185C1915.7 238.718 1912.96 243.561 1909.37 247.711C1905.77 251.806 1901.37 254.988 1896.17 257.257C1890.97 259.526 1885.02 260.66 1878.32 260.66C1871.68 260.66 1865.73 259.526 1860.47 257.257C1855.22 254.988 1850.79 251.806 1847.19 247.711C1843.6 243.561 1840.86 238.718 1838.97 233.185C1837.09 227.595 1836.15 221.536 1836.15 215.006ZM1858.07 213.263V215.006C1858.07 218.935 1858.45 222.615 1859.23 226.046C1860 229.477 1861.19 232.493 1862.8 235.094C1864.4 237.695 1866.48 239.742 1869.02 241.236C1871.62 242.675 1874.72 243.395 1878.32 243.395C1881.86 243.395 1884.91 242.675 1887.45 241.236C1890 239.742 1892.07 237.695 1893.68 235.094C1895.34 232.493 1896.55 229.477 1897.33 226.046C1898.1 222.615 1898.49 218.935 1898.49 215.006V213.263C1898.49 209.389 1898.1 205.764 1897.33 202.389C1896.55 198.958 1895.34 195.942 1893.68 193.341C1892.07 190.685 1889.97 188.609 1887.37 187.115C1884.82 185.566 1881.75 184.791 1878.15 184.791C1874.61 184.791 1871.57 185.566 1869.02 187.115C1866.48 188.609 1864.4 190.685 1862.8 193.341C1861.19 195.942 1860 198.958 1859.23 202.389C1858.45 205.764 1858.07 209.389 1858.07 213.263ZM1965.15 223.971L1928.62 169.186H1955.68L1975.69 203.8H1993.04L1990.3 223.971H1965.15ZM1976.1 220.484L1954.36 259H1927.71L1958.84 209.029L1976.1 220.484ZM2006.82 169.186V259H1984.9V169.186H2006.82ZM2063.34 169.186L2026.74 223.971H2001.59L1998.85 203.8H2016.2L2036.2 169.186H2063.34ZM2037.53 259L2015.78 220.484L2033.63 209.029L2064.67 259H2037.53ZM2115.47 260.66C2108.67 260.66 2102.55 259.553 2097.13 257.34C2091.71 255.126 2087.08 252.055 2083.27 248.126C2079.5 244.142 2076.6 239.521 2074.55 234.264C2072.56 228.951 2071.56 223.251 2071.56 217.164V213.844C2071.56 206.926 2072.56 200.646 2074.55 195.001C2076.54 189.301 2079.37 184.404 2083.02 180.309C2086.67 176.214 2091.04 173.059 2096.13 170.846C2101.22 168.632 2106.84 167.525 2112.98 167.525C2119.35 167.525 2124.96 168.604 2129.83 170.763C2134.7 172.866 2138.77 175.854 2142.04 179.728C2145.3 183.601 2147.76 188.25 2149.42 193.673C2151.08 199.041 2151.91 204.99 2151.91 211.52V220.733H2081.52V205.626H2130.33V203.966C2130.22 200.479 2129.56 197.298 2128.34 194.42C2127.12 191.487 2125.24 189.163 2122.7 187.447C2120.15 185.676 2116.86 184.791 2112.82 184.791C2109.55 184.791 2106.7 185.51 2104.27 186.949C2101.89 188.333 2099.9 190.325 2098.29 192.926C2096.74 195.471 2095.58 198.515 2094.8 202.057C2094.03 205.598 2093.64 209.527 2093.64 213.844V217.164C2093.64 220.927 2094.14 224.413 2095.14 227.623C2096.19 230.833 2097.71 233.627 2099.7 236.007C2101.75 238.331 2104.18 240.157 2107.01 241.485C2109.88 242.758 2113.15 243.395 2116.8 243.395C2121.39 243.395 2125.55 242.509 2129.25 240.738C2133.02 238.912 2136.28 236.228 2139.05 232.687L2150.09 244.142C2148.21 246.909 2145.66 249.565 2142.45 252.11C2139.3 254.656 2135.48 256.731 2131 258.336C2126.51 259.885 2121.34 260.66 2115.47 260.66ZM2227.95 206.041V223.224H2181.88V206.041H2227.95ZM2188.77 169.186V259H2166.77V169.186H2188.77ZM2243.31 169.186V259H2221.23V169.186H2243.31ZM2285.39 227.706L2318.1 169.186H2340.09V259H2318.1V200.396L2285.39 259H2263.39V169.186H2285.39V227.706ZM2400.36 260.66C2393.55 260.66 2387.43 259.553 2382.01 257.34C2376.59 255.126 2371.97 252.055 2368.15 248.126C2364.39 244.142 2361.48 239.521 2359.43 234.264C2357.44 228.951 2356.45 223.251 2356.45 217.164V213.844C2356.45 206.926 2357.44 200.646 2359.43 195.001C2361.43 189.301 2364.25 184.404 2367.9 180.309C2371.55 176.214 2375.92 173.059 2381.02 170.846C2386.11 168.632 2391.72 167.525 2397.87 167.525C2404.23 167.525 2409.85 168.604 2414.72 170.763C2419.59 172.866 2423.65 175.854 2426.92 179.728C2430.18 183.601 2432.65 188.25 2434.31 193.673C2435.97 199.041 2436.8 204.99 2436.8 211.52V220.733H2366.41V205.626H2415.21V203.966C2415.1 200.479 2414.44 197.298 2413.22 194.42C2412.01 191.487 2410.12 189.163 2407.58 187.447C2405.03 185.676 2401.74 184.791 2397.7 184.791C2394.44 184.791 2391.59 185.51 2389.15 186.949C2386.77 188.333 2384.78 190.325 2383.17 192.926C2381.62 195.471 2380.46 198.515 2379.69 202.057C2378.91 205.598 2378.53 209.527 2378.53 213.844V217.164C2378.53 220.927 2379.02 224.413 2380.02 227.623C2381.07 230.833 2382.59 233.627 2384.58 236.007C2386.63 238.331 2389.07 240.157 2391.89 241.485C2394.77 242.758 2398.03 243.395 2401.68 243.395C2406.28 243.395 2410.43 242.509 2414.14 240.738C2417.9 238.912 2421.16 236.228 2423.93 232.687L2434.97 244.142C2433.09 246.909 2430.54 249.565 2427.33 252.11C2424.18 254.656 2420.36 256.731 2415.88 258.336C2411.4 259.885 2406.22 260.66 2400.36 260.66ZM2555.17 206.041V223.224H2509.1V206.041H2555.17ZM2515.99 169.186V259H2493.99V169.186H2515.99ZM2570.52 169.186V259H2548.44V169.186H2570.52ZM2630.79 260.66C2623.98 260.66 2617.86 259.553 2612.44 257.34C2607.02 255.126 2602.4 252.055 2598.58 248.126C2594.82 244.142 2591.91 239.521 2589.86 234.264C2587.87 228.951 2586.88 223.251 2586.88 217.164V213.844C2586.88 206.926 2587.87 200.646 2589.86 195.001C2591.86 189.301 2594.68 184.404 2598.33 180.309C2601.98 176.214 2606.35 173.059 2611.45 170.846C2616.54 168.632 2622.15 167.525 2628.3 167.525C2634.66 167.525 2640.28 168.604 2645.15 170.763C2650.02 172.866 2654.08 175.854 2657.35 179.728C2660.61 183.601 2663.08 188.25 2664.74 193.673C2666.4 199.041 2667.23 204.99 2667.23 211.52V220.733H2596.84V205.626H2645.64V203.966C2645.53 200.479 2644.87 197.298 2643.65 194.42C2642.43 191.487 2640.55 189.163 2638.01 187.447C2635.46 185.676 2632.17 184.791 2628.13 184.791C2624.86 184.791 2622.01 185.51 2619.58 186.949C2617.2 188.333 2615.21 190.325 2613.6 192.926C2612.05 195.471 2610.89 198.515 2610.12 202.057C2609.34 205.598 2608.96 209.527 2608.96 213.844V217.164C2608.96 220.927 2609.45 224.413 2610.45 227.623C2611.5 230.833 2613.02 233.627 2615.01 236.007C2617.06 238.331 2619.5 240.157 2622.32 241.485C2625.2 242.758 2628.46 243.395 2632.11 243.395C2636.71 243.395 2640.86 242.509 2644.57 240.738C2648.33 238.912 2651.59 236.228 2654.36 232.687L2665.4 244.142C2663.52 246.909 2660.97 249.565 2657.76 252.11C2654.61 254.656 2650.79 256.731 2646.31 258.336C2641.83 259.885 2636.65 260.66 2630.79 260.66ZM2761.11 243.395C2764.21 243.395 2766.97 242.786 2769.41 241.568C2771.84 240.351 2773.78 238.635 2775.22 236.422C2776.71 234.208 2777.52 231.635 2777.63 228.702H2798.3C2798.19 234.789 2796.47 240.24 2793.15 245.055C2789.83 249.869 2785.4 253.688 2779.87 256.51C2774.39 259.277 2768.25 260.66 2761.44 260.66C2754.52 260.66 2748.49 259.498 2743.34 257.174C2738.2 254.85 2733.91 251.612 2730.48 247.462C2727.1 243.312 2724.56 238.497 2722.84 233.019C2721.18 227.54 2720.35 221.674 2720.35 215.421V212.765C2720.35 206.511 2721.18 200.646 2722.84 195.167C2724.56 189.688 2727.1 184.874 2730.48 180.724C2733.91 176.573 2738.2 173.336 2743.34 171.012C2748.49 168.688 2754.5 167.525 2761.36 167.525C2768.61 167.525 2774.97 168.937 2780.45 171.759C2785.98 174.581 2790.3 178.565 2793.4 183.712C2796.55 188.858 2798.19 194.918 2798.3 201.891H2777.63C2777.52 198.681 2776.8 195.803 2775.47 193.258C2774.14 190.712 2772.26 188.665 2769.82 187.115C2767.39 185.566 2764.43 184.791 2760.94 184.791C2757.23 184.791 2754.14 185.566 2751.65 187.115C2749.21 188.665 2747.3 190.795 2745.92 193.507C2744.59 196.163 2743.65 199.151 2743.1 202.472C2742.6 205.737 2742.35 209.168 2742.35 212.765V215.421C2742.35 219.073 2742.6 222.56 2743.1 225.88C2743.65 229.2 2744.59 232.188 2745.92 234.845C2747.3 237.446 2749.21 239.521 2751.65 241.07C2754.14 242.62 2757.29 243.395 2761.11 243.395ZM2857.07 220.982H2828.59L2828.43 206.124H2851.84C2855.32 206.124 2858.17 205.764 2860.39 205.045C2862.6 204.326 2864.23 203.246 2865.28 201.808C2866.39 200.369 2866.94 198.626 2866.94 196.578C2866.94 194.807 2866.61 193.285 2865.95 192.013C2865.28 190.685 2864.29 189.605 2862.96 188.775C2861.69 187.945 2860.05 187.337 2858.06 186.949C2856.12 186.507 2853.86 186.285 2851.25 186.285H2836.4V259H2814.4V169.186H2851.25C2857.07 169.186 2862.29 169.711 2866.94 170.763C2871.59 171.759 2875.55 173.281 2878.81 175.328C2882.08 177.376 2884.57 179.977 2886.28 183.131C2888.06 186.23 2888.94 189.882 2888.94 194.088C2888.94 196.855 2888.33 199.456 2887.11 201.891C2885.9 204.326 2884.1 206.484 2881.72 208.365C2879.34 210.247 2876.41 211.796 2872.92 213.014C2869.43 214.176 2865.45 214.895 2860.97 215.172L2857.07 220.982ZM2857.07 259H2822.7L2830.83 241.9H2857.07C2860.28 241.9 2862.93 241.513 2865.03 240.738C2867.14 239.908 2868.69 238.718 2869.68 237.169C2870.73 235.619 2871.26 233.738 2871.26 231.524C2871.26 229.366 2870.76 227.512 2869.77 225.963C2868.82 224.358 2867.3 223.141 2865.2 222.311C2863.15 221.425 2860.44 220.982 2857.07 220.982H2834.4L2834.57 206.124H2860.88L2866.69 212.018C2872.67 212.405 2877.62 213.622 2881.55 215.67C2885.48 217.662 2888.41 220.208 2890.35 223.307C2892.29 226.35 2893.26 229.698 2893.26 233.351C2893.26 237.612 2892.45 241.347 2890.85 244.557C2889.24 247.766 2886.89 250.45 2883.79 252.608C2880.69 254.711 2876.9 256.316 2872.42 257.423C2867.94 258.474 2862.82 259 2857.07 259ZM2949.54 260.66C2942.73 260.66 2936.61 259.553 2931.19 257.34C2925.77 255.126 2921.15 252.055 2917.33 248.126C2913.57 244.142 2910.66 239.521 2908.61 234.264C2906.62 228.951 2905.62 223.251 2905.62 217.164V213.844C2905.62 206.926 2906.62 200.646 2908.61 195.001C2910.61 189.301 2913.43 184.404 2917.08 180.309C2920.73 176.214 2925.1 173.059 2930.2 170.846C2935.29 168.632 2940.9 167.525 2947.05 167.525C2953.41 167.525 2959.03 168.604 2963.9 170.763C2968.77 172.866 2972.83 175.854 2976.1 179.728C2979.36 183.601 2981.83 188.25 2983.49 193.673C2985.15 199.041 2985.98 204.99 2985.98 211.52V220.733H2915.59V205.626H2964.39V203.966C2964.28 200.479 2963.62 197.298 2962.4 194.42C2961.18 191.487 2959.3 189.163 2956.76 187.447C2954.21 185.676 2950.92 184.791 2946.88 184.791C2943.61 184.791 2940.76 185.51 2938.33 186.949C2935.95 188.333 2933.96 190.325 2932.35 192.926C2930.8 195.471 2929.64 198.515 2928.87 202.057C2928.09 205.598 2927.71 209.527 2927.71 213.844V217.164C2927.71 220.927 2928.2 224.413 2929.2 227.623C2930.25 230.833 2931.77 233.627 2933.76 236.007C2935.81 238.331 2938.25 240.157 2941.07 241.485C2943.95 242.758 2947.21 243.395 2950.86 243.395C2955.46 243.395 2959.61 242.509 2963.32 240.738C2967.08 238.912 2970.34 236.228 2973.11 232.687L2984.15 244.142C2982.27 246.909 2979.72 249.565 2976.51 252.11C2973.36 254.656 2969.54 256.731 2965.06 258.336C2960.58 259.885 2955.4 260.66 2949.54 260.66ZM3022.58 186.451V293.531H3000.59V169.186H3020.92L3022.58 186.451ZM3080.27 213.18V214.923C3080.27 221.453 3079.5 227.512 3077.95 233.102C3076.46 238.635 3074.24 243.478 3071.31 247.628C3068.38 251.723 3064.72 254.933 3060.35 257.257C3056.04 259.526 3051.05 260.66 3045.41 260.66C3039.88 260.66 3035.06 259.609 3030.97 257.506C3026.87 255.348 3023.41 252.304 3020.59 248.375C3017.77 244.446 3015.5 239.881 3013.78 234.679C3012.12 229.422 3010.88 223.694 3010.05 217.496V211.935C3010.88 205.349 3012.12 199.373 3013.78 194.005C3015.5 188.582 3017.77 183.906 3020.59 179.977C3023.41 175.992 3026.84 172.921 3030.88 170.763C3034.98 168.604 3039.77 167.525 3045.24 167.525C3050.94 167.525 3055.95 168.604 3060.27 170.763C3064.64 172.921 3068.32 176.02 3071.31 180.06C3074.3 184.099 3076.54 188.914 3078.03 194.503C3079.53 200.092 3080.27 206.318 3080.27 213.18ZM3058.28 214.923V213.18C3058.28 209.195 3057.92 205.515 3057.2 202.14C3056.48 198.709 3055.37 195.72 3053.88 193.175C3052.38 190.574 3050.45 188.554 3048.07 187.115C3045.69 185.676 3042.81 184.957 3039.43 184.957C3036.06 184.957 3033.15 185.51 3030.72 186.617C3028.28 187.724 3026.29 189.301 3024.74 191.349C3023.19 193.396 3021.97 195.831 3021.09 198.653C3020.26 201.42 3019.71 204.492 3019.43 207.867V221.646C3019.93 225.742 3020.9 229.422 3022.33 232.687C3023.77 235.951 3025.88 238.552 3028.64 240.489C3031.46 242.426 3035.12 243.395 3039.6 243.395C3042.98 243.395 3045.85 242.647 3048.23 241.153C3050.61 239.659 3052.55 237.612 3054.04 235.011C3055.54 232.354 3056.62 229.311 3057.28 225.88C3057.94 222.449 3058.28 218.797 3058.28 214.923ZM3157.64 206.041V223.224H3111.57V206.041H3157.64ZM3118.46 169.186V259H3096.46V169.186H3118.46ZM3172.99 169.186V259H3150.91V169.186H3172.99ZM3219.23 249.039L3243.3 169.186H3266.79L3230.77 272.613C3229.94 274.827 3228.86 277.234 3227.53 279.835C3226.26 282.436 3224.54 284.898 3222.38 287.223C3220.22 289.602 3217.51 291.539 3214.25 293.033C3211.04 294.527 3207.14 295.274 3202.54 295.274C3200.55 295.274 3198.78 295.136 3197.23 294.859C3195.68 294.583 3194.05 294.223 3192.33 293.78V277.345C3192.89 277.4 3193.52 277.428 3194.24 277.428C3195.02 277.483 3195.68 277.511 3196.24 277.511C3199.44 277.511 3202.1 277.123 3204.2 276.349C3206.31 275.629 3207.99 274.439 3209.27 272.779C3210.6 271.174 3211.7 269.072 3212.59 266.471L3219.23 249.039ZM3207.36 169.186L3227.7 235.343L3231.26 258.502L3216.16 261.241L3183.7 169.186H3207.36ZM3334.28 169.186V186.534H3290.28V169.186H3334.28ZM3350.8 169.186V259H3328.88V169.186H3350.8ZM3284.8 169.186H3306.47L3304.06 214.01C3303.68 220.595 3302.98 226.378 3301.99 231.358C3300.99 236.284 3299.66 240.517 3298 244.059C3296.34 247.545 3294.32 250.395 3291.94 252.608C3289.56 254.822 3286.8 256.454 3283.64 257.506C3280.54 258.502 3277.06 259 3273.18 259H3266.46L3266.21 241.319L3269.37 241.07C3271.3 240.904 3272.96 240.379 3274.35 239.493C3275.78 238.608 3277 237.335 3278 235.675C3279.05 234.015 3279.91 231.884 3280.57 229.283C3281.29 226.627 3281.84 223.528 3282.23 219.986C3282.67 216.389 3282.98 212.239 3283.14 207.535L3284.8 169.186ZM3366.98 215.006V213.263C3366.98 206.677 3367.92 200.618 3369.8 195.084C3371.69 189.495 3374.43 184.653 3378.02 180.558C3381.62 176.463 3386.02 173.281 3391.22 171.012C3396.42 168.688 3402.34 167.525 3408.98 167.525C3415.74 167.525 3421.71 168.688 3426.91 171.012C3432.17 173.281 3436.6 176.463 3440.2 180.558C3443.79 184.653 3446.53 189.495 3448.41 195.084C3450.29 200.618 3451.24 206.677 3451.24 213.263V215.006C3451.24 221.536 3450.29 227.595 3448.41 233.185C3446.53 238.718 3443.79 243.561 3440.2 247.711C3436.6 251.806 3432.2 254.988 3427 257.257C3421.8 259.526 3415.85 260.66 3409.15 260.66C3402.51 260.66 3396.56 259.526 3391.3 257.257C3386.05 254.988 3381.62 251.806 3378.02 247.711C3374.43 243.561 3371.69 238.718 3369.8 233.185C3367.92 227.595 3366.98 221.536 3366.98 215.006ZM3388.9 213.263V215.006C3388.9 218.935 3389.28 222.615 3390.06 226.046C3390.83 229.477 3392.02 232.493 3393.63 235.094C3395.23 237.695 3397.31 239.742 3399.85 241.236C3402.45 242.675 3405.55 243.395 3409.15 243.395C3412.69 243.395 3415.74 242.675 3418.28 241.236C3420.83 239.742 3422.9 237.695 3424.51 235.094C3426.17 232.493 3427.38 229.477 3428.16 226.046C3428.93 222.615 3429.32 218.935 3429.32 215.006V213.263C3429.32 209.389 3428.93 205.764 3428.16 202.389C3427.38 198.958 3426.17 195.942 3424.51 193.341C3422.9 190.685 3420.8 188.609 3418.2 187.115C3415.65 185.566 3412.58 184.791 3408.98 184.791C3405.44 184.791 3402.4 185.566 3399.85 187.115C3397.31 188.609 3395.23 190.685 3393.63 193.341C3392.02 195.942 3390.83 198.958 3390.06 202.389C3389.28 205.764 3388.9 209.389 3388.9 213.263ZM3504.03 243.395C3507.13 243.395 3509.89 242.786 3512.33 241.568C3514.76 240.351 3516.7 238.635 3518.14 236.422C3519.63 234.208 3520.44 231.635 3520.55 228.702H3541.22C3541.11 234.789 3539.39 240.24 3536.07 245.055C3532.75 249.869 3528.32 253.688 3522.79 256.51C3517.31 259.277 3511.17 260.66 3504.36 260.66C3497.44 260.66 3491.41 259.498 3486.26 257.174C3481.12 254.85 3476.83 251.612 3473.4 247.462C3470.02 243.312 3467.48 238.497 3465.76 233.019C3464.1 227.54 3463.27 221.674 3463.27 215.421V212.765C3463.27 206.511 3464.1 200.646 3465.76 195.167C3467.48 189.688 3470.02 184.874 3473.4 180.724C3476.83 176.573 3481.12 173.336 3486.26 171.012C3491.41 168.688 3497.42 167.525 3504.28 167.525C3511.53 167.525 3517.89 168.937 3523.37 171.759C3528.9 174.581 3533.22 178.565 3536.32 183.712C3539.47 188.858 3541.11 194.918 3541.22 201.891H3520.55C3520.44 198.681 3519.72 195.803 3518.39 193.258C3517.06 190.712 3515.18 188.665 3512.74 187.115C3510.31 185.566 3507.35 184.791 3503.86 184.791C3500.15 184.791 3497.06 185.566 3494.57 187.115C3492.13 188.665 3490.22 190.795 3488.84 193.507C3487.51 196.163 3486.57 199.151 3486.02 202.472C3485.52 205.737 3485.27 209.168 3485.27 212.765V215.421C3485.27 219.073 3485.52 222.56 3486.02 225.88C3486.57 229.2 3487.51 232.188 3488.84 234.845C3490.22 237.446 3492.13 239.521 3494.57 241.07C3497.06 242.62 3500.21 243.395 3504.03 243.395ZM3571.43 196.827H3597.66C3605.63 196.827 3612.41 198.155 3618 200.812C3623.64 203.412 3627.93 207.065 3630.86 211.769C3633.85 216.417 3635.35 221.812 3635.35 227.955C3635.35 232.382 3634.49 236.505 3632.77 240.323C3631.11 244.086 3628.68 247.379 3625.47 250.201C3622.26 252.968 3618.3 255.126 3613.6 256.676C3608.95 258.225 3603.64 259 3597.66 259H3557.32V169.186H3579.32V241.817H3597.66C3601.48 241.817 3604.52 241.181 3606.79 239.908C3609.12 238.58 3610.78 236.892 3611.77 234.845C3612.82 232.742 3613.35 230.501 3613.35 228.121C3613.35 225.686 3612.82 223.417 3611.77 221.314C3610.78 219.156 3609.12 217.413 3606.79 216.085C3604.52 214.757 3601.48 214.093 3597.66 214.093H3571.43V196.827ZM3670.79 239.244L3670.62 254.435C3670.62 260.356 3669.16 266.36 3666.23 272.447C3663.29 278.535 3659.5 283.57 3654.85 287.555L3643.23 281.163C3644.73 278.673 3646.11 276.155 3647.38 273.609C3648.71 271.064 3649.76 268.297 3650.54 265.309C3651.37 262.376 3651.78 259.083 3651.78 255.431V239.244H3670.79ZM1095.14 368.186V385.534H1051.23V368.186H1095.14ZM1057.04 368.186V458H1035.04V368.186H1057.04ZM1111.74 368.186V458H1089.66V368.186H1111.74ZM1127.76 414.006V412.263C1127.76 405.677 1128.7 399.618 1130.59 394.084C1132.47 388.495 1135.21 383.653 1138.8 379.558C1142.4 375.463 1146.8 372.281 1152 370.012C1157.2 367.688 1163.12 366.525 1169.77 366.525C1176.52 366.525 1182.49 367.688 1187.7 370.012C1192.95 372.281 1197.38 375.463 1200.98 379.558C1204.57 383.653 1207.31 388.495 1209.19 394.084C1211.08 399.618 1212.02 405.677 1212.02 412.263V414.006C1212.02 420.536 1211.08 426.595 1209.19 432.185C1207.31 437.718 1204.57 442.561 1200.98 446.711C1197.38 450.806 1192.98 453.988 1187.78 456.257C1182.58 458.526 1176.63 459.66 1169.93 459.66C1163.29 459.66 1157.34 458.526 1152.08 456.257C1146.83 453.988 1142.4 450.806 1138.8 446.711C1135.21 442.561 1132.47 437.718 1130.59 432.185C1128.7 426.595 1127.76 420.536 1127.76 414.006ZM1149.68 412.263V414.006C1149.68 417.935 1150.07 421.615 1150.84 425.046C1151.61 428.477 1152.8 431.493 1154.41 434.094C1156.01 436.695 1158.09 438.742 1160.63 440.236C1163.24 441.675 1166.33 442.395 1169.93 442.395C1173.47 442.395 1176.52 441.675 1179.06 440.236C1181.61 438.742 1183.68 436.695 1185.29 434.094C1186.95 431.493 1188.17 428.477 1188.94 425.046C1189.72 421.615 1190.1 417.935 1190.1 414.006V412.263C1190.1 408.389 1189.72 404.764 1188.94 401.389C1188.17 397.958 1186.95 394.942 1185.29 392.341C1183.68 389.685 1181.58 387.609 1178.98 386.115C1176.43 384.566 1173.36 383.791 1169.77 383.791C1166.22 383.791 1163.18 384.566 1160.63 386.115C1158.09 387.609 1156.01 389.685 1154.41 392.341C1152.8 394.942 1151.61 397.958 1150.84 401.389C1150.07 404.764 1149.68 408.389 1149.68 412.263ZM1256.76 422.971L1220.23 368.186H1247.29L1267.3 402.8H1284.65L1281.91 422.971H1256.76ZM1267.71 419.484L1245.97 458H1219.32L1250.45 408.029L1267.71 419.484ZM1298.43 368.186V458H1276.51V368.186H1298.43ZM1354.96 368.186L1318.35 422.971H1293.2L1290.46 402.8H1307.81L1327.81 368.186H1354.96ZM1329.14 458L1307.39 419.484L1325.24 408.029L1356.28 458H1329.14ZM1417.88 438.908V397.487C1417.88 394.444 1417.35 391.815 1416.3 389.602C1415.25 387.388 1413.64 385.673 1411.48 384.455C1409.33 383.238 1406.59 382.629 1403.27 382.629C1400.33 382.629 1397.76 383.127 1395.55 384.123C1393.39 385.119 1391.73 386.53 1390.57 388.356C1389.4 390.127 1388.82 392.175 1388.82 394.499H1366.83C1366.83 390.791 1367.71 387.277 1369.48 383.957C1371.25 380.581 1373.77 377.593 1377.04 374.992C1380.36 372.336 1384.31 370.261 1388.91 368.767C1393.55 367.272 1398.76 366.525 1404.51 366.525C1411.32 366.525 1417.38 367.688 1422.69 370.012C1428.06 372.281 1432.26 375.712 1435.31 380.305C1438.41 384.898 1439.96 390.681 1439.96 397.653V436.833C1439.96 441.315 1440.23 445.161 1440.79 448.371C1441.39 451.525 1442.28 454.265 1443.44 456.589V458H1421.11C1420.06 455.731 1419.26 452.854 1418.71 449.367C1418.15 445.826 1417.88 442.339 1417.88 438.908ZM1420.95 403.298L1421.11 416.33H1407.25C1403.82 416.33 1400.8 416.69 1398.2 417.409C1395.6 418.073 1393.47 419.069 1391.81 420.397C1390.15 421.67 1388.91 423.22 1388.08 425.046C1387.25 426.817 1386.83 428.837 1386.83 431.105C1386.83 433.319 1387.33 435.311 1388.33 437.082C1389.38 438.853 1390.87 440.264 1392.81 441.315C1394.8 442.312 1397.12 442.81 1399.78 442.81C1403.65 442.81 1407.03 442.035 1409.91 440.485C1412.78 438.881 1415.03 436.944 1416.63 434.675C1418.24 432.406 1419.09 430.248 1419.2 428.2L1425.51 437.663C1424.74 439.932 1423.58 442.339 1422.03 444.885C1420.48 447.43 1418.48 449.81 1416.05 452.023C1413.61 454.237 1410.68 456.063 1407.25 457.502C1403.82 458.941 1399.84 459.66 1395.3 459.66C1389.49 459.66 1384.29 458.498 1379.69 456.174C1375.1 453.85 1371.47 450.668 1368.82 446.628C1366.16 442.588 1364.83 437.995 1364.83 432.849C1364.83 428.09 1365.72 423.884 1367.49 420.231C1369.26 416.579 1371.89 413.508 1375.38 411.018C1378.86 408.472 1383.18 406.563 1388.33 405.29C1393.53 403.962 1399.48 403.298 1406.17 403.298H1420.95ZM1520.06 368.186V385.534H1476.06V368.186H1520.06ZM1536.58 368.186V458H1514.66V368.186H1536.58ZM1470.59 368.186H1492.25L1489.84 413.01C1489.46 419.595 1488.76 425.378 1487.77 430.358C1486.77 435.284 1485.44 439.517 1483.78 443.059C1482.12 446.545 1480.1 449.395 1477.72 451.608C1475.35 453.822 1472.58 455.454 1469.42 456.506C1466.32 457.502 1462.84 458 1458.96 458H1452.24L1451.99 440.319L1455.15 440.07C1457.08 439.904 1458.74 439.379 1460.13 438.493C1461.57 437.608 1462.78 436.335 1463.78 434.675C1464.83 433.015 1465.69 430.884 1466.35 428.283C1467.07 425.627 1467.63 422.528 1468.01 418.986C1468.46 415.389 1468.76 411.239 1468.93 406.535L1470.59 368.186ZM1582.98 448.039L1607.05 368.186H1630.54L1594.52 471.613C1593.69 473.827 1592.61 476.234 1591.28 478.835C1590.01 481.436 1588.29 483.898 1586.13 486.223C1583.97 488.602 1581.26 490.539 1578 492.033C1574.79 493.527 1570.89 494.274 1566.29 494.274C1564.3 494.274 1562.53 494.136 1560.98 493.859C1559.43 493.583 1557.8 493.223 1556.08 492.78V476.345C1556.64 476.4 1557.27 476.428 1557.99 476.428C1558.77 476.483 1559.43 476.511 1559.99 476.511C1563.19 476.511 1565.85 476.123 1567.95 475.349C1570.06 474.629 1571.74 473.439 1573.02 471.779C1574.35 470.174 1575.45 468.072 1576.34 465.471L1582.98 448.039ZM1571.11 368.186L1591.45 434.343L1595.01 457.502L1579.91 460.241L1547.45 368.186H1571.11ZM1663.33 426.706L1696.04 368.186H1718.03V458H1696.04V399.396L1663.33 458H1641.33V368.186H1663.33V426.706ZM1691.97 332.907H1707.91C1707.91 337.556 1706.77 341.678 1704.5 345.275C1702.23 348.872 1699 351.695 1694.79 353.742C1690.64 355.734 1685.71 356.73 1680.01 356.73C1671.44 356.73 1664.63 354.517 1659.59 350.09C1654.56 345.663 1652.04 339.935 1652.04 332.907H1667.98C1667.98 335.84 1668.89 338.469 1670.72 340.793C1672.54 343.117 1675.64 344.279 1680.01 344.279C1684.39 344.279 1687.46 343.117 1689.23 340.793C1691.05 338.469 1691.97 335.84 1691.97 332.907ZM1774.81 442.395C1777.91 442.395 1780.68 441.786 1783.11 440.568C1785.55 439.351 1787.48 437.635 1788.92 435.422C1790.42 433.208 1791.22 430.635 1791.33 427.702H1812C1811.89 433.789 1810.17 439.24 1806.85 444.055C1803.53 448.869 1799.1 452.688 1793.57 455.51C1788.09 458.277 1781.95 459.66 1775.14 459.66C1768.22 459.66 1762.19 458.498 1757.05 456.174C1751.9 453.85 1747.61 450.612 1744.18 446.462C1740.8 442.312 1738.26 437.497 1736.54 432.019C1734.88 426.54 1734.05 420.674 1734.05 414.421V411.765C1734.05 405.511 1734.88 399.646 1736.54 394.167C1738.26 388.688 1740.8 383.874 1744.18 379.724C1747.61 375.573 1751.9 372.336 1757.05 370.012C1762.19 367.688 1768.2 366.525 1775.06 366.525C1782.31 366.525 1788.67 367.937 1794.15 370.759C1799.68 373.581 1804 377.565 1807.1 382.712C1810.25 387.858 1811.89 393.918 1812 400.891H1791.33C1791.22 397.681 1790.5 394.803 1789.17 392.258C1787.84 389.712 1785.96 387.665 1783.53 386.115C1781.09 384.566 1778.13 383.791 1774.64 383.791C1770.94 383.791 1767.84 384.566 1765.35 386.115C1762.91 387.665 1761 389.795 1759.62 392.507C1758.29 395.163 1757.35 398.151 1756.8 401.472C1756.3 404.737 1756.05 408.168 1756.05 411.765V414.421C1756.05 418.073 1756.3 421.56 1756.8 424.88C1757.35 428.2 1758.29 431.188 1759.62 433.845C1761 436.446 1762.91 438.521 1765.35 440.07C1767.84 441.62 1770.99 442.395 1774.81 442.395ZM1870.19 368.186V458H1848.19V368.186H1870.19ZM1899.4 368.186V385.285H1819.47V368.186H1899.4ZM1960.42 438.908V397.487C1960.42 394.444 1959.89 391.815 1958.84 389.602C1957.79 387.388 1956.18 385.673 1954.02 384.455C1951.87 383.238 1949.13 382.629 1945.81 382.629C1942.87 382.629 1940.3 383.127 1938.09 384.123C1935.93 385.119 1934.27 386.53 1933.11 388.356C1931.94 390.127 1931.36 392.175 1931.36 394.499H1909.37C1909.37 390.791 1910.25 387.277 1912.02 383.957C1913.79 380.581 1916.31 377.593 1919.58 374.992C1922.9 372.336 1926.85 370.261 1931.45 368.767C1936.09 367.272 1941.3 366.525 1947.05 366.525C1953.86 366.525 1959.92 367.688 1965.23 370.012C1970.6 372.281 1974.8 375.712 1977.85 380.305C1980.95 384.898 1982.5 390.681 1982.5 397.653V436.833C1982.5 441.315 1982.77 445.161 1983.33 448.371C1983.93 451.525 1984.82 454.265 1985.98 456.589V458H1963.65C1962.6 455.731 1961.8 452.854 1961.25 449.367C1960.69 445.826 1960.42 442.339 1960.42 438.908ZM1963.49 403.298L1963.65 416.33H1949.79C1946.36 416.33 1943.34 416.69 1940.74 417.409C1938.14 418.073 1936.01 419.069 1934.35 420.397C1932.69 421.67 1931.45 423.22 1930.62 425.046C1929.79 426.817 1929.37 428.837 1929.37 431.105C1929.37 433.319 1929.87 435.311 1930.86 437.082C1931.92 438.853 1933.41 440.264 1935.35 441.315C1937.34 442.312 1939.66 442.81 1942.32 442.81C1946.19 442.81 1949.57 442.035 1952.45 440.485C1955.32 438.881 1957.57 436.944 1959.17 434.675C1960.77 432.406 1961.63 430.248 1961.74 428.2L1968.05 437.663C1967.28 439.932 1966.11 442.339 1964.57 444.885C1963.02 447.43 1961.02 449.81 1958.59 452.023C1956.15 454.237 1953.22 456.063 1949.79 457.502C1946.36 458.941 1942.37 459.66 1937.84 459.66C1932.03 459.66 1926.82 458.498 1922.23 456.174C1917.64 453.85 1914.01 450.668 1911.36 446.628C1908.7 442.588 1907.37 437.995 1907.37 432.849C1907.37 428.09 1908.26 423.884 1910.03 420.231C1911.8 416.579 1914.43 413.508 1917.92 411.018C1921.4 408.472 1925.72 406.563 1930.86 405.29C1936.07 403.962 1942.01 403.298 1948.71 403.298H1963.49ZM2081.44 442.395C2084.54 442.395 2087.31 441.786 2089.74 440.568C2092.18 439.351 2094.11 437.635 2095.55 435.422C2097.05 433.208 2097.85 430.635 2097.96 427.702H2118.63C2118.52 433.789 2116.8 439.24 2113.48 444.055C2110.16 448.869 2105.73 452.688 2100.2 455.51C2094.72 458.277 2088.58 459.66 2081.77 459.66C2074.86 459.66 2068.82 458.498 2063.68 456.174C2058.53 453.85 2054.24 450.612 2050.81 446.462C2047.43 442.312 2044.89 437.497 2043.17 432.019C2041.51 426.54 2040.68 420.674 2040.68 414.421V411.765C2040.68 405.511 2041.51 399.646 2043.17 394.167C2044.89 388.688 2047.43 383.874 2050.81 379.724C2054.24 375.573 2058.53 372.336 2063.68 370.012C2068.82 367.688 2074.83 366.525 2081.69 366.525C2088.94 366.525 2095.3 367.937 2100.78 370.759C2106.32 373.581 2110.63 377.565 2113.73 382.712C2116.88 387.858 2118.52 393.918 2118.63 400.891H2097.96C2097.85 397.681 2097.13 394.803 2095.8 392.258C2094.47 389.712 2092.59 387.665 2090.16 386.115C2087.72 384.566 2084.76 383.791 2081.27 383.791C2077.57 383.791 2074.47 384.566 2071.98 386.115C2069.54 387.665 2067.63 389.795 2066.25 392.507C2064.92 395.163 2063.98 398.151 2063.43 401.472C2062.93 404.737 2062.68 408.168 2062.68 411.765V414.421C2062.68 418.073 2062.93 421.56 2063.43 424.88C2063.98 428.2 2064.92 431.188 2066.25 433.845C2067.63 436.446 2069.54 438.521 2071.98 440.07C2074.47 441.62 2077.62 442.395 2081.44 442.395ZM2177.4 419.982H2148.93L2148.76 405.124H2172.17C2175.65 405.124 2178.5 404.764 2180.72 404.045C2182.93 403.326 2184.56 402.246 2185.62 400.808C2186.72 399.369 2187.28 397.626 2187.28 395.578C2187.28 393.807 2186.94 392.285 2186.28 391.013C2185.62 389.685 2184.62 388.605 2183.29 387.775C2182.02 386.945 2180.39 386.337 2178.39 385.949C2176.46 385.507 2174.19 385.285 2171.59 385.285H2156.73V458H2134.73V368.186H2171.59C2177.4 368.186 2182.63 368.711 2187.28 369.763C2191.92 370.759 2195.88 372.281 2199.15 374.328C2202.41 376.376 2204.9 378.977 2206.62 382.131C2208.39 385.23 2209.27 388.882 2209.27 393.088C2209.27 395.855 2208.66 398.456 2207.45 400.891C2206.23 403.326 2204.43 405.484 2202.05 407.365C2199.67 409.247 2196.74 410.796 2193.25 412.014C2189.77 413.176 2185.78 413.895 2181.3 414.172L2177.4 419.982ZM2177.4 458H2143.03L2151.17 440.9H2177.4C2180.61 440.9 2183.26 440.513 2185.37 439.738C2187.47 438.908 2189.02 437.718 2190.01 436.169C2191.07 434.619 2191.59 432.738 2191.59 430.524C2191.59 428.366 2191.09 426.512 2190.1 424.963C2189.16 423.358 2187.64 422.141 2185.53 421.311C2183.48 420.425 2180.77 419.982 2177.4 419.982H2154.74L2154.9 405.124H2181.22L2187.03 411.018C2193 411.405 2197.96 412.622 2201.88 414.67C2205.81 416.662 2208.75 419.208 2210.68 422.307C2212.62 425.35 2213.59 428.698 2213.59 432.351C2213.59 436.612 2212.79 440.347 2211.18 443.557C2209.58 446.766 2207.22 449.45 2204.13 451.608C2201.03 453.711 2197.24 455.316 2192.75 456.423C2188.27 457.474 2183.15 458 2177.4 458ZM2269.87 459.66C2263.06 459.66 2256.95 458.553 2251.52 456.34C2246.1 454.126 2241.48 451.055 2237.66 447.126C2233.9 443.142 2230.99 438.521 2228.95 433.264C2226.95 427.951 2225.96 422.251 2225.96 416.164V412.844C2225.96 405.926 2226.95 399.646 2228.95 394.001C2230.94 388.301 2233.76 383.404 2237.41 379.309C2241.06 375.214 2245.44 372.059 2250.53 369.846C2255.62 367.632 2261.24 366.525 2267.38 366.525C2273.74 366.525 2279.36 367.604 2284.23 369.763C2289.1 371.866 2293.17 374.854 2296.43 378.728C2299.7 382.601 2302.16 387.25 2303.82 392.673C2305.48 398.041 2306.31 403.99 2306.31 410.52V419.733H2235.92V404.626H2284.73V402.966C2284.62 399.479 2283.95 396.298 2282.73 393.42C2281.52 390.487 2279.64 388.163 2277.09 386.447C2274.54 384.676 2271.25 383.791 2267.21 383.791C2263.95 383.791 2261.1 384.51 2258.66 385.949C2256.28 387.333 2254.29 389.325 2252.69 391.926C2251.14 394.471 2249.97 397.515 2249.2 401.057C2248.42 404.598 2248.04 408.527 2248.04 412.844V416.164C2248.04 419.927 2248.54 423.413 2249.53 426.623C2250.58 429.833 2252.1 432.627 2254.1 435.007C2256.14 437.331 2258.58 439.157 2261.4 440.485C2264.28 441.758 2267.54 442.395 2271.2 442.395C2275.79 442.395 2279.94 441.509 2283.65 439.738C2287.41 437.912 2290.68 435.228 2293.44 431.687L2304.48 443.142C2302.6 445.909 2300.06 448.565 2296.85 451.11C2293.69 453.656 2289.87 455.731 2285.39 457.336C2280.91 458.885 2275.73 459.66 2269.87 459.66ZM2342.92 385.451V492.531H2320.92V368.186H2341.25L2342.92 385.451ZM2400.61 412.18V413.923C2400.61 420.453 2399.83 426.512 2398.28 432.102C2396.79 437.635 2394.57 442.478 2391.64 446.628C2388.71 450.723 2385.06 453.933 2380.68 456.257C2376.37 458.526 2371.39 459.66 2365.74 459.66C2360.21 459.66 2355.39 458.609 2351.3 456.506C2347.2 454.348 2343.75 451.304 2340.92 447.375C2338.1 443.446 2335.83 438.881 2334.12 433.679C2332.46 428.422 2331.21 422.694 2330.38 416.496V410.935C2331.21 404.349 2332.46 398.373 2334.12 393.005C2335.83 387.582 2338.1 382.906 2340.92 378.977C2343.75 374.992 2347.18 371.921 2351.22 369.763C2355.31 367.604 2360.1 366.525 2365.58 366.525C2371.28 366.525 2376.28 367.604 2380.6 369.763C2384.97 371.921 2388.65 375.02 2391.64 379.06C2394.63 383.099 2396.87 387.914 2398.36 393.503C2399.86 399.092 2400.61 405.318 2400.61 412.18ZM2378.61 413.923V412.18C2378.61 408.195 2378.25 404.515 2377.53 401.14C2376.81 397.709 2375.7 394.72 2374.21 392.175C2372.71 389.574 2370.78 387.554 2368.4 386.115C2366.02 384.676 2363.14 383.957 2359.77 383.957C2356.39 383.957 2353.48 384.51 2351.05 385.617C2348.61 386.724 2346.62 388.301 2345.07 390.349C2343.52 392.396 2342.31 394.831 2341.42 397.653C2340.59 400.42 2340.04 403.492 2339.76 406.867V420.646C2340.26 424.742 2341.23 428.422 2342.67 431.687C2344.1 434.951 2346.21 437.552 2348.97 439.489C2351.8 441.426 2355.45 442.395 2359.93 442.395C2363.31 442.395 2366.18 441.647 2368.56 440.153C2370.94 438.659 2372.88 436.612 2374.38 434.011C2375.87 431.354 2376.95 428.311 2377.61 424.88C2378.28 421.449 2378.61 417.797 2378.61 413.923ZM2477.97 405.041V422.224H2431.9V405.041H2477.97ZM2438.79 368.186V458H2416.79V368.186H2438.79ZM2493.33 368.186V458H2471.25V368.186H2493.33ZM2535.41 426.706L2568.12 368.186H2590.11V458H2568.12V399.396L2535.41 458H2513.41V368.186H2535.41V426.706ZM2653.61 368.186V458H2631.62V368.186H2653.61ZM2682.83 368.186V385.285H2602.9V368.186H2682.83ZM2730.06 459.66C2723.26 459.66 2717.14 458.553 2711.72 456.34C2706.3 454.126 2701.67 451.055 2697.86 447.126C2694.09 443.142 2691.19 438.521 2689.14 433.264C2687.15 427.951 2686.15 422.251 2686.15 416.164V412.844C2686.15 405.926 2687.15 399.646 2689.14 394.001C2691.13 388.301 2693.96 383.404 2697.61 379.309C2701.26 375.214 2705.63 372.059 2710.72 369.846C2715.81 367.632 2721.43 366.525 2727.57 366.525C2733.94 366.525 2739.55 367.604 2744.42 369.763C2749.29 371.866 2753.36 374.854 2756.63 378.728C2759.89 382.601 2762.35 387.25 2764.01 392.673C2765.67 398.041 2766.5 403.99 2766.5 410.52V419.733H2696.11V404.626H2744.92V402.966C2744.81 399.479 2744.15 396.298 2742.93 393.42C2741.71 390.487 2739.83 388.163 2737.29 386.447C2734.74 384.676 2731.45 383.791 2727.41 383.791C2724.14 383.791 2721.29 384.51 2718.86 385.949C2716.48 387.333 2714.49 389.325 2712.88 391.926C2711.33 394.471 2710.17 397.515 2709.39 401.057C2708.62 404.598 2708.23 408.527 2708.23 412.844V416.164C2708.23 419.927 2708.73 423.413 2709.73 426.623C2710.78 429.833 2712.3 432.627 2714.29 435.007C2716.34 437.331 2718.77 439.157 2721.6 440.485C2724.47 441.758 2727.74 442.395 2731.39 442.395C2735.98 442.395 2740.14 441.509 2743.84 439.738C2747.61 437.912 2750.87 435.228 2753.64 431.687L2764.68 443.142C2762.8 445.909 2760.25 448.565 2757.04 451.11C2753.89 453.656 2750.07 455.731 2745.59 457.336C2741.1 458.885 2735.93 459.66 2730.06 459.66ZM2863.87 459.66C2857.07 459.66 2850.95 458.553 2845.53 456.34C2840.1 454.126 2835.48 451.055 2831.67 447.126C2827.9 443.142 2825 438.521 2822.95 433.264C2820.96 427.951 2819.96 422.251 2819.96 416.164V412.844C2819.96 405.926 2820.96 399.646 2822.95 394.001C2824.94 388.301 2827.76 383.404 2831.42 379.309C2835.07 375.214 2839.44 372.059 2844.53 369.846C2849.62 367.632 2855.24 366.525 2861.38 366.525C2867.75 366.525 2873.36 367.604 2878.23 369.763C2883.1 371.866 2887.17 374.854 2890.43 378.728C2893.7 382.601 2896.16 387.25 2897.82 392.673C2899.48 398.041 2900.31 403.99 2900.31 410.52V419.733H2829.92V404.626H2878.73V402.966C2878.62 399.479 2877.96 396.298 2876.74 393.42C2875.52 390.487 2873.64 388.163 2871.09 386.447C2868.55 384.676 2865.26 383.791 2861.22 383.791C2857.95 383.791 2855.1 384.51 2852.67 385.949C2850.29 387.333 2848.29 389.325 2846.69 391.926C2845.14 394.471 2843.98 397.515 2843.2 401.057C2842.43 404.598 2842.04 408.527 2842.04 412.844V416.164C2842.04 419.927 2842.54 423.413 2843.54 426.623C2844.59 429.833 2846.11 432.627 2848.1 435.007C2850.15 437.331 2852.58 439.157 2855.41 440.485C2858.28 441.758 2861.55 442.395 2865.2 442.395C2869.79 442.395 2873.94 441.509 2877.65 439.738C2881.41 437.912 2884.68 435.228 2887.45 431.687L2898.49 443.142C2896.6 445.909 2894.06 448.565 2890.85 451.11C2887.7 453.656 2883.88 455.731 2879.39 457.336C2874.91 458.885 2869.74 459.66 2863.87 459.66ZM2975.35 368.186V385.534H2937.08V458H2915.17V368.186H2975.35ZM2980.83 414.006V412.263C2980.83 405.677 2981.77 399.618 2983.65 394.084C2985.53 388.495 2988.27 383.653 2991.87 379.558C2995.47 375.463 2999.87 372.281 3005.07 370.012C3010.27 367.688 3016.19 366.525 3022.83 366.525C3029.58 366.525 3035.56 367.688 3040.76 370.012C3046.02 372.281 3050.45 375.463 3054.04 379.558C3057.64 383.653 3060.38 388.495 3062.26 394.084C3064.14 399.618 3065.08 405.677 3065.08 412.263V414.006C3065.08 420.536 3064.14 426.595 3062.26 432.185C3060.38 437.718 3057.64 442.561 3054.04 446.711C3050.45 450.806 3046.05 453.988 3040.84 456.257C3035.64 458.526 3029.69 459.66 3023 459.66C3016.36 459.66 3010.41 458.526 3005.15 456.257C2999.89 453.988 2995.47 450.806 2991.87 446.711C2988.27 442.561 2985.53 437.718 2983.65 432.185C2981.77 426.595 2980.83 420.536 2980.83 414.006ZM3002.74 412.263V414.006C3002.74 417.935 3003.13 421.615 3003.91 425.046C3004.68 428.477 3005.87 431.493 3007.48 434.094C3009.08 436.695 3011.16 438.742 3013.7 440.236C3016.3 441.675 3019.4 442.395 3023 442.395C3026.54 442.395 3029.58 441.675 3032.13 440.236C3034.67 438.742 3036.75 436.695 3038.35 434.094C3040.01 431.493 3041.23 428.477 3042.01 425.046C3042.78 421.615 3043.17 417.935 3043.17 414.006V412.263C3043.17 408.389 3042.78 404.764 3042.01 401.389C3041.23 397.958 3040.01 394.942 3038.35 392.341C3036.75 389.685 3034.65 387.609 3032.05 386.115C3029.5 384.566 3026.43 383.791 3022.83 383.791C3019.29 383.791 3016.25 384.566 3013.7 386.115C3011.16 387.609 3009.08 389.685 3007.48 392.341C3005.87 394.942 3004.68 397.958 3003.91 401.389C3003.13 404.764 3002.74 408.389 3002.74 412.263ZM3160.21 442.395C3163.31 442.395 3166.08 441.786 3168.51 440.568C3170.95 439.351 3172.88 437.635 3174.32 435.422C3175.82 433.208 3176.62 430.635 3176.73 427.702H3197.4C3197.29 433.789 3195.57 439.24 3192.25 444.055C3188.93 448.869 3184.5 452.688 3178.97 455.51C3173.49 458.277 3167.35 459.66 3160.54 459.66C3153.62 459.66 3147.59 458.498 3142.45 456.174C3137.3 453.85 3133.01 450.612 3129.58 446.462C3126.2 442.312 3123.66 437.497 3121.94 432.019C3120.28 426.54 3119.45 420.674 3119.45 414.421V411.765C3119.45 405.511 3120.28 399.646 3121.94 394.167C3123.66 388.688 3126.2 383.874 3129.58 379.724C3133.01 375.573 3137.3 372.336 3142.45 370.012C3147.59 367.688 3153.6 366.525 3160.46 366.525C3167.71 366.525 3174.07 367.937 3179.55 370.759C3185.08 373.581 3189.4 377.565 3192.5 382.712C3195.65 387.858 3197.29 393.918 3197.4 400.891H3176.73C3176.62 397.681 3175.9 394.803 3174.57 392.258C3173.24 389.712 3171.36 387.665 3168.93 386.115C3166.49 384.566 3163.53 383.791 3160.04 383.791C3156.34 383.791 3153.24 384.566 3150.75 386.115C3148.31 387.665 3146.4 389.795 3145.02 392.507C3143.69 395.163 3142.75 398.151 3142.2 401.472C3141.7 404.737 3141.45 408.168 3141.45 411.765V414.421C3141.45 418.073 3141.7 421.56 3142.2 424.88C3142.75 428.2 3143.69 431.188 3145.02 433.845C3146.4 436.446 3148.31 438.521 3150.75 440.07C3153.24 441.62 3156.39 442.395 3160.21 442.395ZM3261.48 438.908V397.487C3261.48 394.444 3260.95 391.815 3259.9 389.602C3258.85 387.388 3257.25 385.673 3255.09 384.455C3252.93 383.238 3250.19 382.629 3246.87 382.629C3243.94 382.629 3241.36 383.127 3239.15 384.123C3236.99 385.119 3235.33 386.53 3234.17 388.356C3233.01 390.127 3232.43 392.175 3232.43 394.499H3210.43C3210.43 390.791 3211.32 387.277 3213.09 383.957C3214.86 380.581 3217.37 377.593 3220.64 374.992C3223.96 372.336 3227.92 370.261 3232.51 368.767C3237.16 367.272 3242.36 366.525 3248.12 366.525C3254.92 366.525 3260.98 367.688 3266.29 370.012C3271.66 372.281 3275.87 375.712 3278.91 380.305C3282.01 384.898 3283.56 390.681 3283.56 397.653V436.833C3283.56 441.315 3283.84 445.161 3284.39 448.371C3285 451.525 3285.88 454.265 3287.05 456.589V458H3264.72C3263.67 455.731 3262.86 452.854 3262.31 449.367C3261.76 445.826 3261.48 442.339 3261.48 438.908ZM3264.55 403.298L3264.72 416.33H3250.85C3247.42 416.33 3244.41 416.69 3241.81 417.409C3239.21 418.073 3237.08 419.069 3235.42 420.397C3233.75 421.67 3232.51 423.22 3231.68 425.046C3230.85 426.817 3230.43 428.837 3230.43 431.105C3230.43 433.319 3230.93 435.311 3231.93 437.082C3232.98 438.853 3234.47 440.264 3236.41 441.315C3238.4 442.312 3240.73 442.81 3243.38 442.81C3247.26 442.81 3250.63 442.035 3253.51 440.485C3256.39 438.881 3258.63 436.944 3260.23 434.675C3261.84 432.406 3262.7 430.248 3262.81 428.2L3269.12 437.663C3268.34 439.932 3267.18 442.339 3265.63 444.885C3264.08 447.43 3262.09 449.81 3259.65 452.023C3257.22 454.237 3254.29 456.063 3250.85 457.502C3247.42 458.941 3243.44 459.66 3238.9 459.66C3233.09 459.66 3227.89 458.498 3223.3 456.174C3218.7 453.85 3215.08 450.668 3212.42 446.628C3209.77 442.588 3208.44 437.995 3208.44 432.849C3208.44 428.09 3209.32 423.884 3211.09 420.231C3212.86 416.579 3215.49 413.508 3218.98 411.018C3222.47 408.472 3226.78 406.563 3231.93 405.29C3237.13 403.962 3243.08 403.298 3249.78 403.298H3264.55ZM3357.19 432.102L3382.42 368.186H3400.77L3364.66 458H3349.8L3313.77 368.186H3332.2L3357.19 432.102ZM3326.81 368.186V458H3304.81V368.186H3326.81ZM3387.98 458V368.186H3409.98V458H3387.98ZM3427.91 414.006V412.263C3427.91 405.677 3428.85 399.618 3430.73 394.084C3432.61 388.495 3435.35 383.653 3438.95 379.558C3442.55 375.463 3446.95 372.281 3452.15 370.012C3457.35 367.688 3463.27 366.525 3469.91 366.525C3476.66 366.525 3482.64 367.688 3487.84 370.012C3493.1 372.281 3497.53 375.463 3501.12 379.558C3504.72 383.653 3507.46 388.495 3509.34 394.084C3511.22 399.618 3512.16 405.677 3512.16 412.263V414.006C3512.16 420.536 3511.22 426.595 3509.34 432.185C3507.46 437.718 3504.72 442.561 3501.12 446.711C3497.53 450.806 3493.13 453.988 3487.92 456.257C3482.72 458.526 3476.77 459.66 3470.08 459.66C3463.44 459.66 3457.49 458.526 3452.23 456.257C3446.97 453.988 3442.55 450.806 3438.95 446.711C3435.35 442.561 3432.61 437.718 3430.73 432.185C3428.85 426.595 3427.91 420.536 3427.91 414.006ZM3449.82 412.263V414.006C3449.82 417.935 3450.21 421.615 3450.99 425.046C3451.76 428.477 3452.95 431.493 3454.56 434.094C3456.16 436.695 3458.24 438.742 3460.78 440.236C3463.38 441.675 3466.48 442.395 3470.08 442.395C3473.62 442.395 3476.66 441.675 3479.21 440.236C3481.75 438.742 3483.83 436.695 3485.43 434.094C3487.09 431.493 3488.31 428.477 3489.09 425.046C3489.86 421.615 3490.25 417.935 3490.25 414.006V412.263C3490.25 408.389 3489.86 404.764 3489.09 401.389C3488.31 397.958 3487.09 394.942 3485.43 392.341C3483.83 389.685 3481.73 387.609 3479.13 386.115C3476.58 384.566 3473.51 383.791 3469.91 383.791C3466.37 383.791 3463.33 384.566 3460.78 386.115C3458.24 387.609 3456.16 389.685 3454.56 392.341C3452.95 394.942 3451.76 397.958 3450.99 401.389C3450.21 404.764 3449.82 408.389 3449.82 412.263ZM3564.96 442.395C3568.06 442.395 3570.82 441.786 3573.26 440.568C3575.69 439.351 3577.63 437.635 3579.07 435.422C3580.56 433.208 3581.36 430.635 3581.47 427.702H3602.14C3602.03 433.789 3600.32 439.24 3597 444.055C3593.68 448.869 3589.25 452.688 3583.72 455.51C3578.24 458.277 3572.09 459.66 3565.29 459.66C3558.37 459.66 3552.34 458.498 3547.19 456.174C3542.05 453.85 3537.76 450.612 3534.33 446.462C3530.95 442.312 3528.4 437.497 3526.69 432.019C3525.03 426.54 3524.2 420.674 3524.2 414.421V411.765C3524.2 405.511 3525.03 399.646 3526.69 394.167C3528.4 388.688 3530.95 383.874 3534.33 379.724C3537.76 375.573 3542.05 372.336 3547.19 370.012C3552.34 367.688 3558.34 366.525 3565.21 366.525C3572.45 366.525 3578.82 367.937 3584.3 370.759C3589.83 373.581 3594.15 377.565 3597.25 382.712C3600.4 387.858 3602.03 393.918 3602.14 400.891H3581.47C3581.36 397.681 3580.64 394.803 3579.32 392.258C3577.99 389.712 3576.11 387.665 3573.67 386.115C3571.24 384.566 3568.28 383.791 3564.79 383.791C3561.08 383.791 3557.98 384.566 3555.49 386.115C3553.06 387.665 3551.15 389.795 3549.77 392.507C3548.44 395.163 3547.5 398.151 3546.94 401.472C3546.45 404.737 3546.2 408.168 3546.2 411.765V414.421C3546.2 418.073 3546.45 421.56 3546.94 424.88C3547.5 428.2 3548.44 431.188 3549.77 433.845C3551.15 436.446 3553.06 438.521 3555.49 440.07C3557.98 441.62 3561.14 442.395 3564.96 442.395ZM3660.33 368.186V458H3638.33V368.186H3660.33ZM3689.55 368.186V385.285H3609.61V368.186H3689.55ZM3695.53 414.006V412.263C3695.53 405.677 3696.47 399.618 3698.35 394.084C3700.23 388.495 3702.97 383.653 3706.57 379.558C3710.16 375.463 3714.56 372.281 3719.77 370.012C3724.97 367.688 3730.89 366.525 3737.53 366.525C3744.28 366.525 3750.26 367.688 3755.46 370.012C3760.72 372.281 3765.14 375.463 3768.74 379.558C3772.34 383.653 3775.08 388.495 3776.96 394.084C3778.84 399.618 3779.78 405.677 3779.78 412.263V414.006C3779.78 420.536 3778.84 426.595 3776.96 432.185C3775.08 437.718 3772.34 442.561 3768.74 446.711C3765.14 450.806 3760.74 453.988 3755.54 456.257C3750.34 458.526 3744.39 459.66 3737.7 459.66C3731.05 459.66 3725.11 458.526 3719.85 456.257C3714.59 453.988 3710.16 450.806 3706.57 446.711C3702.97 442.561 3700.23 437.718 3698.35 432.185C3696.47 426.595 3695.53 420.536 3695.53 414.006ZM3717.44 412.263V414.006C3717.44 417.935 3717.83 421.615 3718.6 425.046C3719.38 428.477 3720.57 431.493 3722.17 434.094C3723.78 436.695 3725.85 438.742 3728.4 440.236C3731 441.675 3734.1 442.395 3737.7 442.395C3741.24 442.395 3744.28 441.675 3746.83 440.236C3749.37 438.742 3751.45 436.695 3753.05 434.094C3754.71 431.493 3755.93 428.477 3756.7 425.046C3757.48 421.615 3757.87 417.935 3757.87 414.006V412.263C3757.87 408.389 3757.48 404.764 3756.7 401.389C3755.93 397.958 3754.71 394.942 3753.05 392.341C3751.45 389.685 3749.34 387.609 3746.74 386.115C3744.2 384.566 3741.13 383.791 3737.53 383.791C3733.99 383.791 3730.94 384.566 3728.4 386.115C3725.85 387.609 3723.78 389.685 3722.17 392.341C3720.57 394.942 3719.38 397.958 3718.6 401.389C3717.83 404.764 3717.44 408.389 3717.44 412.263ZM3814.81 413.674H3837.3L3812.07 458H3789.58L3814.81 413.674ZM3830.08 368.186H3869.1V458H3847.18V385.285H3830.08C3826.6 385.285 3823.69 385.922 3821.37 387.194C3819.1 388.467 3817.41 390.1 3816.3 392.092C3815.2 394.029 3814.64 396.021 3814.64 398.068C3814.64 400.061 3815.17 401.997 3816.22 403.879C3817.27 405.76 3818.88 407.31 3821.04 408.527C3823.25 409.745 3826.02 410.354 3829.34 410.354H3854.99V425.793H3829.34C3823.64 425.793 3818.52 425.101 3813.98 423.718C3809.5 422.279 3805.65 420.287 3802.44 417.741C3799.29 415.196 3796.88 412.207 3795.22 408.776C3793.56 405.29 3792.73 401.499 3792.73 397.404C3792.73 393.199 3793.56 389.325 3795.22 385.783C3796.94 382.242 3799.4 379.143 3802.61 376.486C3805.87 373.83 3809.8 371.783 3814.39 370.344C3819.04 368.905 3824.27 368.186 3830.08 368.186ZM3934.09 368.186V458H3912.09V368.186H3934.09ZM3963.31 368.186V385.285H3883.37V368.186H3963.31ZM4010.54 459.66C4003.74 459.66 3997.62 458.553 3992.2 456.34C3986.77 454.126 3982.15 451.055 3978.33 447.126C3974.57 443.142 3971.67 438.521 3969.62 433.264C3967.63 427.951 3966.63 422.251 3966.63 416.164V412.844C3966.63 405.926 3967.63 399.646 3969.62 394.001C3971.61 388.301 3974.43 383.404 3978.09 379.309C3981.74 375.214 3986.11 372.059 3991.2 369.846C3996.29 367.632 4001.91 366.525 4008.05 366.525C4014.42 366.525 4020.03 367.604 4024.9 369.763C4029.77 371.866 4033.84 374.854 4037.1 378.728C4040.37 382.601 4042.83 387.25 4044.49 392.673C4046.15 398.041 4046.98 403.99 4046.98 410.52V419.733H3976.59V404.626H4025.4V402.966C4025.29 399.479 4024.63 396.298 4023.41 393.42C4022.19 390.487 4020.31 388.163 4017.76 386.447C4015.22 384.676 4011.93 383.791 4007.89 383.791C4004.62 383.791 4001.77 384.51 3999.34 385.949C3996.96 387.333 3994.96 389.325 3993.36 391.926C3991.81 394.471 3990.65 397.515 3989.87 401.057C3989.1 404.598 3988.71 408.527 3988.71 412.844V416.164C3988.71 419.927 3989.21 423.413 3990.21 426.623C3991.26 429.833 3992.78 432.627 3994.77 435.007C3996.82 437.331 3999.25 439.157 4002.08 440.485C4004.95 441.758 4008.22 442.395 4011.87 442.395C4016.46 442.395 4020.61 441.509 4024.32 439.738C4028.08 437.912 4031.35 435.228 4034.12 431.687L4045.16 443.142C4043.27 445.909 4040.73 448.565 4037.52 451.11C4034.37 453.656 4030.55 455.731 4026.06 457.336C4021.58 458.885 4016.41 459.66 4010.54 459.66ZM4122.02 368.186V385.534H4078.03V368.186H4122.02ZM4138.54 368.186V458H4116.63V368.186H4138.54ZM4072.55 368.186H4094.21L4091.81 413.01C4091.42 419.595 4090.73 425.378 4089.73 430.358C4088.74 435.284 4087.41 439.517 4085.75 443.059C4084.09 446.545 4082.07 449.395 4079.69 451.608C4077.31 453.822 4074.54 455.454 4071.39 456.506C4068.29 457.502 4064.8 458 4060.93 458H4054.2L4053.96 440.319L4057.11 440.07C4059.05 439.904 4060.71 439.379 4062.09 438.493C4063.53 437.608 4064.75 436.335 4065.74 434.675C4066.79 433.015 4067.65 430.884 4068.32 428.283C4069.03 425.627 4069.59 422.528 4069.98 418.986C4070.42 415.389 4070.72 411.239 4070.89 406.535L4072.55 368.186ZM4174.23 395.827H4200.46C4208.43 395.827 4215.21 397.155 4220.8 399.812C4226.45 402.412 4230.73 406.065 4233.67 410.769C4236.66 415.417 4238.15 420.812 4238.15 426.955C4238.15 431.382 4237.29 435.505 4235.58 439.323C4233.92 443.086 4231.48 446.379 4228.27 449.201C4225.06 451.968 4221.11 454.126 4216.4 455.676C4211.75 457.225 4206.44 458 4200.46 458H4160.12V368.186H4182.12V440.817H4200.46C4204.28 440.817 4207.33 440.181 4209.59 438.908C4211.92 437.58 4213.58 435.892 4214.58 433.845C4215.63 431.742 4216.15 429.501 4216.15 427.121C4216.15 424.686 4215.63 422.417 4214.58 420.314C4213.58 418.156 4211.92 416.413 4209.59 415.085C4207.33 413.757 4204.28 413.093 4200.46 413.093H4174.23V395.827ZM4314.27 405.041V422.224H4268.2V405.041H4314.27ZM4275.09 368.186V458H4253.09V368.186H4275.09ZM4329.62 368.186V458H4307.54V368.186H4329.62ZM4345.64 414.006V412.263C4345.64 405.677 4346.59 399.618 4348.47 394.084C4350.35 388.495 4353.09 383.653 4356.68 379.558C4360.28 375.463 4364.68 372.281 4369.88 370.012C4375.08 367.688 4381.01 366.525 4387.65 366.525C4394.4 366.525 4400.37 367.688 4405.58 370.012C4410.83 372.281 4415.26 375.463 4418.86 379.558C4422.45 383.653 4425.19 388.495 4427.08 394.084C4428.96 399.618 4429.9 405.677 4429.9 412.263V414.006C4429.9 420.536 4428.96 426.595 4427.08 432.185C4425.19 437.718 4422.45 442.561 4418.86 446.711C4415.26 450.806 4410.86 453.988 4405.66 456.257C4400.46 458.526 4394.51 459.66 4387.81 459.66C4381.17 459.66 4375.22 458.526 4369.97 456.257C4364.71 453.988 4360.28 450.806 4356.68 446.711C4353.09 442.561 4350.35 437.718 4348.47 432.185C4346.59 426.595 4345.64 420.536 4345.64 414.006ZM4367.56 412.263V414.006C4367.56 417.935 4367.95 421.615 4368.72 425.046C4369.5 428.477 4370.69 431.493 4372.29 434.094C4373.89 436.695 4375.97 438.742 4378.52 440.236C4381.12 441.675 4384.22 442.395 4387.81 442.395C4391.35 442.395 4394.4 441.675 4396.94 440.236C4399.49 438.742 4401.56 436.695 4403.17 434.094C4404.83 431.493 4406.05 428.477 4406.82 425.046C4407.6 421.615 4407.98 417.935 4407.98 414.006V412.263C4407.98 408.389 4407.6 404.764 4406.82 401.389C4406.05 397.958 4404.83 394.942 4403.17 392.341C4401.56 389.685 4399.46 387.609 4396.86 386.115C4394.31 384.566 4391.24 383.791 4387.65 383.791C4384.1 383.791 4381.06 384.566 4378.52 386.115C4375.97 387.609 4373.89 389.685 4372.29 392.341C4370.69 394.942 4369.5 397.958 4368.72 401.389C4367.95 404.764 4367.56 408.389 4367.56 412.263Z" fill="white"/>
<path d="M4833.69 369.953C4825.88 369.953 4818.82 368.684 4812.5 366.145C4806.25 363.54 4800.91 359.927 4796.48 355.305C4792.12 350.682 4788.77 345.246 4786.43 338.996C4784.08 332.746 4782.91 326.008 4782.91 318.781V314.875C4782.91 306.607 4784.11 299.12 4786.52 292.414C4788.93 285.708 4792.29 279.979 4796.58 275.227C4800.88 270.409 4805.96 266.73 4811.82 264.191C4817.68 261.652 4824.02 260.383 4830.86 260.383C4838.41 260.383 4845.02 261.652 4850.68 264.191C4856.35 266.73 4861.04 270.311 4864.75 274.934C4868.52 279.491 4871.32 284.927 4873.14 291.242C4875.03 297.557 4875.98 304.523 4875.98 312.141V322.199H4794.34V305.305H4852.73V303.449C4852.6 299.217 4851.76 295.246 4850.2 291.535C4848.7 287.824 4846.39 284.829 4843.26 282.551C4840.14 280.272 4835.97 279.133 4830.76 279.133C4826.86 279.133 4823.37 279.979 4820.31 281.672C4817.32 283.299 4814.81 285.676 4812.79 288.801C4810.77 291.926 4809.21 295.702 4808.11 300.129C4807.06 304.491 4806.54 309.406 4806.54 314.875V318.781C4806.54 323.404 4807.16 327.701 4808.4 331.672C4809.7 335.578 4811.59 338.996 4814.06 341.926C4816.54 344.855 4819.53 347.167 4823.05 348.859C4826.56 350.487 4830.57 351.301 4835.06 351.301C4840.72 351.301 4845.77 350.161 4850.2 347.883C4854.62 345.604 4858.46 342.382 4861.72 338.215L4874.12 350.227C4871.84 353.547 4868.88 356.737 4865.23 359.797C4861.59 362.792 4857.13 365.233 4851.86 367.121C4846.65 369.009 4840.59 369.953 4833.69 369.953ZM4917.97 282.453V368H4894.43V262.336H4916.89L4917.97 282.453ZM4950.29 261.652L4950.1 283.527C4948.67 283.267 4947.1 283.072 4945.41 282.941C4943.78 282.811 4942.15 282.746 4940.53 282.746C4936.49 282.746 4932.94 283.332 4929.88 284.504C4926.82 285.611 4924.25 287.238 4922.17 289.387C4920.15 291.47 4918.59 294.009 4917.48 297.004C4916.37 299.999 4915.72 303.352 4915.53 307.062L4910.16 307.453C4910.16 300.812 4910.81 294.66 4912.11 288.996C4913.41 283.332 4915.36 278.352 4917.97 274.055C4920.64 269.758 4923.96 266.405 4927.93 263.996C4931.97 261.587 4936.62 260.383 4941.89 260.383C4943.33 260.383 4944.86 260.513 4946.48 260.773C4948.18 261.034 4949.45 261.327 4950.29 261.652ZM5058.98 349.25V368H4963.67V351.887L5009.96 301.398C5015.04 295.669 5019.04 290.721 5021.97 286.555C5024.9 282.388 5026.95 278.645 5028.12 275.324C5029.36 271.939 5029.98 268.651 5029.98 265.461C5029.98 260.969 5029.13 257.03 5027.44 253.645C5025.81 250.194 5023.4 247.492 5020.21 245.539C5017.02 243.521 5013.15 242.512 5008.59 242.512C5003.32 242.512 4998.89 243.651 4995.31 245.93C4991.73 248.208 4989.03 251.366 4987.21 255.402C4985.38 259.374 4984.47 263.931 4984.47 269.074H4960.94C4960.94 260.806 4962.83 253.254 4966.6 246.418C4970.38 239.517 4975.85 234.048 4983.01 230.012C4990.17 225.91 4998.8 223.859 5008.89 223.859C5018.39 223.859 5026.46 225.454 5033.11 228.645C5039.75 231.835 5044.79 236.359 5048.24 242.219C5051.76 248.078 5053.52 255.012 5053.52 263.02C5053.52 267.447 5052.8 271.841 5051.37 276.203C5049.93 280.565 5047.88 284.927 5045.21 289.289C5042.61 293.586 5039.52 297.915 5035.94 302.277C5032.36 306.574 5028.42 310.936 5024.12 315.363L4993.36 349.25H5058.98ZM5170.02 284.992V308.234C5170.02 319.367 5168.91 328.872 5166.7 336.75C5164.55 344.562 5161.43 350.91 5157.32 355.793C5153.22 360.676 5148.31 364.257 5142.58 366.535C5136.91 368.814 5130.57 369.953 5123.54 369.953C5117.94 369.953 5112.73 369.237 5107.91 367.805C5103.16 366.372 5098.86 364.126 5095.02 361.066C5091.18 358.007 5087.89 354.068 5085.16 349.25C5082.49 344.367 5080.4 338.54 5078.91 331.77C5077.47 324.999 5076.76 317.154 5076.76 308.234V284.992C5076.76 273.794 5077.86 264.354 5080.08 256.672C5082.29 248.924 5085.45 242.642 5089.55 237.824C5093.65 232.941 5098.54 229.393 5104.2 227.18C5109.93 224.966 5116.31 223.859 5123.34 223.859C5129 223.859 5134.21 224.576 5138.96 226.008C5143.78 227.375 5148.08 229.556 5151.86 232.551C5155.7 235.546 5158.95 239.452 5161.62 244.27C5164.36 249.022 5166.44 254.784 5167.87 261.555C5169.3 268.26 5170.02 276.073 5170.02 284.992ZM5146.48 311.555V281.477C5146.48 275.812 5146.16 270.832 5145.51 266.535C5144.86 262.173 5143.88 258.495 5142.58 255.5C5141.34 252.44 5139.78 249.966 5137.89 248.078C5136 246.125 5133.85 244.725 5131.45 243.879C5129.04 242.967 5126.33 242.512 5123.34 242.512C5119.69 242.512 5116.44 243.228 5113.57 244.66C5110.71 246.027 5108.3 248.241 5106.35 251.301C5104.39 254.361 5102.9 258.397 5101.86 263.41C5100.88 268.358 5100.39 274.38 5100.39 281.477V311.555C5100.39 317.284 5100.72 322.329 5101.37 326.691C5102.02 331.053 5102.99 334.797 5104.3 337.922C5105.6 340.982 5107.16 343.521 5108.98 345.539C5110.87 347.492 5113.02 348.924 5115.43 349.836C5117.9 350.747 5120.61 351.203 5123.54 351.203C5127.25 351.203 5130.53 350.487 5133.4 349.055C5136.26 347.622 5138.67 345.344 5140.62 342.219C5142.58 339.029 5144.04 334.895 5145.02 329.816C5146 324.738 5146.48 318.651 5146.48 311.555ZM5255.27 225.324V368H5231.74V253.254L5196.88 265.07V245.637L5252.44 225.324H5255.27ZM5307.03 356.281C5307.03 352.635 5308.27 349.576 5310.74 347.102C5313.22 344.562 5316.57 343.293 5320.8 343.293C5325.1 343.293 5328.45 344.562 5330.86 347.102C5333.33 349.576 5334.57 352.635 5334.57 356.281C5334.57 359.927 5333.33 362.987 5330.86 365.461C5328.45 367.935 5325.1 369.172 5320.8 369.172C5316.57 369.172 5313.22 367.935 5310.74 365.461C5308.27 362.987 5307.03 359.927 5307.03 356.281Z" fill="#7666C4"/>
<path fill-rule="evenodd" clip-rule="evenodd" d="M620 300C620 197.825 537.175 115 435 115C332.825 115 250 197.825 250 300C250 402.175 332.825 485 435 485C537.175 485 620 402.175 620 300ZM435 207.5C439.907 207.5 444.612 209.449 448.081 212.919C451.551 216.388 453.5 221.093 453.5 226V318.5C453.5 323.407 451.551 328.112 448.081 331.581C444.612 335.051 439.907 337 435 337C430.093 337 425.388 335.051 421.919 331.581C418.449 328.112 416.5 323.407 416.5 318.5V226C416.5 221.093 418.449 216.388 421.919 212.919C425.388 209.449 430.093 207.5 435 207.5ZM416.5 374C416.5 369.093 418.449 364.388 421.919 360.919C425.388 357.449 430.093 355.5 435 355.5H435.148C440.055 355.5 444.76 357.449 448.229 360.919C451.699 364.388 453.648 369.093 453.648 374C453.648 378.907 451.699 383.612 448.229 387.081C444.76 390.551 440.055 392.5 435.148 392.5H435C430.093 392.5 425.388 390.551 421.919 387.081C418.449 383.612 416.5 378.907 416.5 374Z" fill="#E6E6E6"/>
</svg>
